<svg width="220" height="220" viewBox="0 0 220 220" fill="none" xmlns="http://www.w3.org/2000/svg">
<g filter="url(#filter0_d)">
<path fill-rule="evenodd" clip-rule="evenodd" d="M179.535 127.203C179.535 127.203 177.372 194.997 111.354 194.997C45.339 194.997 41 110.387 41 110.387C41 110.387 54.5923 131 60.1709 127.203C65.7495 123.399 58.356 91.1665 69.8233 69.4748C81.2906 47.7765 120.032 25 120.032 25C120.032 25 101.437 83.264 134.598 88.8426C167.762 94.4213 156.913 69.3208 156.913 69.3208C156.913 69.3208 173.649 92.5662 169.624 108.063C165.592 123.553 159.082 126.969 163.73 130.994C168.385 135.025 179.535 127.203 179.535 127.203Z" fill="url(#paint0_linear)"/>
<path fill-rule="evenodd" clip-rule="evenodd" d="M110.286 195C93.1194 195 81.8135 176.315 81.8135 176.315C81.8135 176.315 73.8789 163.142 84.3919 145.174C94.9048 127.206 112.36 118.989 112.36 118.989C112.36 118.989 107.555 151.121 118.707 151.121C129.86 151.121 129.86 141.009 129.86 141.009C129.86 141.009 145.029 159.138 139.932 173.342C134.38 188.812 127.452 195 110.286 195Z" fill="url(#paint1_linear)"/>
</g>
<defs>
<filter id="filter0_d" x="29" y="13" width="162.535" height="194" filterUnits="userSpaceOnUse" color-interpolation-filters="sRGB">
<feFlood flood-opacity="0" result="BackgroundImageFix"/>
<feColorMatrix in="SourceAlpha" type="matrix" values="0 0 0 0 0 0 0 0 0 0 0 0 0 0 0 0 0 0 127 0"/>
<feMorphology radius="2" operator="dilate" in="SourceAlpha" result="effect1_dropShadow"/>
<feOffset/>
<feGaussianBlur stdDeviation="5"/>
<feColorMatrix type="matrix" values="0 0 0 0 0.268879 0 0 0 0 0.546665 0 0 0 0 0.879167 0 0 0 1 0"/>
<feBlend mode="normal" in2="BackgroundImageFix" result="effect1_dropShadow"/>
<feBlend mode="normal" in="SourceGraphic" in2="effect1_dropShadow" result="shape"/>
</filter>
<linearGradient id="paint0_linear" x1="116.143" y1="35.6884" x2="113.973" y2="194.992" gradientUnits="userSpaceOnUse">
<stop stop-color="#00F9BB"/>
<stop offset="1" stop-color="#627EEA"/>
</linearGradient>
<linearGradient id="paint1_linear" x1="110.286" y1="189.227" x2="114.324" y2="149.866" gradientUnits="userSpaceOnUse">
<stop stop-color="#4F96E1"/>
<stop offset="1" stop-color="white"/>
</linearGradient>
</defs>
</svg>
