<?xml version="1.0" encoding="UTF-8" standalone="no"?>
<!-- Created with Inkscape (http://www.inkscape.org/) -->

<svg
   width="1920"
   height="1920"
   viewBox="0 0 507.99999 508.00001"
   version="1.1"
   id="svg5"
   inkscape:version="1.1 (c68e22c387, 2021-05-23)"
   sodipodi:docname="Copy.svg"
   xmlns:inkscape="http://www.inkscape.org/namespaces/inkscape"
   xmlns:sodipodi="http://sodipodi.sourceforge.net/DTD/sodipodi-0.dtd"
   xmlns="http://www.w3.org/2000/svg"
   xmlns:svg="http://www.w3.org/2000/svg">
  <sodipodi:namedview
     id="namedview7"
     pagecolor="#ffffff"
     bordercolor="#666666"
     borderopacity="1.0"
     inkscape:pageshadow="2"
     inkscape:pageopacity="0.0"
     inkscape:pagecheckerboard="0"
     inkscape:document-units="mm"
     showgrid="false"
     units="px"
     inkscape:zoom="0.25"
     inkscape:cx="-208"
     inkscape:cy="356"
     inkscape:window-width="2560"
     inkscape:window-height="1346"
     inkscape:window-x="-11"
     inkscape:window-y="-11"
     inkscape:window-maximized="1"
     inkscape:current-layer="layer1" />
  <defs
     id="defs2">
    <rect
       x="842.96875"
       y="-494.53125"
       width="1366.7998"
       height="1122.1615"
       id="rect25933" />
  </defs>
  <g
     inkscape:label="Warstwa 1"
     inkscape:groupmode="layer"
     id="layer1">
    <path
       style="fill:#fbfbfb;stroke-width:0.292222;fill-opacity:1"
       d="M 50.321054,506.85171 C 41.31092,505.4087 33.67587,502.53379 27.034262,498.08329 14.949052,489.98506 6.7773885,477.9271 3.6463758,463.57257 L 2.8349716,459.85264 V 291.09426 122.3359 l 0.673275,-3.06834 C 8.3467266,97.217286 24.471876,81.092136 46.522186,76.253624 l 3.068336,-0.673272 H 218.49498 387.39946 l 3.06833,0.673272 c 14.61436,3.206808 26.69553,11.356116 34.87665,23.525877 3.67719,5.469989 6.59429,12.456119 8.13728,19.488059 l 0.67332,3.06834 v 168.75836 168.75838 l -0.8114,3.71993 c -2.58282,11.84114 -8.43054,21.91374 -17.3064,29.81016 -7.0775,6.29647 -15.56278,10.58185 -25.42335,12.83975 l -2.9222,0.6691 -168.32004,0.0386 c -92.57601,0.0208 -168.648778,-0.0132 -169.050596,-0.0784 z m 330.093016,-29.6254 c 13.50758,-1.09686 22.96996,-10.55924 24.06683,-24.06681 0.4268,-5.25615 0.4268,-318.58212 0,-323.83823 -0.61947,-7.62907 -3.75635,-13.8241 -9.28273,-18.33269 -4.40115,-3.59054 -8.88855,-5.28168 -15.27551,-5.75666 -2.94688,-0.21917 -52.35699,-0.28302 -164.49601,-0.21261 -146.497347,0.0918 -160.461299,0.14151 -162.346239,0.57411 -10.43278,2.39537 -17.837067,9.79965 -20.232466,20.23248 -0.432818,1.885 -0.481999,15.86666 -0.572328,162.63844 -0.06931,112.73042 -0.0074,161.73347 0.215374,164.46032 0.209852,2.59501 0.562239,4.6803 1.061728,6.2828 3.14116,10.0766 11.955466,17.13963 22.466739,18.00291 4.514935,0.37082 319.833822,0.38635 324.394692,0.0173 z m 82.81707,-53.28801 c 0,-4.06202 0.0864,-11.32807 0.19191,-16.14683 l 0.19224,-8.76135 2.23692,-1.77967 c 5.79876,-4.61348 9.00495,-10.80303 9.6387,-18.60763 0.42681,-5.25611 0.42681,-318.582095 0,-323.83823 -0.61949,-7.629073 -3.75633,-13.824106 -9.28271,-18.332692 -4.40116,-3.590539 -8.88855,-5.281677 -15.27552,-5.756666 -2.94691,-0.219165 -52.35699,-0.283017 -164.496,-0.212608 -146.49737,0.09181 -160.46133,0.141507 -162.34626,0.574114 -5.11677,1.174838 -9.68748,3.642619 -13.13864,7.093823 -1.98846,1.988411 -4.53083,5.603384 -5.15518,7.330073 l -0.36297,1.003646 H 89.85848 c -12.265527,0 -15.575127,-0.07765 -15.574818,-0.365266 2.19e-4,-0.200874 0.319961,-1.680267 0.710589,-3.287501 C 80.068387,21.974001 96.152152,6.4284205 117.5322,1.7370099 l 3.06833,-0.6732733 h 168.90448 168.90446 l 3.06834,0.6732733 c 7.03194,1.5430372 14.01808,4.4600944 19.48806,8.1372977 12.16976,8.1811304 20.31907,20.2622914 23.52588,34.8766384 l 0.67327,3.068335 V 216.57765 385.33602 l -0.81138,3.71994 c -4.43947,20.35303 -19.3354,36.23033 -39.13985,41.71839 l -1.98265,0.54945 z"
       id="path88163" />
  </g>
</svg>
