<svg width="220" height="220" viewBox="0 0 220 220" fill="none" xmlns="http://www.w3.org/2000/svg">
<g filter="url(#filter0_d)">
<path fill-rule="evenodd" clip-rule="evenodd" d="M95.0528 121.698H124.715V160.775H139.546L109.884 203L80.2222 160.775H95.0528V121.698Z" fill="white"/>
<path fill-rule="evenodd" clip-rule="evenodd" d="M68.1691 127.595C38.2123 127.255 14 102.832 14 72.7993C14 42.7638 38.2169 18.3393 68.1699 18.0038L68.1669 18H76.4828L76.2677 18.506C102.986 22.1553 123.598 45.0891 123.598 72.7993C123.598 100.307 103.287 123.108 76.8577 127.009L77.2425 127.599H68.1669L68.1691 127.595Z" fill="url(#paint0_linear)"/>
<path d="M76.4685 127.599C106.733 127.599 131.268 103.064 131.268 72.7993C131.268 42.5345 106.733 18 76.4685 18C46.2037 18 21.6692 42.5345 21.6692 72.7993C21.6692 103.064 46.2037 127.599 76.4685 127.599Z" fill="url(#paint1_linear)"/>
<path fill-rule="evenodd" clip-rule="evenodd" d="M76.4817 30.4268C53.1017 30.4268 34.1194 49.4085 34.1194 72.7891C34.1194 96.1696 53.1017 115.151 76.4817 115.151C99.8622 115.151 118.844 96.1696 118.844 72.7891C118.844 49.4085 99.8622 30.4268 76.4817 30.4268ZM76.4817 33.5825C98.1203 33.5825 115.688 51.1505 115.688 72.7891C115.688 94.4277 98.1203 111.996 76.4817 111.996C54.8431 111.996 37.2757 94.4277 37.2757 72.7891C37.2757 51.1505 54.8431 33.5825 76.4817 33.5825Z" fill="#35B7D4"/>
<path fill-rule="evenodd" clip-rule="evenodd" d="M103.059 127.595C73.1017 127.255 48.8894 102.832 48.8894 72.7993C48.8894 42.7638 73.1063 18.3393 103.059 18.0038L103.056 18H111.372L111.157 18.506C137.876 22.1553 158.487 45.0891 158.487 72.7993C158.487 100.307 138.177 123.108 111.747 127.009L112.132 127.599H103.056L103.059 127.595Z" fill="url(#paint2_linear)"/>
<path d="M111.358 127.599C141.623 127.599 166.157 103.064 166.157 72.7993C166.157 42.5345 141.623 18 111.358 18C81.0931 18 56.5586 42.5345 56.5586 72.7993C56.5586 103.064 81.0931 127.599 111.358 127.599Z" fill="url(#paint3_linear)"/>
<path fill-rule="evenodd" clip-rule="evenodd" d="M111.372 30.4268C87.9916 30.4268 69.0093 49.4085 69.0093 72.7891C69.0093 96.1696 87.9916 115.151 111.372 115.151C134.752 115.151 153.734 96.1696 153.734 72.7891C153.734 49.4085 134.752 30.4268 111.372 30.4268ZM111.372 33.5825C133.01 33.5825 150.578 51.1505 150.578 72.7891C150.578 94.4277 133.01 111.996 111.372 111.996C89.733 111.996 72.1656 94.4277 72.1656 72.7891C72.1656 51.1505 89.733 33.5825 111.372 33.5825Z" fill="#35B7D4"/>
<path fill-rule="evenodd" clip-rule="evenodd" d="M142.588 127.595C112.631 127.255 88.4187 102.832 88.4187 72.7993C88.4187 42.7638 112.636 18.3393 142.589 18.0038L142.586 18H150.901L150.686 18.506C177.405 22.1553 198.017 45.0891 198.017 72.7993C198.017 100.307 177.706 123.108 151.276 127.009L151.661 127.599H142.586L142.588 127.595Z" fill="url(#paint4_linear)"/>
<path d="M150.887 127.599C181.152 127.599 205.687 103.064 205.687 72.7993C205.687 42.5345 181.152 18 150.887 18C120.622 18 96.0879 42.5345 96.0879 72.7993C96.0879 103.064 120.622 127.599 150.887 127.599Z" fill="url(#paint5_linear)"/>
<path fill-rule="evenodd" clip-rule="evenodd" d="M150.901 30.4268C127.521 30.4268 108.538 49.4085 108.538 72.7891C108.538 96.1696 127.521 115.151 150.901 115.151C174.281 115.151 193.263 96.1696 193.263 72.7891C193.263 49.4085 174.281 30.4268 150.901 30.4268ZM150.901 33.5825C172.539 33.5825 190.107 51.1505 190.107 72.7891C190.107 94.4277 172.539 111.996 150.901 111.996C129.262 111.996 111.695 94.4277 111.695 72.7891C111.695 51.1505 129.262 33.5825 150.901 33.5825Z" fill="#35B7D4"/>
</g>
<defs>
<filter id="filter0_d" x="2" y="6" width="215.687" height="209" filterUnits="userSpaceOnUse" color-interpolation-filters="sRGB">
<feFlood flood-opacity="0" result="BackgroundImageFix"/>
<feColorMatrix in="SourceAlpha" type="matrix" values="0 0 0 0 0 0 0 0 0 0 0 0 0 0 0 0 0 0 127 0"/>
<feMorphology radius="2" operator="dilate" in="SourceAlpha" result="effect1_dropShadow"/>
<feOffset/>
<feGaussianBlur stdDeviation="5"/>
<feColorMatrix type="matrix" values="0 0 0 0 0.268879 0 0 0 0 0.546665 0 0 0 0 0.879167 0 0 0 1 0"/>
<feBlend mode="normal" in2="BackgroundImageFix" result="effect1_dropShadow"/>
<feBlend mode="normal" in="SourceGraphic" in2="effect1_dropShadow" result="shape"/>
</filter>
<linearGradient id="paint0_linear" x1="201.689" y1="77.1766" x2="15.196" y2="78.2362" gradientUnits="userSpaceOnUse">
<stop stop-color="#00F9BB"/>
<stop offset="1" stop-color="#627EEA"/>
</linearGradient>
<linearGradient id="paint1_linear" x1="21.6692" y1="71.7397" x2="128.089" y2="77.0378" gradientUnits="userSpaceOnUse">
<stop stop-color="#00F9BB"/>
<stop offset="1" stop-color="#627EEA"/>
</linearGradient>
<linearGradient id="paint2_linear" x1="201.674" y1="77.1766" x2="15.181" y2="78.2362" gradientUnits="userSpaceOnUse">
<stop stop-color="#00F9BB"/>
<stop offset="1" stop-color="#627EEA"/>
</linearGradient>
<linearGradient id="paint3_linear" x1="56.5586" y1="72.7993" x2="166.157" y2="72.7993" gradientUnits="userSpaceOnUse">
<stop stop-color="#00F9BB"/>
<stop offset="1" stop-color="#627EEA"/>
</linearGradient>
<linearGradient id="paint4_linear" x1="200.609" y1="80.3555" x2="95.7068" y2="77.1767" gradientUnits="userSpaceOnUse">
<stop stop-color="#00F9BB"/>
<stop offset="1" stop-color="#627EEA"/>
</linearGradient>
<linearGradient id="paint5_linear" x1="96.7522" y1="72.9379" x2="203.773" y2="72.9379" gradientUnits="userSpaceOnUse">
<stop stop-color="#00F9BB"/>
<stop offset="1" stop-color="#627EEA"/>
</linearGradient>
</defs>
</svg>
