<?xml version="1.0" encoding="UTF-8" standalone="no"?>
<!-- Created with Inkscape (http://www.inkscape.org/) -->

<svg
   width="1920"
   height="1710"
   viewBox="0 0 508 452.43752"
   version="1.1"
   id="svg5"
   inkscape:version="1.1 (c68e22c387, 2021-05-23)"
   sodipodi:docname="Devnet.svg"
   xmlns:inkscape="http://www.inkscape.org/namespaces/inkscape"
   xmlns:sodipodi="http://sodipodi.sourceforge.net/DTD/sodipodi-0.dtd"
   xmlns="http://www.w3.org/2000/svg"
   xmlns:svg="http://www.w3.org/2000/svg">
  <sodipodi:namedview
     id="namedview7"
     pagecolor="#ffffff"
     bordercolor="#666666"
     borderopacity="1.0"
     inkscape:pageshadow="2"
     inkscape:pageopacity="0.0"
     inkscape:pagecheckerboard="0"
     inkscape:document-units="mm"
     showgrid="false"
     units="px"
     width="1920px"
     inkscape:zoom="0.25"
     inkscape:cx="88"
     inkscape:cy="88"
     inkscape:window-width="2560"
     inkscape:window-height="1346"
     inkscape:window-x="-11"
     inkscape:window-y="-11"
     inkscape:window-maximized="1"
     inkscape:current-layer="layer2" />
  <defs
     id="defs2" />
  <g
     inkscape:label="Warstwa 1"
     inkscape:groupmode="layer"
     id="layer1"
     style="opacity:0.304403" />
  <g
     inkscape:groupmode="layer"
     id="layer2"
     inkscape:label="Warstwa 2"
     style="display:inline;opacity:1">
    <g
       id="g8440"
       transform="matrix(16.861765,0,0,16.861765,-1497.2297,-2989.2624)">
      <path
         id="rect3213"
         style="font-variation-settings:normal;opacity:1;vector-effect:none;fill:#fbfbfb;fill-opacity:1;stroke:none;stroke-width:0.324635;stroke-linecap:butt;stroke-linejoin:miter;stroke-miterlimit:4;stroke-dasharray:none;stroke-dashoffset:0;stroke-opacity:1;-inkscape-stroke:none;stop-color:#000000;stop-opacity:1"
         d="m 335.60156,670.67383 v 24.37695 h 68.9336 v 0.006 c 5.27138,0.0915 8.46842,1.53513 10.41601,4.14063 1.88677,2.5241 2.6182,6.2411 2.66211,11.02734 v 25.28516 h 30.85156 V 706.7793 c 0,-8.78948 -0.66939,-15.7835 -2.8125,-21.22266 -2.1431,-5.43919 -5.80103,-9.30394 -11.62695,-11.69336 -6.5272,-2.67707 -12.78264,-3.18138 -28.62891,-3.18164 v -0.008 z m 69.79492,1.0039 c 15.82507,2.6e-4 21.88459,0.49829 28.2461,3.10743 5.61524,2.30301 9.01872,5.909 11.08008,11.14062 2.05058,5.20441 2.7312,12.04509 2.73828,20.71875 h -29.02539 c -0.32869,-3.25846 -1.13291,-5.96518 -2.6875,-8.04492 -2.04491,-2.73569 -5.37401,-4.28124 -10.35157,-4.51758 z"
         transform="scale(0.26458333)" />
      <rect
         style="font-variation-settings:normal;opacity:1;vector-effect:none;fill:#fbfbfb;fill-opacity:1;stroke:none;stroke-width:0.086409;stroke-linecap:butt;stroke-linejoin:miter;stroke-miterlimit:4;stroke-dasharray:none;stroke-dashoffset:0;stroke-opacity:1;-inkscape-stroke:none;stop-color:#000000;stop-opacity:1"
         id="rect3420"
         width="18.689564"
         height="6.449532"
         x="88.794365"
         y="197.53" />
      <rect
         style="font-variation-settings:normal;opacity:1;vector-effect:none;fill:#fbfbfb;fill-opacity:1;stroke:none;stroke-width:0.0887503;stroke-linecap:butt;stroke-linejoin:miter;stroke-miterlimit:4;stroke-dasharray:none;stroke-dashoffset:0;stroke-opacity:1;-inkscape-stroke:none;stop-color:#000000;stop-opacity:1"
         id="rect3459"
         width="16.210987"
         height="7.8440256"
         x="187.76855"
         y="-96.63839"
         transform="rotate(90)" />
      <path
         style="fill:none;fill-rule:evenodd;stroke:#fbfbfb;stroke-width:0.264583px;stroke-linecap:butt;stroke-linejoin:miter;stroke-opacity:1"
         d="m 107.03515,197.66653 c 2.83701,-0.0492 3.59161,-1.59333 3.59161,-4.27024"
         id="path7146"
         sodipodi:nodetypes="cc" />
      <path
         style="opacity:1;fill:none;fill-rule:evenodd;stroke:#fbfbfb;stroke-width:0.264583px;stroke-linecap:butt;stroke-linejoin:miter;stroke-opacity:1"
         d="m 107.2581,203.8467 c 4.19224,0 5.82124,-0.13272 7.52674,-0.83222 3.02715,-1.24155 3.73842,-3.94863 3.73842,-8.58622"
         id="path7148"
         sodipodi:nodetypes="csc" />
      <path
         style="font-variation-settings:normal;opacity:1;vector-effect:none;fill:none;fill-opacity:1;stroke:none;stroke-width:0.125px;stroke-linecap:butt;stroke-linejoin:miter;stroke-miterlimit:4;stroke-dasharray:none;stroke-dashoffset:0;stroke-opacity:1;-inkscape-stroke:none;stop-color:#000000;stop-opacity:1"
         d="m 418.43889,706.09375 c -0.56854,-3.67934 -1.3355,-5.81629 -2.74469,-7.64748 -1.92853,-2.50606 -5.08109,-3.9933 -9.19133,-4.33608 L 405.5,694.02655 v -11.16798 -11.16799 l 4.46875,0.066 c 12.00685,0.17743 16.61769,0.67303 21.55868,2.31727 3.92448,1.30598 6.75843,2.99953 9.07606,5.42381 4.44881,4.65354 6.45131,11.69157 6.73147,23.65856 l 0.0797,3.40625 h -14.45169 -14.45169 z"
         id="path7820"
         transform="scale(0.26458333)" />
      <path
         style="font-variation-settings:normal;opacity:1;vector-effect:none;fill:none;fill-opacity:1;stroke:none;stroke-width:0.125px;stroke-linecap:butt;stroke-linejoin:miter;stroke-miterlimit:4;stroke-dasharray:none;stroke-dashoffset:0;stroke-opacity:1;-inkscape-stroke:none;stop-color:#000000;stop-opacity:1"
         d="M 335.625,740.32293 V 709.6875 h 14.8125 14.8125 v 18.50614 18.50613 l 20.65625,-0.0495 c 18.33378,-0.0439 20.78274,-0.0722 21.78125,-0.25157 2.56711,-0.46115 4.41478,-1.21709 5.83192,-2.38601 1.90916,-1.57477 3.09048,-3.88674 3.75261,-7.34425 0.26649,-1.3915 0.27253,-1.67638 0.31805,-14.97752 0.04,-11.68435 0.0195,-13.79283 -0.14849,-15.25 -0.60089,-5.21354 -2.33993,-8.26987 -5.65174,-9.93283 -1.68301,-0.84508 -3.39331,-1.24687 -6.1555,-1.44607 -1.04478,-0.0753 -14.82247,-0.12279 -35.8531,-0.12346 l -34.15625,-0.001 v -12.125 -12.125 l 34.84375,0.005 c 33.82817,0.005 45.58773,0.0913 49.46875,0.36418 5.56484,0.39126 9.10351,1.04439 12.67723,2.33981 3.33388,1.20849 5.9672,2.78064 8.10268,4.83748 4.34223,4.18232 6.40392,9.55557 7.36834,19.20366 0.1791,1.79173 0.21286,4.61432 0.2571,21.5 0.0516,19.7057 0.006,22.60879 -0.4137,26.5625 -1.32035,12.42577 -5.53415,18.8975 -14.63594,22.47849 -3.20974,1.26283 -7.03335,2.07105 -11.60571,2.45315 -4.61284,0.38548 -7.1132,0.41081 -46.21875,0.46822 l -39.84375,0.0585 z m 81.75,29.48846 c 7.33749,-0.34051 11.56063,-1.06597 15.73522,-2.70303 8.66018,-3.39606 12.68043,-9.67829 13.94802,-21.79586 0.23749,-2.27021 0.44027,-6.04876 0.44112,-8.21927 l 6.4e-4,-1.65677 -14.58298,0.0318 -14.58298,0.0318 -0.22133,1.3125 c -0.41973,2.48908 -1.28775,4.67285 -2.49545,6.27807 -1.6993,2.25863 -4.63316,3.75442 -8.30666,4.23503 l -1.1856,0.15511 v 11.22839 11.2284 l 4.28125,-7.5e-4 c 2.35469,-3.8e-4 5.49062,-0.0568 6.96875,-0.12542 z m 30.12493,-65.03014 c -9e-5,-2.30501 -0.18676,-5.86171 -0.4412,-8.40625 -1.03324,-10.33316 -4.18744,-16.46633 -10.35712,-20.13887 -1.95034,-1.16096 -4.71747,-2.26019 -7.5083,-2.98266 -4.12913,-1.06891 -9.6358,-1.51955 -19.53706,-1.59882 l -4.28125,-0.0343 v 11.26512 11.26512 l 1.04575,0.0804 c 6.91757,0.53173 10.70456,4.09038 11.77536,11.06537 l 0.21357,1.39113 H 432.95484 447.5 Z"
         id="path7859"
         transform="scale(0.26458333)" />
      <path
         style="font-variation-settings:normal;opacity:1;vector-effect:none;fill:#f2f2f2;fill-opacity:1;stroke:none;stroke-width:0.125px;stroke-linecap:butt;stroke-linejoin:miter;stroke-miterlimit:4;stroke-dasharray:none;stroke-dashoffset:0;stroke-opacity:1;-inkscape-stroke:none;stop-color:#000000;stop-opacity:1"
         d="m 406.25,758.72604 c 0,-6.7785 0.0455,-11.16354 0.11595,-11.16354 0.41208,0 2.23214,-0.3068 3.07155,-0.51776 3.17954,-0.79908 5.6325,-2.55305 7.05556,-5.04505 0.72052,-1.26174 1.45622,-3.43646 1.7284,-5.1091 l 0.21604,-1.32767 14.48876,-2.1e-4 14.48876,-2.1e-4 -0.0814,3.15625 c -0.31119,12.07383 -2.37497,19.03663 -7.0129,23.66024 -1.88308,1.87727 -3.65758,3.06242 -6.32077,4.22151 -5.44387,2.36932 -10.92358,3.11789 -23.78125,3.2487 l -3.96875,0.0404 z"
         id="path7898"
         transform="scale(0.26458333)" />
      <path
         style="font-variation-settings:normal;opacity:1;vector-effect:none;fill:#fbfbfb;fill-opacity:1;stroke:none;stroke-width:0.0338781px;stroke-linecap:butt;stroke-linejoin:miter;stroke-miterlimit:4;stroke-dasharray:none;stroke-dashoffset:0;stroke-opacity:1;-inkscape-stroke:none;stop-color:#000000;stop-opacity:1"
         d="m 107.32379,200.81131 c 2.7e-4,-1.65044 0.0128,-3.02027 0.0278,-3.04407 0.015,-0.0238 0.17753,-0.066 0.36116,-0.0938 0.86578,-0.13087 1.57798,-0.47129 2.01139,-0.96144 0.43141,-0.48789 0.76138,-1.28015 0.85822,-2.0606 l 0.0234,-0.18951 h 3.91774 3.91772 l -0.0214,0.87538 c -0.0785,3.20528 -0.61909,5.09079 -1.82128,6.35262 -0.65504,0.68752 -1.46682,1.16456 -2.59258,1.52351 -1.24155,0.39588 -2.50559,0.52799 -5.5433,0.57938 l -1.13942,0.0193 z"
         id="path8235" />
      <path
         style="font-variation-settings:normal;opacity:1;vector-effect:none;fill:#fbfbfb;fill-opacity:1;stroke:none;stroke-width:0.0341598px;stroke-linecap:butt;stroke-linejoin:miter;stroke-miterlimit:4;stroke-dasharray:none;stroke-dashoffset:0;stroke-opacity:1;-inkscape-stroke:none;stop-color:#000000;stop-opacity:1"
         d="m 110.74224,187.15989 c -0.15321,-1.01965 -0.35989,-1.61187 -0.73964,-2.11934 -0.5197,-0.69451 -1.36926,-1.10667 -2.47688,-1.20167 l -0.27025,-0.0232 v -3.095 -3.09498 l 1.20423,0.0183 c 3.23561,0.0493 4.47813,0.18651 5.80963,0.64219 1.05757,0.36192 1.82126,0.83126 2.44582,1.5031 1.19886,1.28964 1.73848,3.2401 1.81398,6.55651 l 0.0215,0.94398 h -3.89445 -3.89443 z"
         id="path8274" />
    </g>
  </g>
</svg>
