<svg width="45" height="45" viewBox="0 0 45 45" fill="none" xmlns="http://www.w3.org/2000/svg">
<path fill-rule="evenodd" clip-rule="evenodd" d="M45.0003 12.3556C45.0003 5.53188 39.4684 0 32.6447 0H12.3556C5.5319 0 0 5.53188 0 12.3556V32.6446C0 39.4684 5.5319 44.9999 12.3556 44.9999H32.6447C39.4684 44.9999 45.0003 39.4684 45.0003 32.6446V12.3556ZM43.6994 12.3556V32.6446C43.6994 38.7501 38.7501 43.6994 32.6447 43.6994H12.3556C6.25021 43.6994 1.30086 38.7501 1.30086 32.6446V12.3556C1.30086 6.2498 6.25021 1.30045 12.3556 1.30045H32.6447C38.7501 1.30045 43.6994 6.2498 43.6994 12.3556ZM17.5449 30.5728C17.5894 30.7741 17.536 30.9852 17.399 31.1417C16.5789 32.0777 15.7665 33.1413 15.7665 33.1413C15.6401 33.3068 15.4423 33.402 15.2343 33.3969C9.16129 33.2529 6.97085 29.4089 6.97085 29.4089C6.91271 29.3094 6.88228 29.1963 6.88228 29.0812C6.88228 21.0323 10.6911 14.5043 10.6911 14.5043C10.7368 14.4267 10.7977 14.3592 10.8702 14.3061C14.7985 11.4473 18.4466 11.6041 18.4466 11.6041C18.6089 11.6104 18.7631 11.6767 18.8785 11.791L19.1567 12.0649C19.3253 12.2308 19.3904 12.475 19.3268 12.7029C19.3132 12.752 19.2937 12.7985 19.2695 12.8418C21.3956 12.5741 23.5474 12.5952 25.6875 12.9159C25.6742 12.8863 25.6637 12.8551 25.6555 12.8227C25.5985 12.5987 25.6648 12.3607 25.8295 12.1984L26.2072 11.8269C26.3293 11.7068 26.494 11.6396 26.6656 11.6404C27.2876 11.6424 30.5849 11.7466 34.1086 14.3233C34.1808 14.3759 34.2412 14.4427 34.2861 14.5195C34.2861 14.5195 38.118 21.0604 38.118 29.0972C38.118 29.3383 37.985 29.5568 37.7774 29.6692C37.4407 30.048 34.5397 33.1425 29.5026 33.251C29.3114 33.2549 29.128 33.1745 29.0016 33.0313C29.0016 33.0313 28.0199 31.9205 27.3211 30.9513C27.256 30.8608 27.2162 30.757 27.2033 30.6497C26.7842 30.7523 26.3648 30.8448 25.9454 30.938L25.9087 30.945C22.3784 31.5178 19.7553 31.1975 17.5449 30.5728ZM32.0535 14.5382C32.7324 14.992 33.0668 15.303 33.0668 15.303C33.3048 15.5219 33.3462 15.8824 33.1632 16.1493C32.9806 16.4162 32.6294 16.5082 32.3395 16.365C26.3145 13.3982 19.8068 13.2265 13.8457 15.5679C12.9066 15.9694 12.3689 16.232 12.3689 16.232C12.0825 16.3721 11.7368 16.2839 11.5526 16.0236C11.5093 15.9628 11.4781 15.8965 11.4582 15.8278C10.5526 17.6132 8.23227 22.7752 8.1835 28.8865C8.60645 29.4803 10.5718 31.8698 14.9401 32.0847C15.1333 31.8374 15.4446 31.4449 15.7989 31.0164C13.0373 29.9279 11.9522 28.2177 11.9522 28.2177C11.7918 27.9711 11.8168 27.6473 12.0138 27.4284C12.2105 27.2095 12.5296 27.1502 12.7922 27.2837L13.8297 27.8112C16.8368 29.0332 20.0222 30.5783 25.6836 29.6637C26.8685 29.4011 28.0562 29.1467 29.2408 28.6274C30.0258 28.2322 30.9919 27.8365 32.0489 27.1709C32.3071 27.0078 32.6443 27.0472 32.8588 27.2649C33.0731 27.4826 33.107 27.8202 32.94 28.0761C32.94 28.0761 31.8378 29.8163 28.9181 30.9033C29.2513 31.3235 29.5763 31.7078 29.7765 31.94C34.0883 31.7461 36.187 29.4343 36.8156 28.7878C36.7274 21.8614 33.7129 16.1637 33.2287 15.2921C32.8319 15.008 32.4386 14.7579 32.0535 14.5382ZM36.9846 29.5322C37.0251 29.5783 37.0704 29.6173 37.1196 29.6485C37.1687 29.6801 37.2226 29.7039 37.2811 29.7199C37.1687 29.6863 37.0657 29.6228 36.9846 29.5322ZM27.0067 20.5711C27.0394 20.566 27.0734 20.5633 27.1077 20.5633C28.9107 20.5633 30.3766 22.0674 30.3766 23.9235C30.3766 25.7912 28.9025 27.2934 27.1077 27.2934C25.3121 27.2934 23.8392 25.7889 23.8392 23.9336C23.8439 22.1014 25.2657 20.6261 27.0067 20.5711ZM17.6452 20.5707C17.6772 20.5656 17.7096 20.5633 17.7424 20.5633C19.5383 20.5633 21.003 22.0667 21.003 23.9235C21.003 25.7912 19.529 27.2934 17.7342 27.2934C15.9386 27.2934 14.4653 25.7889 14.4653 23.9356C14.4653 22.0983 15.891 20.6187 17.6452 20.5707ZM27.183 21.8653C27.1584 21.8684 27.1331 21.87 27.1077 21.87C26.0203 21.87 25.1428 22.801 25.1397 23.9356C25.1397 25.0616 26.0168 25.993 27.1077 25.993C28.1994 25.993 29.0761 25.0597 29.0761 23.9235C29.0761 22.8212 28.2431 21.9067 27.183 21.8653ZM17.8118 21.8653C17.7861 21.8684 17.7603 21.87 17.7342 21.87C16.6429 21.87 15.7661 22.7994 15.7661 23.9356C15.7661 25.0616 16.6432 25.993 17.7342 25.993C18.8259 25.993 19.7022 25.0597 19.7022 23.9235C19.7022 22.8201 18.8696 21.9036 17.8118 21.8653Z" fill="#8DA9C4"/>
</svg>
