<?xml version="1.0" encoding="UTF-8" standalone="no"?>
<!-- Created with Inkscape (http://www.inkscape.org/) -->

<svg
   width="1920"
   height="1920"
   viewBox="0 0 507.99999 508.00006"
   version="1.1"
   id="svg4130"
   inkscape:version="1.1 (c68e22c387, 2021-05-23)"
   sodipodi:docname="Discorg.svg"
   xmlns:inkscape="http://www.inkscape.org/namespaces/inkscape"
   xmlns:sodipodi="http://sodipodi.sourceforge.net/DTD/sodipodi-0.dtd"
   xmlns="http://www.w3.org/2000/svg"
   xmlns:svg="http://www.w3.org/2000/svg">
  <sodipodi:namedview
     id="namedview4132"
     pagecolor="#ffffff"
     bordercolor="#666666"
     borderopacity="1.0"
     inkscape:pageshadow="2"
     inkscape:pageopacity="0.0"
     inkscape:pagecheckerboard="0"
     inkscape:document-units="mm"
     showgrid="false"
     units="px"
     inkscape:zoom="0.16"
     inkscape:cx="-156.25"
     inkscape:cy="312.5"
     inkscape:window-width="2560"
     inkscape:window-height="1346"
     inkscape:window-x="-11"
     inkscape:window-y="-11"
     inkscape:window-maximized="1"
     inkscape:current-layer="layer1" />
  <defs
     id="defs4127" />
  <g
     inkscape:label="Warstwa 1"
     inkscape:groupmode="layer"
     id="layer1">
    <path
       style="fill:#ffffff;stroke-width:0.338295"
       d="m 237.25438,507.3974 c -28.57977,-1.96235 -55.95953,-8.51623 -82.88245,-19.83953 -7.34611,-3.08965 -21.78592,-10.33993 -28.75515,-14.43807 C 92.020699,453.3641 63.852905,426.68008 42.386891,394.27415 36.311785,385.10293 32.763408,378.97456 27.500328,368.56369 11.84933,337.60448 2.9621015,305.047 0.63677924,270.1517 c -0.4617273,-6.92878 -0.4617273,-25.27346 0,-32.20224 C 2.9630092,203.04049 11.843204,170.50879 27.500328,139.53748 32.763409,129.1266 36.311785,122.99823 42.386891,113.82701 63.852905,81.421084 92.020699,54.73708 125.61678,34.981386 132.57925,30.887212 147.0063,23.642626 154.44274,20.506358 181.35682,9.1555153 208.95791,2.6000374 237.8989,0.68486129 c 11.64213,-0.77042176 30.1978,-0.39652392 42.14989,0.84932151 80.61096,8.4026196 151.9421,54.2763162 193.02043,124.1331772 4.10904,6.98776 11.34238,21.39816 14.50632,28.89985 11.34195,26.89162 17.85109,54.32004 19.78771,83.38225 0.46169,6.92878 0.46169,25.27346 0,32.20224 -1.93662,29.06221 -8.44576,56.49064 -19.78771,83.38225 -3.16394,7.5017 -10.39728,21.91208 -14.50632,28.89985 -19.75826,33.60041 -46.43556,61.76113 -78.84564,83.22989 -9.17123,6.07512 -15.29959,9.62349 -25.71047,14.88656 -30.9592,15.65103 -63.51668,24.53825 -98.41198,26.86356 -6.14845,0.4097 -26.79078,0.3994 -32.84675,-0.0167 z M 194.12685,359.01945 c 2.88113,-3.85387 5.57812,-7.49522 5.9933,-8.09194 l 0.75489,-1.08488 -2.44637,-0.91448 c -18.11795,-6.77264 -33.70703,-16.04324 -48.28289,-28.71305 -2.47799,-2.15397 -13.53439,-13.41982 -13.53439,-13.79079 0,-0.18756 0.72311,0.2046 1.6069,0.87148 8.77321,6.6199 22.3073,14.62391 32.30725,19.10637 0.88381,0.39617 2.26616,1.01681 3.07192,1.37923 4.52999,2.03749 13.39644,5.21848 19.84761,7.12065 1.39548,0.41147 2.9178,0.87581 3.38298,1.03188 3.24284,1.08805 16.04564,3.80111 23.00409,4.87489 22.51038,3.47355 51.52149,3.41618 73.91761,-0.1462 7.87824,-1.25314 18.5852,-3.53888 22.15838,-4.73042 0.46515,-0.15511 1.98749,-0.61868 3.38296,-1.03015 6.45119,-1.90217 15.31762,-5.08316 19.84761,-7.12065 0.80574,-0.36242 2.18812,-0.98261 3.07191,-1.37825 10.17625,-4.55532 23.90838,-12.70355 32.66416,-19.3819 2.66039,-2.02918 1.00927,-0.0129 -4.75475,5.80622 -5.84383,5.89968 -6.98804,6.97651 -10.95967,10.31413 -12.50237,10.50659 -28.35002,19.61764 -44.85287,25.78656 l -2.44634,0.91448 0.75487,1.08161 c 0.41519,0.59489 3.11451,4.24273 5.99849,8.1063 l 5.24358,7.02471 3.04466,-0.19746 c 6.62894,-0.42987 13.89414,-1.54053 23.17326,-3.54254 3.09953,-0.66873 9.01315,-2.37588 14.75497,-4.25947 19.72406,-6.47053 40.21787,-19.44507 53.40366,-33.80975 l 2.87098,-3.12765 -0.32425,-3.84845 c -0.17831,-2.11664 -0.4906,-5.9036 -0.69395,-8.41544 -1.07413,-13.26887 -3.77302,-33.97937 -5.75313,-44.14759 -1.34282,-6.89572 -2.08363,-10.58317 -2.68444,-13.36269 -0.38211,-1.76758 -0.8366,-3.89885 -1.01005,-4.73613 -0.35821,-1.7295 -3.71915,-15.021 -4.57649,-18.09882 -0.311,-1.11638 -0.69104,-2.48648 -0.84456,-3.04466 -1.31695,-4.78845 -4.59074,-14.90871 -7.40411,-22.88834 -4.73573,-13.43201 -13.19789,-31.99564 -19.13191,-41.97007 l -2.56023,-4.30347 -5.83444,-3.879 c -9.48544,-6.30634 -20.99487,-12.48806 -29.34604,-15.76176 -1.02334,-0.40114 -2.31733,-0.92851 -2.87551,-1.17191 -0.97436,-0.42486 -2.87341,-1.13937 -6.68134,-2.51379 -0.97683,-0.35257 -2.9178,-0.97189 -4.31327,-1.37625 -1.39548,-0.40437 -2.91781,-0.86669 -3.38295,-1.02737 -1.39973,-0.48354 -8.7117,-2.15009 -11.67121,-2.66012 -2.59814,-0.44776 -6.60601,-0.99026 -8.8849,-1.20268 l -1.78068,-0.16596 -1.71151,3.41056 c -0.94134,1.87581 -1.58624,3.51524 -1.43313,3.64316 0.15311,0.12793 1.42014,0.51095 2.8156,0.85118 1.39548,0.34023 3.14616,0.80319 3.89041,1.02882 0.74426,0.22562 2.03823,0.60663 2.87551,0.84667 3.56239,1.02132 12.96829,4.25707 16.40734,5.64434 7.30028,2.94485 16.99998,8.02005 22.96775,12.0175 4.45776,2.986 12.998,9.55064 16.44371,12.63979 0.65121,0.58385 2.061,1.8447 3.13282,2.80187 1.07182,0.9572 1.79008,1.74036 1.59615,1.74036 -0.19396,0 -3.50665,-1.58783 -7.36152,-3.52851 -7.20936,-3.62945 -11.75785,-5.80383 -16.48116,-7.87874 -1.48851,-0.65388 -3.46754,-1.52555 -4.39784,-1.93705 -0.93033,-0.41149 -2.90935,-1.21611 -4.39784,-1.78805 -1.48852,-0.57193 -3.72248,-1.43007 -4.96441,-1.90698 -7.37958,-2.83382 -19.80792,-6.39042 -28.52688,-8.1635 -14.97631,-3.04556 -27.80198,-4.22876 -45.83907,-4.22876 -20.67158,0 -35.54411,1.63502 -52.77413,5.80174 -6.36362,1.53892 -16.46388,4.62399 -21.64042,6.60998 -1.21519,0.4662 -3.42729,1.31559 -4.91579,1.88752 -1.48851,0.57194 -3.46753,1.37656 -4.39785,1.78805 -0.93032,0.4115 -2.90935,1.28317 -4.39785,1.93705 -4.52878,1.98945 -9.13764,4.19332 -16.4881,7.8843 -3.85871,1.93763 -7.17177,3.52295 -7.36237,3.52295 -0.35142,0 3.70477,-3.67128 7.10484,-6.43065 1.02334,-0.8305 1.93674,-1.60042 2.02978,-1.71094 0.40574,-0.48203 8.56378,-6.4775 11.36493,-8.35228 13.19205,-8.82925 29.32198,-15.93192 44.79215,-19.72382 2.51184,-0.61569 4.69227,-1.22428 4.84538,-1.35243 0.15311,-0.12815 -0.49179,-1.76776 -1.43312,-3.64357 l -1.7115,-3.41056 -1.7807,0.17599 c -10.33028,1.02096 -24.5871,4.67068 -35.97828,9.21039 -5.72454,2.28141 -6.87719,2.80848 -13.8404,6.32879 -7.60388,3.84422 -12.92615,6.98658 -19.06242,11.2548 l -4.17742,2.90569 -2.5258,4.24506 c -5.9,9.916 -14.39247,28.55488 -19.09628,41.91166 -2.78659,7.91267 -6.12124,18.21942 -7.40531,22.88834 -0.15352,0.55818 -0.53356,1.92828 -0.84454,3.04466 -0.85736,3.07782 -4.21829,16.36932 -4.57652,18.09882 -0.17343,0.83728 -0.62794,2.96855 -1.01003,4.73613 -0.60083,2.77952 -1.341607,6.46697 -2.684442,13.36269 -1.980113,10.16822 -4.679016,30.87872 -5.753141,44.14759 -0.203336,2.51184 -0.515608,6.2988 -0.693947,8.41544 l -0.324251,3.84845 2.870976,3.12765 c 15.558805,16.94982 38.016735,29.98091 63.591655,36.89873 1.86062,0.50328 3.91578,1.02805 4.56699,1.16613 0.65122,0.13813 2.32578,0.49253 3.72126,0.7876 7.01482,1.48321 14.96527,2.55314 21.31781,2.86887 1.17053,0.0582 1.27151,-0.051 6.42761,-6.94791 z m 9.12881,-68.0747 c -4.40368,-0.82447 -9.13015,-3.3994 -12.69634,-6.91684 -4.40624,-4.34601 -7.21827,-9.65173 -8.62645,-16.27636 -0.55867,-2.62819 -0.55316,-10.6565 0.009,-13.0384 1.64418,-6.96706 3.8412,-11.21736 8.09954,-15.66918 4.30311,-4.49861 8.44813,-6.64364 14.8212,-7.66995 6.47706,-1.04305 14.51313,1.74772 19.67669,6.83334 3.6275,3.57275 6.01233,7.40826 7.66215,12.323 2.40734,7.17136 2.40029,14.43681 -0.0211,21.6498 -2.92568,8.7154 -9.34363,15.36768 -17.42266,18.05872 -2.45453,0.8176 -8.81905,1.20816 -11.50205,0.70587 z m 97.42916,-0.004 c -9.00926,-1.70941 -16.86198,-9.02834 -20.12903,-18.76074 -2.42132,-7.21297 -2.42835,-14.47842 -0.021,-21.64978 1.6498,-4.91476 4.03465,-8.75026 7.66213,-12.323 5.16355,-5.08563 13.19965,-7.87641 19.6767,-6.83335 6.37306,1.0263 10.51809,3.17135 14.82118,7.66996 4.23962,4.43221 6.58908,8.96679 8.11564,15.66362 0.54784,2.4032 0.5434,10.45394 -0.008,13.04396 -2.31612,10.89586 -9.18551,19.24628 -18.43872,22.41401 -2.6317,0.90095 -8.84416,1.31334 -11.67976,0.77532 z"
       id="path2989" />
  </g>
  <style
     type="text/css"
     id="style7210">
	.st0{fill:#FFFFFF;}
	.st1{fill-rule:evenodd;clip-rule:evenodd;}
</style>
</svg>
