<?xml version="1.0" encoding="UTF-8" standalone="no"?>
<!-- Created with Inkscape (http://www.inkscape.org/) -->

<svg
   width="1920"
   height="1920"
   viewBox="0 0 507.99999 508.00001"
   version="1.1"
   id="svg5"
   inkscape:version="1.1 (c68e22c387, 2021-05-23)"
   sodipodi:docname="Dollar.svg"
   xmlns:inkscape="http://www.inkscape.org/namespaces/inkscape"
   xmlns:sodipodi="http://sodipodi.sourceforge.net/DTD/sodipodi-0.dtd"
   xmlns="http://www.w3.org/2000/svg"
   xmlns:svg="http://www.w3.org/2000/svg">
  <sodipodi:namedview
     id="namedview7"
     pagecolor="#ffffff"
     bordercolor="#666666"
     borderopacity="1.0"
     inkscape:pageshadow="2"
     inkscape:pageopacity="0.0"
     inkscape:pagecheckerboard="0"
     inkscape:document-units="mm"
     showgrid="false"
     units="px"
     inkscape:zoom="0.47433592"
     inkscape:cx="978.20971"
     inkscape:cy="748.41475"
     inkscape:window-width="2560"
     inkscape:window-height="1346"
     inkscape:window-x="-11"
     inkscape:window-y="-11"
     inkscape:window-maximized="1"
     inkscape:current-layer="layer1" />
  <defs
     id="defs2" />
  <g
     inkscape:label="Warstwa 1"
     inkscape:groupmode="layer"
     id="layer1">
    <path
       style="fill:#fbfbfb;stroke-width:0.274753;fill-opacity:1"
       d="M 240.3792,507.60618 C 206.35724,505.71806 173.69745,497.29105 143.10112,482.50605 121.79164,472.20868 102.01078,458.94542 84.00842,442.88377 79.670843,439.01378 67.79443,427.05239 63.845903,422.57696 32.088756,386.58205 11.082538,342.68384 3.4383607,296.33895 0.78942169,280.27902 0.13229171,271.86756 0.13229171,254.02025 c 0,-17.84735 0.65712998,-26.2588 3.30606899,-42.31871 C 11.082538,165.35663 32.088756,121.45842 63.845903,85.463511 67.79443,80.988081 79.670843,69.026675 84.00842,65.156701 117.31124,35.444013 156.80297,15.288292 200.40667,5.7495649 c 8.2773,-1.81074 21.46017,-3.777541 31.18134,-4.652067 28.54396,-2.567836 59.48054,0.03258 86.46251,7.267685 26.81089,7.1892431 48.48635,16.6158151 71.91637,31.2761171 24.84792,15.547481 48.53744,37.415511 66.73337,61.60213 18.55023,24.65763 32.46437,52.34209 40.82354,81.22528 3.32184,11.47787 4.97832,18.68186 6.71671,29.21121 4.83627,29.29266 4.83627,55.38799 0,84.68061 -1.73839,10.52939 -3.39487,17.73336 -6.71671,29.21122 -9.44885,32.64837 -26.40404,64.46676 -48.40764,90.84253 -9.99749,11.98401 -22.08038,23.99999 -33.87458,33.68693 -31.08473,25.53089 -67.79143,43.33935 -107.23914,52.02765 -12.16636,2.67961 -27.92927,4.76446 -41.66174,5.51029 -5.86719,0.3187 -19.94791,0.30085 -25.9615,-0.0331 z m 30.5478,-105.31886 0.77083,-0.66281 0.16159,-15.8926 c 0.10286,-10.09917 0.26672,-16.14502 0.44999,-16.58516 0.25698,-0.61731 0.70223,-0.79357 4.0966,-1.62161 4.65298,-1.13505 10.60586,-3.01538 13.58756,-4.29186 1.22095,-0.52268 2.36652,-0.95032 2.54569,-0.95032 0.45228,0 6.84618,-3.75771 9.88695,-5.81059 6.5591,-4.42817 13.87332,-11.82045 18.44911,-18.64604 1.98265,-2.95741 5.18848,-9.0092 6.40612,-12.09306 1.00467,-2.54453 2.6158,-9.04376 3.20045,-12.91045 0.94229,-6.23233 0.81201,-15.49321 -0.3034,-21.57012 -0.95795,-5.21869 -2.21083,-9.03747 -4.44354,-13.54405 -2.67118,-5.39157 -4.85196,-8.38998 -9.50532,-13.06921 -7.00339,-7.04232 -11.87238,-10.46464 -22.435,-15.76918 -7.51018,-3.77159 -25.03024,-11.27089 -36.10773,-15.45557 -5.35292,-2.02213 -15.1909,-6.56067 -18.88012,-8.70994 -2.53985,-1.47966 -7.8797,-5.50299 -9.91005,-7.46682 -4.88749,-4.72726 -6.72592,-9.36977 -6.43447,-16.24863 0.16711,-3.94551 0.61476,-5.8416 2.10843,-8.9316 1.39363,-2.88306 3.6947,-5.57735 6.73467,-7.88558 3.07514,-2.33491 5.69475,-3.70063 9.82845,-5.12398 6.38485,-2.19851 11.41984,-2.92961 18.69938,-2.71523 6.7375,0.19842 11.1335,1.05146 19.41476,3.76744 4.88823,1.60318 11.7313,5.18264 18.78057,9.82368 4.94109,3.25311 8.62134,5.29362 9.54754,5.29362 1.28196,0 2.73876,-1.42537 5.0867,-4.97703 1.26738,-1.91708 2.30428,-3.56442 2.30428,-3.66077 0,-0.0964 0.75901,-1.49989 1.68667,-3.119 5.48727,-9.57729 8.72476,-15.94587 8.94643,-17.59888 0.30599,-2.2829 -1.8229,-4.60265 -8.49537,-9.25632 -5.98554,-4.17454 -12.63743,-7.86644 -17.93441,-9.95383 -3.02004,-1.19012 -12.78318,-4.27666 -16.62087,-5.25458 -3.74805,-0.95508 -7.87425,-1.68483 -9.52639,-1.68483 h -1.18789 l -0.0162,-8.31204 c -0.01,-4.57163 -0.11162,-11.5963 -0.22714,-15.61038 -0.23589,-8.19634 -0.40332,-8.94758 -2.22816,-10.00506 -0.92875,-0.53821 -1.40171,-0.55721 -13.87361,-0.55721 -12.51847,0 -12.94126,0.0172 -13.86992,0.56281 -2.09327,1.22996 -2.47015,4.66264 -2.47379,22.53319 l -0.002,11.83008 -2.67857,0.64146 c -16.79823,4.02281 -29.26423,10.9265 -39.72275,21.99854 -1.78443,1.8891 -3.58506,3.92933 -4.00143,4.53384 -0.41634,0.60452 -1.69991,2.44018 -2.85236,4.07925 -4.10659,5.84067 -7.15769,13.38078 -8.57868,21.20037 -0.60797,3.3456 -0.84439,12.12465 -0.4337,16.10408 0.66531,6.44656 2.33641,12.75243 4.97279,18.76498 1.98519,4.52747 6.15457,10.10157 11.71678,15.66439 2.09178,2.09203 4.11231,4.00121 4.49006,4.24264 0.37776,0.24146 1.4904,1.06942 2.47253,1.84002 5.06481,3.97374 13.52587,8.7383 24.4505,13.76853 4.30631,1.98282 8.44779,3.85653 9.2033,4.16384 0.75549,0.30734 2.60988,1.05514 4.12088,1.662 1.51096,0.60686 4.66343,1.92901 7.00548,2.93814 2.34202,1.0091 5.30905,2.24115 6.5934,2.73786 2.85988,1.10611 9.1702,4.00238 12.47742,5.72686 1.34749,0.7026 2.55935,1.27749 2.69303,1.27749 0.38351,0 5.94805,3.2496 7.76905,4.53699 6.82829,4.8273 10.85165,11.71303 10.85165,18.57175 0,5.32099 -2.00261,11.51953 -4.89975,15.16582 -1.82957,2.30262 -7.6935,6.60714 -11.10257,8.15001 -2.54702,1.15267 -7.45884,2.64274 -10.54058,3.19761 -1.96575,0.35394 -4.15624,0.49071 -7.93508,0.49541 -7.09873,0.01 -10.45361,-0.5424 -20.60436,-3.38542 -4.43607,-1.24244 -15.11127,-6.28185 -19.25304,-9.08878 -4.26455,-2.89014 -8.56999,-6.02874 -11.09683,-8.08945 -4.68086,-3.81742 -5.47946,-3.97885 -8.35093,-1.68804 -1.57145,1.25371 -13.18216,15.93764 -16.17323,20.45415 -1.50263,2.26897 -2.95554,5.11711 -2.95554,5.79372 0,1.62696 2.28893,4.44612 6.16366,7.59144 1.36959,1.11178 3.17012,2.58575 4.00114,3.27547 0.83105,0.68974 3.79808,2.7917 6.59339,4.67106 5.19347,3.49167 10.64814,6.46664 16.75823,9.13992 6.09672,2.66741 17.44476,6.05588 25.58264,7.63877 1.30262,0.25346 2.4976,0.54055 2.65556,0.63821 0.1843,0.11391 0.39583,4.34265 0.59097,11.82365 0.29041,11.13804 0.65937,18.93287 0.98583,20.83452 0.30469,1.77475 -0.14601,1.72523 15.69777,1.72523 h 14.34661 z"
       id="path836" />
  </g>
</svg>
