<?xml version="1.0" encoding="UTF-8" standalone="no"?>
<!-- Created with Inkscape (http://www.inkscape.org/) -->

<svg
   width="1920"
   height="1920"
   viewBox="0 0 507.99999 508.00001"
   version="1.1"
   id="svg5"
   sodipodi:docname="Github.svg"
   inkscape:version="1.1 (c68e22c387, 2021-05-23)"
   xmlns:inkscape="http://www.inkscape.org/namespaces/inkscape"
   xmlns:sodipodi="http://sodipodi.sourceforge.net/DTD/sodipodi-0.dtd"
   xmlns="http://www.w3.org/2000/svg"
   xmlns:svg="http://www.w3.org/2000/svg">
  <sodipodi:namedview
     id="namedview7"
     pagecolor="#ffffff"
     bordercolor="#666666"
     borderopacity="1.0"
     inkscape:pageshadow="2"
     inkscape:pageopacity="0.0"
     inkscape:pagecheckerboard="0"
     inkscape:document-units="mm"
     showgrid="false"
     units="px"
     inkscape:zoom="0.47433592"
     inkscape:cx="1176.3815"
     inkscape:cy="944.47834"
     inkscape:window-width="2560"
     inkscape:window-height="1346"
     inkscape:window-x="-11"
     inkscape:window-y="-11"
     inkscape:window-maximized="1"
     inkscape:current-layer="layer1" />
  <defs
     id="defs2">


	














		
		
		
	</defs>
  <g
     inkscape:label="Warstwa 1"
     inkscape:groupmode="layer"
     id="layer1">
    <path
       id="path2989"
       style="fill:#ffffff;stroke-width:1.2786"
       d="M 956.97656 1.0820312 C 935.82098 1.0118522 915.64529 1.4959539 899.14453 2.5878906 C 789.76122 9.8263508 685.44329 34.603092 583.7207 77.503906 C 555.61425 89.357518 501.08645 116.73882 474.77148 132.21289 C 347.79414 206.88007 241.33446 307.73381 160.20312 430.21289 C 137.24217 464.87577 123.82915 488.03851 103.9375 527.38672 C 44.760686 644.44364 11.198187 767.39652 2.40625 899.33594 C 0.66124223 925.52345 0.66124223 994.85751 2.40625 1021.0449 C 11.194785 1152.9327 44.784119 1275.9849 103.9375 1392.9961 C 123.82915 1432.3443 137.24217 1455.507 160.20312 1490.1699 C 241.33446 1612.649 347.79414 1713.5027 474.77148 1788.1699 C 501.11177 1803.659 555.68839 1831.0609 583.45312 1842.7383 C 685.20897 1885.535 788.69089 1910.3059 896.70898 1917.7227 C 919.5978 1919.2954 997.61689 1919.3364 1020.8555 1917.7871 C 1152.7432 1908.9985 1275.7935 1875.4074 1392.8047 1816.2539 C 1432.153 1796.3619 1455.3157 1782.9513 1489.9785 1759.9902 C 1612.4734 1678.8484 1713.3015 1572.4156 1787.9785 1445.4219 C 1803.5086 1419.0115 1830.8463 1364.5463 1842.8047 1336.1934 C 1885.6717 1234.5558 1910.2743 1130.8883 1917.5938 1021.0469 C 1919.3383 994.85931 1919.3383 925.5254 1917.5938 899.33789 C 1910.2743 789.49646 1885.6717 685.83098 1842.8047 584.19336 C 1830.8463 555.84051 1803.5086 501.37527 1787.9785 474.96484 C 1632.7216 210.93789 1363.1227 37.556762 1058.4512 5.7988281 C 1030.2179 2.8558876 992.23586 1.1989971 956.97656 1.0820312 z M 960 215.13867 C 1371.1986 215.13867 1704.8613 548.80139 1704.8613 960 C 1704.8613 1371.1987 1371.1987 1704.8613 960 1704.8613 C 548.80139 1704.8613 215.13867 1371.1986 215.13867 960 C 215.13868 548.80139 548.80139 215.13868 960 215.13867 z M 960 245.13867 C 565.01458 245.13868 245.13868 565.01458 245.13867 960 C 245.13867 1304.1208 487.94854 1591.1923 811.67969 1659.4316 C 811.47255 1634.5734 810.90234 1595.5741 810.90234 1543.3984 C 624.95848 1577.6269 576.85228 1498.0706 562.05078 1456.4414 C 553.72494 1435.1642 517.64655 1369.4811 486.19336 1351.9043 C 460.29073 1338.0279 423.28824 1303.8001 485.26953 1302.875 C 543.55045 1301.9499 585.17828 1356.5302 599.05469 1378.7324 C 665.66145 1490.6688 772.04724 1459.216 814.60156 1439.7891 C 821.07722 1391.6842 840.50409 1359.3066 861.78125 1340.8047 C 697.11454 1322.3028 525.04883 1258.4713 525.04883 975.39258 C 525.04883 894.90941 553.72646 828.30135 600.90625 776.49609 C 593.5055 757.99422 567.60251 682.13728 608.30664 580.37695 C 608.30664 580.37695 670.28681 560.94971 811.82617 656.23438 C 871.03218 639.58269 933.93932 631.25586 996.8457 631.25586 C 1059.7521 631.25586 1122.6592 639.58269 1181.8652 656.23438 C 1279.1735 590.09016 1338.8768 579.03899 1366.6895 578.5918 C 1379.3316 578.38853 1385.3848 580.37695 1385.3848 580.37695 C 1426.0889 682.13728 1400.1859 757.99422 1392.7852 776.49609 C 1439.9649 828.30135 1468.6445 893.98432 1468.6445 975.39258 C 1468.6445 1259.3964 1295.6511 1322.3028 1130.9844 1340.8047 C 1157.8121 1363.932 1180.9395 1408.3348 1180.9395 1477.7168 C 1180.9395 1561.5501 1180.3595 1608.2292 1180.1562 1640.3008 C 1467.3084 1547.5204 1674.8613 1278.1498 1674.8613 960 C 1674.8613 565.01458 1354.9854 245.13867 960 245.13867 z "
       transform="scale(0.26458333)" />
    <g
       style="fill:#e6e6e6"
       id="g1417"
       transform="matrix(0.38244441,0,0,0.38244441,65.028887,112.85462)" />
  </g>
  <style
     type="text/css"
     id="style7210">
	.st0{fill:#FFFFFF;}
	.st1{fill-rule:evenodd;clip-rule:evenodd;}
</style>
</svg>
