<svg width="45" height="45" viewBox="0 0 45 45" fill="none" xmlns="http://www.w3.org/2000/svg">
<path fill-rule="evenodd" clip-rule="evenodd" d="M44.9999 12.3552C44.9999 5.53149 39.468 0 32.6442 0H12.3552C5.53148 0 0 5.53149 0 12.3552V32.6442C0 39.468 5.53148 44.9999 12.3552 44.9999H32.6442C39.468 44.9999 44.9999 39.468 44.9999 32.6442V12.3552ZM43.6994 12.3552V32.6442C43.6994 38.7497 38.7501 43.6994 32.6442 43.6994H12.3552C6.24979 43.6994 1.30045 38.7497 1.30045 32.6442V12.3552C1.30045 6.2498 6.24979 1.30045 12.3552 1.30045H32.6442C38.7501 1.30045 43.6994 6.2498 43.6994 12.3552ZM27.5825 37.5956C25.9867 38.1336 24.277 38.4254 22.4997 38.4254C13.7103 38.4254 6.57443 31.2896 6.57443 22.4997C6.57443 13.7103 13.7103 6.57442 22.4997 6.57442C31.2896 6.57442 38.4255 13.7103 38.4255 22.4997C38.4255 29.462 33.9482 35.3868 27.7191 37.5491C27.6758 37.5694 27.6301 37.5854 27.5825 37.5956ZM14.4719 12.5819C14.4571 12.6233 14.4423 12.6674 14.4298 12.7083C14.1059 13.7641 14.0505 14.8231 14.3771 15.8902C14.4649 16.1754 14.3642 16.6452 14.168 16.8738C12.8363 18.4232 12.628 20.2442 12.8878 22.1829C13.0544 23.4241 13.406 24.5938 14.1972 25.5899C15.1641 26.8065 16.4942 27.4042 17.9659 27.7445C18.5184 27.8724 19.0814 27.9548 19.6893 28.0675C19.9234 28.1108 20.115 28.2786 20.1891 28.5049C20.2633 28.7312 20.2075 28.9797 20.0444 29.153C19.5777 29.6481 19.3534 30.2162 19.2289 30.837C19.1762 31.0972 18.8723 31.4316 18.5925 31.5494C17.5172 32.0016 16.5004 32.0625 15.5984 31.7808C14.6955 31.4991 13.8968 30.8705 13.2753 29.8908C12.9924 29.4448 12.6588 29.0636 12.2347 28.8085C12.7938 29.3406 13.2007 29.9954 13.4984 30.7269C14.0232 32.0161 15.0451 32.5619 16.3615 32.638C17.0564 32.6778 17.7595 32.5818 18.4962 32.5475C18.6737 32.5393 18.8466 32.6041 18.9753 32.7266C19.1041 32.8495 19.1766 33.0192 19.1766 33.1971C19.1766 34.2096 19.2032 35.2588 19.1657 36.3064L26.0675 36.3099C26.0527 36.2046 26.0449 36.0922 26.0449 35.9732C26.0456 34.6845 26.041 33.3953 26.0585 32.107C26.0726 31.0317 25.9809 29.995 25.1756 29.1538C25.0113 28.9821 24.9535 28.7343 25.0253 28.5076C25.0971 28.2809 25.2868 28.1116 25.5201 28.066C26.2204 27.9282 26.8857 27.8295 27.5349 27.6652C29.2966 27.2197 30.8011 26.3785 31.6037 24.6738C32.5034 22.7631 32.7527 20.7506 32.0918 18.7178C31.8694 18.0346 31.3692 17.4458 31.018 16.8016C30.867 16.525 30.789 16.1177 30.8701 15.8371C31.1881 14.7365 31.1198 13.658 30.7519 12.5991C30.1284 12.6186 29.5478 12.8371 28.9926 13.1087C28.4046 13.3962 27.8494 13.7497 27.2696 14.0529C26.9961 14.1961 26.6094 14.2682 26.3231 14.1988C23.8533 13.5999 21.3882 13.5972 18.9184 14.1965C18.6109 14.2714 18.1805 14.1851 17.9004 14.0135C16.8953 13.397 15.8797 12.8113 14.6939 12.6151C14.6928 12.6151 14.692 12.6151 14.6912 12.6147C14.66 12.6096 14.63 12.601 14.5972 12.5964C14.557 12.5909 14.5129 12.5862 14.4719 12.5819ZM27.3949 36.2842C33.0617 34.2697 37.125 28.8557 37.125 22.4997C37.125 14.4282 30.5716 7.87487 22.4997 7.87487C14.4282 7.87487 7.87488 14.4282 7.87488 22.4997C7.87488 28.8822 11.9721 34.315 17.6772 36.3095C17.6983 36.3072 17.7193 36.306 17.7404 36.306C17.772 36.3056 17.8021 36.3025 17.8302 36.2955C17.8438 36.292 17.8645 36.2998 17.8653 36.2854C17.8949 35.482 17.8852 34.6771 17.8793 33.8889C17.3377 33.9271 16.8098 33.9665 16.2866 33.9365C14.4391 33.83 13.0302 33.0262 12.294 31.2174C11.974 30.4316 11.5007 29.7527 10.75 29.304C10.5273 29.1709 10.3283 28.9793 10.1582 28.7808C9.90768 28.4885 9.86514 28.174 9.92484 27.9306C9.99312 27.6524 10.1952 27.3726 10.6478 27.2809C10.9896 27.2115 11.363 27.174 11.7005 27.2368C12.898 27.462 13.7396 28.1947 14.3732 29.1939C14.8094 29.881 15.3529 30.3418 15.9862 30.5393C16.5941 30.7293 17.2741 30.6735 17.9956 30.3883C18.0947 29.9602 18.2371 29.5525 18.4439 29.1674C18.1825 29.1202 17.9265 29.0703 17.6725 29.0117C15.9109 28.604 14.3365 27.8557 13.1793 26.3991C12.2378 25.2146 11.7969 23.8318 11.5991 22.3558C11.2943 20.0834 11.5796 17.9589 13.0927 16.1313C12.7333 14.8555 12.7993 13.5893 13.1867 12.3271C13.3506 11.7914 13.5289 11.5507 13.7294 11.4223C13.9312 11.2928 14.2234 11.2327 14.772 11.3076C14.818 11.3139 14.8633 11.3248 14.9062 11.3322C16.2609 11.5562 17.4318 12.2007 18.5805 12.905C18.5953 12.914 18.6285 12.9218 18.6441 12.9249C21.2945 12.2866 23.9406 12.2889 26.5907 12.9257C26.609 12.921 26.6477 12.9104 26.6664 12.9003C27.2571 12.5917 27.8229 12.2331 28.421 11.9405C29.2033 11.5581 30.0301 11.2815 30.9177 11.2975C31.1117 11.301 31.377 11.3927 31.5748 11.5437C31.7394 11.6689 31.8545 11.8297 31.9084 11.9725C32.4211 13.3307 32.5315 14.715 32.1394 16.1274C32.1448 16.1446 32.153 16.1668 32.1601 16.1793C32.5491 16.8933 33.0824 17.5582 33.3286 18.3155C34.0957 20.6745 33.8241 23.0109 32.7804 25.2278C31.8015 27.3071 30.0028 28.3828 27.8537 28.9263C27.4998 29.0156 27.1409 29.087 26.7749 29.1549C27.2657 30.0601 27.3726 31.0715 27.359 32.1245C27.3418 33.4074 27.3461 34.6907 27.3457 35.974C27.3453 36.1121 27.3371 36.2327 27.3949 36.2842Z" fill="#8DA9C4"/>
</svg>
