<?xml version="1.0" encoding="UTF-8" standalone="no"?>
<!DOCTYPE svg PUBLIC "-//W3C//DTD SVG 1.1//EN" "http://www.w3.org/Graphics/SVG/1.1/DTD/svg11.dtd">
<svg width="100%" height="100%" viewBox="0 0 827 119" version="1.1" xmlns="http://www.w3.org/2000/svg" xmlns:xlink="http://www.w3.org/1999/xlink" xml:space="preserve" xmlns:serif="http://www.serif.com/" style="fill-rule:evenodd;clip-rule:evenodd;stroke-linejoin:round;stroke-miterlimit:2;">
    <g transform="matrix(1,0,0,1,-950.829,-584.568)">
        <g transform="matrix(0.977677,0,0,0.977677,54.7154,-483.606)">
            <path d="M1096.91,1167.72C1094.87,1169.97 1092.68,1171.77 1090.28,1173.21C1083.76,1177.13 1075.56,1178.4 1063.91,1178.52L1060.95,1178.52L1060.96,1178.52L996.636,1178.52L954.374,1205.71C954.374,1205.71 1056.06,1205.71 1056.06,1205.71C1072.57,1205.65 1087.27,1194.77 1092.85,1179.23C1094.36,1175.03 1095.72,1171.17 1096.91,1167.72ZM995.88,1134.02L1074.94,1134.02C1079.75,1134 1084.27,1136.31 1087.07,1140.22C1089.86,1144.13 1090.59,1149.15 1089.02,1153.7C1089.02,1153.7 1089.02,1153.7 1089.02,1153.7C1087.08,1159.33 1081.79,1163.45 1075.83,1163.47L982.272,1163.47C978.541,1163.35 975.064,1161.51 972.867,1158.47C970.585,1155.32 969.964,1151.26 971.199,1147.56L979.434,1122.94C983.524,1130.55 991.76,1133.93 995.88,1134.02ZM1065.88,1119.35L1093.13,1095.75L1005.37,1095.75C1001.45,1095.76 997.962,1098.58 996.68,1102.29C996.68,1102.29 996.68,1102.29 996.68,1102.29C995.317,1106.23 995.949,1110.58 998.373,1113.97C1000.8,1117.36 1004.72,1119.37 1008.88,1119.35C1033.17,1119.26 1045.05,1119.34 1065.88,1119.35Z" style="fill:rgb(0,249,187);"/>
        </g>
        <g transform="matrix(1,0,0,1,921.662,584.214)">
            <path d="M758.354,30L781.688,74.436L765.932,104.592L779.793,104.592L818.982,30L804.424,30L788.668,61.055L772.913,30L758.354,30ZM348.629,30L371.963,74.436L356.207,104.592L370.068,104.592L409.257,30L394.699,30L378.943,61.055L363.188,30L348.629,30ZM314.113,84.744C334.062,84.744 343.23,74.481 343.43,64.308C343.729,51.538 334.86,44.654 314.711,41.961C299.246,39.865 300.044,35.476 300.143,33.68C300.542,28.292 308.126,27.494 312.716,27.494C318.303,27.594 325.587,28.791 326.286,35.575L340.739,35.575C340.042,22.512 329.777,14.042 313.115,13.942C296.855,13.942 286.192,21.416 285.295,33.48C283.898,51.738 305.531,54.831 312.616,55.828C321.696,57.125 325.488,58.921 327.084,60.318C328.282,61.315 328.88,62.712 328.88,64.308C328.88,70.793 318.503,71.093 314.113,71.093C302.239,71.093 298.648,65.605 297.752,63.011L282.402,63.011C283.499,78.965 300.343,84.744 314.113,84.744ZM615.123,84.744C624.703,84.744 632.779,81.357 637.662,75.279L629.491,67.096C626.499,70.591 621.51,72.988 615.722,72.988C607.64,72.988 600.855,69.093 600.855,62.902L640.451,62.902L640.85,60.212C642.246,50.944 640.252,43.155 635.569,37.772C630.886,32.491 623.904,29.701 615.123,29.701C598.164,29.701 587.602,40.263 587.602,57.223C587.602,74.183 598.164,84.744 615.123,84.744ZM653.927,69.994C655.123,78.866 660.703,84.645 669.175,84.645C678.75,84.645 683.438,78.965 684.036,78.069L677.154,69.895C677.154,69.895 674.362,72.489 671.07,72.489C670.272,72.489 669.375,72.389 668.477,71.89C665.984,70.593 666.283,67.201 666.283,67.201L666.183,41.757L677.154,41.757L677.154,29.801L666.183,29.801L666.283,18.83L653.629,18.83L653.629,63.11C653.629,67.999 653.828,69.795 653.927,69.994ZM483.574,69.994C484.77,78.866 490.35,84.645 498.822,84.645C508.397,84.645 513.085,78.965 513.683,78.069L506.801,69.895C506.801,69.895 504.009,72.489 500.717,72.489C499.919,72.489 499.022,72.389 498.124,71.89C495.631,70.593 495.93,67.201 495.93,67.201L495.83,41.757L506.801,41.757L506.801,29.801L495.83,29.801L495.93,18.83L483.275,18.83L483.275,63.11C483.275,67.999 483.475,69.795 483.574,69.994ZM696.616,30L696.616,84.246L709.17,84.246L709.17,30L696.616,30ZM726.039,31.395L726.039,84.246L738.593,84.246L738.593,41.857L749.664,41.857L749.664,30L738.593,30L738.593,27.203C738.593,27.203 738.394,23.907 740.787,22.608C741.685,22.109 742.583,21.909 743.48,21.909C746.772,21.909 749.465,24.606 749.465,24.606L756.347,16.429C755.748,15.532 751.06,9.853 741.585,9.853C733.113,9.853 727.533,15.632 726.338,24.506C726.238,24.706 726.039,26.504 726.039,31.395ZM417.548,84.246L430.102,84.246L430.102,54.125C430.202,51.033 430.701,47.143 434.593,44.55C437.187,42.854 440.48,41.857 443.973,41.857C452.954,41.857 455.149,46.146 455.149,54.524L455.149,84.246L467.704,84.246L467.704,52.629C467.704,37.971 459.434,29.601 444.971,29.601C437.786,29.601 432.497,31.793 429.006,33.985L428.11,30L417.548,30L417.548,84.246ZM537.521,84.246L537.521,54.623C537.62,51.531 538.119,47.642 542.011,45.048C544.606,43.253 547.899,42.355 551.391,42.355C560.372,42.355 562.567,46.644 562.567,55.022L562.567,84.246L575.122,84.246L575.122,52.629C575.122,38.071 566.852,29.601 552.489,29.601C545.903,29.601 541.013,31.395 537.521,33.288L537.521,10.352L524.966,10.352L524.966,84.246L537.521,84.246ZM614.225,41.956C619.813,41.857 624.004,43.255 626.299,45.951C627.696,47.648 628.594,49.745 628.893,52.342L600.655,52.342C601.453,43.754 608.937,42.056 614.225,41.956ZM696.217,16.629C696.217,20.914 698.708,23.305 702.893,23.305C707.078,23.305 709.669,20.914 709.569,16.629C709.47,12.245 707.078,9.953 702.893,9.953C698.509,9.953 696.217,12.245 696.217,16.629Z" style="fill:white;fill-rule:nonzero;"/>
        </g>
    </g>
</svg>
