<?xml version="1.0" encoding="UTF-8" standalone="no"?>
<!-- Created with Inkscape (http://www.inkscape.org/) -->

<svg
   width="1920"
   height="1920"
   viewBox="0 0 507.99999 508.00001"
   version="1.1"
   id="svg5"
   sodipodi:docname="Linkedin.svg"
   inkscape:version="1.1 (c68e22c387, 2021-05-23)"
   xmlns:inkscape="http://www.inkscape.org/namespaces/inkscape"
   xmlns:sodipodi="http://sodipodi.sourceforge.net/DTD/sodipodi-0.dtd"
   xmlns="http://www.w3.org/2000/svg"
   xmlns:svg="http://www.w3.org/2000/svg">
  <sodipodi:namedview
     id="namedview7"
     pagecolor="#ffffff"
     bordercolor="#666666"
     borderopacity="1.0"
     inkscape:pageshadow="2"
     inkscape:pageopacity="0.0"
     inkscape:pagecheckerboard="0"
     inkscape:document-units="mm"
     showgrid="false"
     units="px"
     inkscape:zoom="0.33540614"
     inkscape:cx="620.14368"
     inkscape:cy="951.08574"
     inkscape:window-width="2560"
     inkscape:window-height="1346"
     inkscape:window-x="-11"
     inkscape:window-y="-11"
     inkscape:window-maximized="1"
     inkscape:current-layer="layer1" />
  <defs
     id="defs2">


	














		
		
		
	</defs>
  <g
     inkscape:label="Warstwa 1"
     inkscape:groupmode="layer"
     id="layer1">
    <path
       id="path2989"
       style="fill:#ffffff;stroke-width:1.2786"
       d="M 956.97656 1.0820312 C 935.82098 1.011852 915.64529 1.4959539 899.14453 2.5878906 C 789.76122 9.826351 685.44329 34.60309 583.7207 77.503906 C 555.61425 89.357518 501.08645 116.73882 474.77148 132.21289 C 347.79412 206.88007 241.33446 307.73381 160.20312 430.21289 C 137.24215 464.87577 123.82915 488.03851 103.9375 527.38672 C 44.760684 644.44364 11.198187 767.39652 2.40625 899.33594 C 0.66124219 925.52345 0.66124219 994.85747 2.40625 1021.0449 C 11.194785 1152.9327 44.784117 1275.9849 103.9375 1392.9961 C 123.82915 1432.3443 137.24215 1455.507 160.20312 1490.1699 C 241.33446 1612.649 347.79412 1713.5027 474.77148 1788.1699 C 501.11177 1803.659 555.68837 1831.0609 583.45312 1842.7383 C 685.20897 1885.535 788.69087 1910.3059 896.70898 1917.7227 C 919.5978 1919.2954 997.61695 1919.336 1020.8555 1917.7871 C 1152.7432 1908.9985 1275.7935 1875.4074 1392.8047 1816.2539 C 1432.153 1796.3619 1455.3157 1782.9513 1489.9785 1759.9902 C 1612.4734 1678.8484 1713.3015 1572.4156 1787.9785 1445.4219 C 1803.5086 1419.0115 1830.8463 1364.5463 1842.8047 1336.1934 C 1885.6717 1234.5558 1910.2743 1130.8883 1917.5938 1021.0469 C 1919.3385 994.85935 1919.3385 925.5254 1917.5938 899.33789 C 1910.2743 789.49646 1885.6717 685.83098 1842.8047 584.19336 C 1830.8463 555.84051 1803.5086 501.37527 1787.9785 474.96484 C 1632.7216 210.93747 1363.1227 37.556762 1058.4512 5.7988281 C 1030.2179 2.8558874 992.23586 1.1989971 956.97656 1.0820312 z M 537.58008 402.23047 C 611.62125 402.23047 671.79297 462.40163 671.79297 536.4668 C 671.79297 610.59203 611.63297 670.76367 537.5918 670.76367 C 463.34649 670.76367 403.27148 610.59203 403.27148 536.4668 C 403.2835 462.41361 463.35881 402.23047 537.58008 402.23047 z M 1242.9297 754.09961 C 1477.4454 754.09961 1520.7344 908.4257 1520.7344 1109.043 L 1520.7344 1517.7461 L 1289.3047 1517.7461 L 1289.3047 1155.3691 C 1289.3047 1068.9717 1287.7198 957.82617 1168.9609 957.82617 C 1048.4729 957.82617 1029.9688 1051.9562 1029.9688 1149.1367 L 1029.9688 1517.7578 L 798.57422 1517.7578 L 798.57422 772.62695 L 798.58594 772.62695 L 1020.709 772.62695 L 1020.709 874.44336 L 1023.8066 874.44336 C 1054.7272 815.86847 1130.2709 754.09961 1242.9297 754.09961 z M 421.74023 772.62695 L 653.33789 772.62695 L 653.33789 1517.7695 L 421.74023 1517.7695 L 421.74023 772.62695 z "
       transform="scale(0.26458333)" />
  </g>
  <style
     type="text/css"
     id="style7210">
	.st0{fill:#FFFFFF;}
	.st1{fill-rule:evenodd;clip-rule:evenodd;}
</style>
</svg>
