<svg width="45" height="45" viewBox="0 0 45 45" fill="none" xmlns="http://www.w3.org/2000/svg">
<path fill-rule="evenodd" clip-rule="evenodd" d="M45 12.3557C45 5.5319 39.4685 0 32.6447 0H12.3557C5.53189 0 0 5.5319 0 12.3557V32.6447C0 39.4685 5.53189 45.0004 12.3557 45.0004H32.6447C39.4685 45.0004 45 39.4685 45 32.6447V12.3557ZM43.6996 12.3557V32.6447C43.6996 38.7502 38.7502 43.6996 32.6447 43.6996H12.3557C6.25021 43.6996 1.30043 38.7502 1.30043 32.6447V12.3557C1.30043 6.25021 6.25021 1.30084 12.3557 1.30084H32.6447C38.7502 1.30084 43.6996 6.25021 43.6996 12.3557ZM24.6516 18.5895C25.7332 17.6449 27.3271 16.9406 29.3821 16.9406C31.9034 16.9406 33.587 17.6152 34.7138 18.7288C36.3615 20.3578 36.8227 23.0082 36.8227 26.1647V36.2539C36.8227 36.6128 36.5317 36.9043 36.1727 36.9043H30.5737C30.2147 36.9043 29.9233 36.6128 29.9233 36.2539V27.3001C29.9233 26.503 29.9151 25.6142 29.7227 24.835C29.6014 24.3442 29.4098 23.8978 29.0622 23.5814C28.7227 23.2727 28.2377 23.1046 27.5639 23.1046C26.8378 23.1046 26.2806 23.2603 25.8623 23.5513C24.8319 24.2681 24.6516 25.7063 24.6516 27.1487V36.2539C24.6516 36.6128 24.3602 36.9043 24.0012 36.9043H18.4833C18.1244 36.9043 17.8333 36.6128 17.8333 36.2539V17.9157C17.8333 17.5563 18.1244 17.2652 18.4833 17.2652H24.0012C24.3602 17.2652 24.6516 17.5563 24.6516 17.9157V18.5895ZM14.914 36.9043C15.273 36.9043 15.5641 36.6128 15.5641 36.2539V17.9157C15.5641 17.5563 15.273 17.2652 14.914 17.2652H9.23386C8.8749 17.2652 8.58344 17.5563 8.58344 17.9157V36.2539C8.58344 36.6128 8.8749 36.9043 9.23386 36.9043H14.914ZM35.5223 35.6034V26.1647C35.5223 23.414 35.2351 21.0729 33.7993 19.6539C32.8703 18.7354 31.4613 18.2415 29.3821 18.2415C26.924 18.2415 25.2556 19.435 24.5818 20.7132C24.4694 20.9266 24.2478 21.0605 24.0067 21.0605H24.0012C23.6418 21.0605 23.3508 20.7694 23.3508 20.41V18.5661H19.1338V35.6034H23.3508V27.1487C23.3508 25.2525 23.7651 23.4261 25.1194 22.4838C25.723 22.064 26.5166 21.8037 27.5639 21.8037C28.6392 21.8037 29.3958 22.1264 29.9373 22.6196C30.4707 23.1046 30.7992 23.7706 30.9853 24.5229C31.2023 25.4012 31.2241 26.402 31.2241 27.3001V35.6034H35.5223ZM9.88428 18.5661V35.6034H14.2636V18.5661H9.88428ZM16.131 12.0732C16.131 9.87766 14.3498 8.09613 12.1555 8.09613C9.95335 8.09613 8.17726 9.87805 8.17726 12.0732C8.17726 14.2687 9.95335 16.0506 12.1555 16.0506C14.3498 16.0506 16.131 14.2691 16.131 12.0732ZM14.8301 12.0732C14.8301 13.5508 13.6319 14.7498 12.1555 14.7498C10.6736 14.7498 9.47772 13.5508 9.47772 12.0732C9.47772 10.5956 10.6736 9.39697 12.1555 9.39697C13.6319 9.39697 14.8301 10.596 14.8301 12.0732Z" fill="#8DA9C4"/>
</svg>
