<svg width="50" height="42" viewBox="0 0 50 42" fill="none" xmlns="http://www.w3.org/2000/svg">
<path opacity="0.8" fill-rule="evenodd" clip-rule="evenodd" d="M50 26.8548C49.2844 27.6943 48.5162 28.366 47.6743 28.9033C45.3871 30.366 42.5107 30.8399 38.424 30.8847H37.3856H37.3891H14.825L0 41.0303H35.6703C41.4618 41.0079 46.6184 36.9481 48.5758 31.1496C49.1055 29.5824 49.5826 28.1421 50 26.8548ZM14.5598 14.28H42.2931C43.9804 14.2725 45.566 15.1345 46.5482 16.5935C47.5269 18.0524 47.783 19.9256 47.2323 21.6233C46.5517 23.7241 44.696 25.2615 42.6053 25.2689H9.78628C8.47749 25.2241 7.25781 24.5376 6.48713 23.4032C5.68663 22.2278 5.46878 20.7129 5.902 19.3323L8.79076 10.1456C10.2255 12.9852 13.1146 14.2464 14.5598 14.28ZM39.115 8.80606L48.674 0H17.8888C16.5137 0.00373138 15.2902 1.056 14.8404 2.44034C14.3623 3.9105 14.584 5.53363 15.4343 6.79857C16.2857 8.06351 17.6608 8.81352 19.1201 8.80606C27.6407 8.77247 31.8081 8.80232 39.115 8.80606Z" fill="#8DA9C4"/>
</svg>
