<svg width="45" height="38" viewBox="0 0 45 38" fill="none" xmlns="http://www.w3.org/2000/svg">
<path fill-rule="evenodd" clip-rule="evenodd" d="M45 24.8714C44.3559 25.649 43.6645 26.271 42.9068 26.7686C40.8484 28.1233 38.2596 28.5622 34.5816 28.6037H33.6471H33.6502H13.3425L0 38H32.1033C37.3156 37.9793 41.9565 34.2194 43.7182 28.849C44.1949 27.3976 44.6243 26.0637 45 24.8714ZM13.1038 13.2254H38.0638C39.5824 13.2185 41.0094 14.0167 41.8934 15.3679C42.7742 16.7192 43.0047 18.454 42.509 20.0264C41.8966 21.972 40.2264 23.3958 38.3448 23.4027H8.80765C7.62974 23.3612 6.53203 22.7254 5.83841 21.6748C5.11796 20.5862 4.9219 19.1832 5.3118 17.9045L7.91168 9.39631C9.20294 12.0262 11.8031 13.1943 13.1038 13.2254ZM35.2035 8.15569L43.8066 0H16.0999C14.8623 0.0034558 13.7611 0.978006 13.3564 2.26011C12.9261 3.6217 13.1256 5.12495 13.8909 6.29646C14.6571 7.46798 15.8947 8.1626 17.2081 8.15569C24.8767 8.12459 28.6273 8.15223 35.2035 8.15569Z" fill="#00F9BB"/>
</svg>
