<?xml version="1.0" encoding="UTF-8" standalone="no"?>
<!-- Created with Inkscape (http://www.inkscape.org/) -->

<svg
   width="1920"
   height="1920"
   viewBox="0 0 508 508.00002"
   version="1.1"
   id="svg5"
   inkscape:version="1.1 (c68e22c387, 2021-05-23)"
   sodipodi:docname="Mainnet.svg"
   inkscape:export-filename="C:\Users\Aga\Pictures\SNY icons\Website icons\Devnet.png"
   inkscape:export-xdpi="96"
   inkscape:export-ydpi="96"
   xmlns:inkscape="http://www.inkscape.org/namespaces/inkscape"
   xmlns:sodipodi="http://sodipodi.sourceforge.net/DTD/sodipodi-0.dtd"
   xmlns="http://www.w3.org/2000/svg"
   xmlns:svg="http://www.w3.org/2000/svg">
  <sodipodi:namedview
     id="namedview7"
     pagecolor="#ffffff"
     bordercolor="#666666"
     borderopacity="1.0"
     inkscape:pageshadow="2"
     inkscape:pageopacity="0.0"
     inkscape:pagecheckerboard="0"
     inkscape:document-units="mm"
     showgrid="false"
     units="px"
     width="1920px"
     inkscape:zoom="0.35355339"
     inkscape:cx="1255.8216"
     inkscape:cy="1162.4835"
     inkscape:window-width="2560"
     inkscape:window-height="1346"
     inkscape:window-x="-11"
     inkscape:window-y="-11"
     inkscape:window-maximized="1"
     inkscape:current-layer="layer2" />
  <defs
     id="defs2" />
  <g
     inkscape:label="Warstwa 1"
     inkscape:groupmode="layer"
     id="layer1"
     style="opacity:0.304403" />
  <g
     inkscape:groupmode="layer"
     id="layer2"
     inkscape:label="Warstwa 2"
     style="display:inline;opacity:1">
    <path
       style="fill:#fbfbfb;stroke-width:1.49745;fill-opacity:1"
       d="M 219.55869,504.8832 C 112.27498,490.15008 26.758982,409.09496 5.1182766,301.62889 c -4.9211798,-24.43806 -4.9211798,-70.66595 0,-95.10399 C 29.287717,86.501377 132.35658,1.2489036 253.54893,1.0376286 350.43395,0.8689709 438.31042,55.533739 480.98354,142.51712 c 11.03958,22.50269 17.11804,40.26983 21.89818,64.00778 4.92118,24.43804 4.92118,70.66593 0,95.10399 -4.78924,23.78301 -10.86991,41.53605 -21.92353,64.00778 -32.7632,66.60667 -90.64193,114.04398 -162.56799,133.24052 -29.60939,7.90251 -68.02285,10.23694 -98.83151,6.00601 z m 23.60325,-76.72811 -0.39277,-55.03117 -14.22579,0.34353 c -23.05771,0.55635 -62.89276,5.78194 -62.89276,8.25 0,0.69898 2.43273,7.81144 5.40603,15.80553 11.04421,29.69376 27.89026,57.0257 43.38251,70.38603 7.31989,6.31259 23.21647,15.27739 27.09016,15.27739 1.6727,0 1.95705,-9.5846 1.63262,-55.03112 z m 31.77516,51.92118 c 23.74383,-10.77013 46.73631,-41.37578 62.01814,-82.55348 2.96678,-7.99406 5.39413,-15.10652 5.39413,-15.8055 0,-2.46806 -39.83503,-7.69337 -62.89275,-8.25 l -14.22575,-0.34353 -0.39278,55.03117 c -0.31071,43.53419 10e-4,55.02429 1.49744,54.99825 1.03967,-0.0169 4.91036,-1.4028 8.60163,-3.07708 z m -88.25136,-8.49525 c -17.34629,-22.50629 -30.17692,-46.09964 -39.07937,-71.86035 -4.62788,-13.39151 -4.90691,-13.80375 -8.71716,-12.88038 -9.4307,2.28547 -38.74273,13.00818 -47.120402,17.23716 l -9.152946,4.62044 14.43113,13.87952 c 21.883218,21.04679 51.751698,39.40441 80.452128,49.44699 12.71359,4.44865 12.94831,4.43733 9.18662,-0.44314 z m 151.92002,-2.86196 c 27.38727,-10.44107 55.81204,-28.97086 76.20384,-49.67659 l 10.31616,-10.47504 -9.02377,-4.55517 c -8.27468,-4.1771 -37.6218,-14.90134 -46.99122,-17.17197 -3.81025,-0.92337 -4.08921,-0.51108 -8.7171,12.88038 -8.92955,25.83898 -21.6376,49.18687 -39.21259,72.04321 l -3.30699,4.30077 3.62733,-1.10379 c 1.99502,-0.60712 9.69195,-3.41594 17.10434,-6.2418 z M 89.629909,380.69794 c 10.486911,-4.56643 25.502801,-10.12047 33.368611,-12.34233 9.92414,-2.80328 14.07565,-4.62839 13.56352,-5.96294 -3.5404,-9.22619 -10.83691,-63.57656 -11.72684,-87.35154 l -0.36447,-9.7334 H 74.306264 24.141805 l 0.370711,9.7334 c 0.86326,22.65091 9.233527,53.4482 21.366839,78.616 8.953222,18.57148 20.767098,37.11184 23.003895,36.10166 0.923537,-0.41711 10.259403,-4.49449 20.74633,-9.06085 z m 358.273711,-1.20987 c 19.95951,-30.96651 34.39833,-73.34815 35.58352,-104.44694 l 0.37072,-9.7334 H 433.6934 383.52893 l -0.33505,6.73849 c -1.44586,29.05661 -8.14897,80.94686 -11.62767,90.0123 -0.6315,1.64561 1.66195,2.8442 9.30609,4.86361 11.10449,2.93362 44.48178,15.835 52.82131,20.41722 2.88258,1.5838 5.6846,2.90792 6.22674,2.94245 0.5422,0.0339 4.13461,-4.82269 7.98327,-10.79373 z M 182.12255,355.17109 c 13.79102,-2.07194 48.41501,-5.25758 57.14376,-5.25758 h 4.29821 l -0.39787,-42.30289 -0.39788,-42.30289 -47.54392,-0.39559 -47.544,-0.39563 v 10.88668 c 0,14.19631 3.62376,45.40352 7.75439,66.78015 l 3.28072,16.97813 4.5902,-0.92676 c 2.52466,-0.50995 10.99182,-1.88857 18.81599,-3.06408 z m 170.46761,-13.11917 c 4.10772,-21.2601 7.72858,-52.48481 7.72858,-66.64828 v -10.88666 l -47.54393,0.39561 -47.54394,0.39561 -0.3973,42.12244 -0.3973,42.12239 16.12059,1.0043 c 17.83771,1.11122 50.64693,4.91535 58.79779,6.81739 10.16255,2.37156 9.71743,2.88687 13.23567,-15.32235 z M 124.80615,236.10756 c 1.44871,-29.11462 8.15013,-80.94998 11.64179,-90.0491 0.65979,-1.7195 -2.37501,-3.1321 -13.44942,-6.26028 -11.32964,-3.20032 -32.212446,-11.45998 -54.053814,-21.37976 -3.072561,-1.39545 -20.835397,28.61271 -28.890307,48.80654 -2.463874,6.17699 -6.199062,17.16548 -8.300484,24.41882 -4.271338,14.74336 -9.214582,46.06851 -7.83651,49.65967 0.789406,2.05722 6.762592,2.28531 50.724136,1.93718 l 49.829299,-0.39448 z m 118.36066,-35.5644 0.39789,-42.30288 h -4.29823 c -14.25262,0 -59.05156,-4.90787 -75.95975,-8.32165 l -4.5902,-0.92677 -3.28071,16.97813 c -4.13063,21.37665 -7.75439,52.58385 -7.75439,66.78016 v 10.88666 l 47.54399,-0.39562 47.54393,-0.3956 z m 117.15193,32.18593 c 0,-14.03749 -3.6499,-45.31584 -7.73112,-66.25284 -1.76598,-9.05955 -3.34564,-16.654 -3.51044,-16.87661 -0.16466,-0.22242 -8.65292,0.93883 -18.86252,2.58086 -16.87173,2.71362 -50.80842,6.05978 -61.45766,6.05978 h -4.27489 v 41.67896 c 0,22.92342 0.44937,42.12817 0.9983,42.67721 0.54898,0.54899 22.11233,0.9983 47.91833,0.9983 h 46.92 z m 123.1684,0.38373 c -0.86257,-22.63315 -9.22464,-53.41507 -21.35649,-78.61598 -6.23691,-12.95573 -17.28629,-31.8007 -20.92131,-35.68178 -0.63902,-0.68233 -4.709,0.5569 -9.04433,2.75375 -11.33779,5.74527 -39.45086,16.51828 -51.29271,19.65542 -7.33428,1.94306 -9.92468,3.25922 -9.35193,4.75173 3.59353,9.36472 11.21429,67.49218 11.244,85.76417 0.0118,5.42204 0.47429,10.31639 1.0342,10.87636 0.56029,0.55974 23.30249,0.84075 50.53884,0.62392 l 49.52067,-0.39393 z M 243.16194,79.998843 c 0.32431,-45.446514 -4e-4,-55.394761 -1.63262,-55.031127 -12.47692,2.779505 -19.77027,8.964811 -27.09016,15.277421 -11.07479,9.550751 -24.17431,28.275228 -33.83522,48.36407 -7.89644,16.419813 -16.02357,37.806913 -14.73288,38.770633 0.29033,0.21676 4.90832,1.1483 10.26172,2.06967 8.4074,1.44701 16.24441,2.38351 44.92342,5.368 2.88256,0.29997 8.94719,0.47033 13.477,0.3792 l 8.23597,-0.1664 z m 69.9872,51.932487 c 24.99938,-3.21356 29.20023,-3.94319 29.20023,-5.07211 0,-3.47321 -8.72999,-25.7305 -15.62055,-39.824988 -9.25418,-18.929355 -22.45326,-37.548826 -33.168,-46.789095 -7.30409,-6.299019 -15.93436,-13.424396 -27.07169,-15.277421 -1.61865,-0.269394 -2.00702,9.925201 -2.00702,54.407221 0,29.923993 0.5054,54.925063 1.12309,55.557983 1.35702,1.3904 24.97668,-0.10066 47.54394,-3.00159 z M 147.58538,108.45037 c 7.05757,-20.486252 21.23441,-48.073043 32.12814,-62.51844 5.27937,-7.000516 9.44261,-12.895261 9.25158,-13.099408 -0.87226,-0.932428 -22.81423,7.464503 -35.48596,13.580027 -20.65044,9.966173 -40.13019,23.48514 -56.432148,39.163993 l -14.43113,13.879527 9.51901,4.805211 c 7.839568,3.9574 46.473358,17.9538 49.743268,18.0212 0.51446,0.0118 3.08269,-6.21388 5.70724,-13.83211 z m 242.47728,6.07797 c 9.35855,-3.20733 21.01882,-7.85232 25.91165,-10.32219 l 8.89603,-4.490691 -3.58027,-4.25492 C 407.94995,79.606698 376.49893,56.502852 353.7372,45.836344 341.52454,40.113314 319.82909,31.983467 319.03488,32.832522 c -0.19074,0.204314 3.97223,6.098892 9.25159,13.099408 10.89057,14.441144 25.07024,42.031108 32.12221,62.50136 5.53954,16.08 2.40093,15.43492 29.65398,6.09505 z"
       id="path8640"
       sodipodi:nodetypes="ssssssssssccsssssscsssscscsssssscsssssscsssscsssssscccssssssscccsssscscscccccssccccsscccccsssssssssssscsccsscssccccssssscssscsssssssccscssssssssccsssssssssssssscscssscssssss" />
  </g>
</svg>
