<?xml version="1.0" encoding="utf-8"?>
<!-- Generator: Adobe Illustrator 26.0.1, SVG Export Plug-In . SVG Version: 6.00 Build 0)  -->
<svg version="1.1" xmlns="http://www.w3.org/2000/svg" xmlns:xlink="http://www.w3.org/1999/xlink" x="0px" y="0px"
	 viewBox="0 0 1920 1920" style="enable-background:new 0 0 1920 1920;" xml:space="preserve">
<style type="text/css">
	.st0{fill:#FFFFFF;}
</style>
<g id="Warstwa_4">
</g>
<g id="Warstwa_2">
	<g>
		<path class="st0" d="M602.6,1317.5c0,0,504.5-290,1046-182l75,223.5c0,0-682.5-51-1095,318c0,0,582-303,1228.5-205.5l-123.5-388
			c183.5-192.5,380-830-260.5-840.6c-534,13.6-724.5,721.3-1206,797.3c266.2,24.7,502.5-204.7,693.5-364.7
			c266.5-230,366.6-267.6,514-262c171.5,6.5,424,260,146,577.5c51-260.5-22-374.5-22-374.5s53,272-116,363c0,0-33-229-137-315
			c4.8,4.1,92,203,47,322C1392.6,986.5,889.3,1018.8,602.6,1317.5z"/>
		<path class="st0" d="M528.1,826.5c-690.5,43-468.5,607-63.5,483l81,209c0,0,257-158,595-161c0,0-390.5,78-635,294l-85.5-237
			C-91.4,1522.5-205.4,754.5,528.1,826.5z"/>
	</g>
</g>
</svg>
