<?xml version="1.0" encoding="utf-8"?>
<!-- Generator: Adobe Illustrator 25.4.1, SVG Export Plug-In . SVG Version: 6.00 Build 0)  -->
<svg version="1.1" id="Warstwa_1" xmlns="http://www.w3.org/2000/svg" xmlns:xlink="http://www.w3.org/1999/xlink" x="0px" y="0px"
	 viewBox="0 0 1920 1920" style="enable-background:new 0 0 1920 1920;" xml:space="preserve">
<style type="text/css">
	.st0{fill:#FFFFFF;}
</style>
<circle cx="960" cy="960" r="960"/>
<g id="Page-1">
	<g id="A3" transform="translate(-128.000000, -334.000000)">
		<g id="MathWallet_Logo_Horizontal" transform="translate(128.000000, 334.000000)">
			<path id="Combined-Shape" class="st0" d="M1280.39,903.16c-27.53-27.53-27.53-71.2,0-98.73c27.53-27.53,71.2-27.53,98.73,0
				s27.53,71.2,0,98.73S1307.93,930.69,1280.39,903.16z M1046.86,1137.64c-19.94-19.94-19.94-53.16,0-74.05
				c19.94-19.94,53.16-19.94,74.05,0c19.94,19.94,19.94,53.16,0,74.05C1100.02,1157.58,1066.8,1157.58,1046.86,1137.64z
				 M1416.15,1014.23c-19.94-19.94-19.94-53.16,0-74.05c19.94-19.94,53.16-19.94,74.05,0c19.94,19.94,19.94,53.16,0,74.05
				C1469.31,1035.11,1436.08,1035.11,1416.15,1014.23z M1292.74,1137.64c-19.94-19.94-19.94-53.16,0-74.05
				c19.94-19.94,53.16-19.94,74.05,0c19.94,19.94,19.94,53.16,0,74.05C1345.9,1157.58,1313.62,1157.58,1292.74,1137.64z
				 M1551.9,1125.3c-13.29-13.29-13.29-36.07,0-49.36c13.29-13.29,36.07-13.29,49.36,0s13.29,36.07,0,49.36
				C1587.02,1138.59,1565.19,1138.59,1551.9,1125.3z M1428.49,1248.71c-13.29-13.29-13.29-36.07,0-49.36
				c13.29-13.29,36.07-13.29,49.36,0c13.29,13.29,13.29,36.07,0,49.36C1463.61,1262,1441.78,1262,1428.49,1248.71z M1156.98,1026.57
				c-27.53-27.53-27.53-71.2,0-98.73c27.53-27.53,71.2-27.53,98.73,0c27.53,27.53,27.53,71.2,0,98.73
				C1229.13,1054.1,1184.51,1054.1,1156.98,1026.57z M1156.98,780.7c-27.53-27.53-27.53-71.2,0-98.73
				c27.53-27.53,71.2-27.53,98.73,0c27.53,27.53,27.53,71.2,0,98.73C1229.13,807.28,1184.51,807.28,1156.98,780.7z M1034.52,903.16
				c-27.53-27.53-27.53-71.2,0-98.73c27.53-27.53,71.2-27.53,98.73,0s27.53,71.2,0,98.73S1061.1,930.69,1034.52,903.16z
				 M786.75,903.16c-27.53-27.53-27.53-71.2,0-98.73c27.53-27.53,71.2-27.53,98.73,0c27.53,27.53,27.53,71.2,0,98.73
				C857.95,930.69,814.28,930.69,786.75,903.16z M552.27,1137.64c-19.94-19.94-19.94-53.16,0-74.05c19.94-19.94,53.16-19.94,74.05,0
				c19.94,19.94,19.94,53.16,0,74.05C606.38,1157.58,573.15,1157.58,552.27,1137.64z M922.5,1014.23
				c-19.94-19.94-19.94-53.16,0-74.05c19.94-19.94,53.16-19.94,74.05,0c19.94,19.94,19.94,53.16,0,74.05
				C975.66,1035.11,942.44,1035.11,922.5,1014.23z M799.09,1137.64c-19.94-19.94-19.94-53.16,0-74.05
				c19.94-19.94,53.16-19.94,74.05,0c19.94,19.94,19.94,53.16,0,74.05C852.25,1157.58,819.03,1157.58,799.09,1137.64z
				 M318.74,1125.3c-13.29-13.29-13.29-36.07,0-49.36c13.29-13.29,36.07-13.29,49.36,0s13.29,36.07,0,49.36
				C353.86,1138.59,332.03,1138.59,318.74,1125.3z M442.15,1248.71c-13.29-13.29-13.29-36.07,0-49.36
				c13.29-13.29,36.07-13.29,49.36,0s13.29,36.07,0,49.36C477.27,1262,455.44,1262,442.15,1248.71z M934.84,1248.71
				c-13.29-13.29-13.29-36.07,0-49.36c13.29-13.29,36.07-13.29,49.36,0c13.29,13.29,13.29,36.07,0,49.36
				C969.97,1262,948.13,1262,934.84,1248.71z M429.81,1014.23c-19.94-19.94-19.94-53.16,0-74.05c19.94-19.94,53.16-19.94,74.05,0
				c19.94,19.94,19.94,53.16,0,74.05C482.97,1035.11,449.74,1035.11,429.81,1014.23z M663.34,1026.57
				c-27.53-27.53-27.53-71.2,0-98.73c27.53-27.53,71.2-27.53,98.73,0c27.53,27.53,27.53,71.2,0,98.73
				C734.54,1054.1,690.87,1054.1,663.34,1026.57z M663.34,780.7c-27.53-27.53-27.53-71.2,0-98.73c27.53-27.53,71.2-27.53,98.73,0
				c27.53,27.53,27.53,71.2,0,98.73C734.54,807.28,690.87,807.28,663.34,780.7z M539.93,903.16c-27.53-27.53-27.53-71.2,0-98.73
				s71.2-27.53,98.73,0s27.53,71.2,0,98.73C612.07,930.69,567.46,930.69,539.93,903.16z"/>
		</g>
	</g>
</g>
</svg>
