<svg width="200" height="200" viewBox="0 0 200 200" fill="none" xmlns="http://www.w3.org/2000/svg">
<g clip-path="url(#clip0)">
<g filter="url(#filter0_d)">
<path fill-rule="evenodd" clip-rule="evenodd" d="M81.3328 25.0047C45.2023 25.4149 16 54.8711 16 91.093C16 127.319 45.2077 156.777 81.3337 157.181L81.3301 157.186H91.3599L91.1004 156.576C123.326 152.174 148.185 124.514 148.185 91.093C148.185 57.9169 123.688 30.4165 91.8121 25.7109L92.2761 25.0001H81.3301L81.3328 25.0047Z" fill="url(#paint0_linear)"/>
<path d="M91.3519 25.0001C127.854 25.0001 157.445 54.5909 157.445 91.093C157.445 127.595 127.854 157.186 91.3519 157.186C54.8498 157.186 25.259 127.595 25.259 91.093C25.259 54.5909 54.8498 25.0001 91.3519 25.0001Z" fill="url(#paint1_linear)"/>
<path fill-rule="evenodd" clip-rule="evenodd" d="M91.3662 142.192C119.565 142.192 142.459 119.298 142.459 91.0994C142.459 62.9004 119.565 40.0066 91.3662 40.0066C63.1679 40.0066 40.2734 62.9004 40.2734 91.0994C40.2734 119.298 63.1679 142.192 91.3662 142.192ZM91.3662 138.386C65.2681 138.386 44.0802 117.197 44.0802 91.0994C44.0802 65.0013 65.2681 43.8127 91.3662 43.8127C117.464 43.8127 138.653 65.0013 138.653 91.0994C138.653 117.197 117.464 138.386 91.3662 138.386Z" fill="#35B7D4"/>
<path fill-rule="evenodd" clip-rule="evenodd" d="M130.194 89.9956V175H153.032V89.9956H130.194Z" fill="white"/>
<path fill-rule="evenodd" clip-rule="evenodd" d="M184.121 121.088H99.1169V143.927H184.121V121.088Z" fill="white"/>
</g>
</g>
<defs>
<filter id="filter0_d" x="-1" y="8.00012" width="202.121" height="184" filterUnits="userSpaceOnUse" color-interpolation-filters="sRGB">
<feFlood flood-opacity="0" result="BackgroundImageFix"/>
<feColorMatrix in="SourceAlpha" type="matrix" values="0 0 0 0 0 0 0 0 0 0 0 0 0 0 0 0 0 0 127 0"/>
<feMorphology radius="2" operator="dilate" in="SourceAlpha" result="effect1_dropShadow"/>
<feOffset/>
<feGaussianBlur stdDeviation="7.5"/>
<feColorMatrix type="matrix" values="0 0 0 0 0.535 0 0 0 0 0.94865 0 0 0 0 1 0 0 0 1 0"/>
<feBlend mode="normal" in2="BackgroundImageFix" result="effect1_dropShadow"/>
<feBlend mode="normal" in="SourceGraphic" in2="effect1_dropShadow" result="shape"/>
</filter>
<linearGradient id="paint0_linear" x1="151.311" y1="81.9795" x2="24.7901" y2="85.8135" gradientUnits="userSpaceOnUse">
<stop stop-color="#00F9BB"/>
<stop offset="1" stop-color="#627EEA"/>
</linearGradient>
<linearGradient id="paint1_linear" x1="26.0602" y1="90.9258" x2="155.137" y2="90.9259" gradientUnits="userSpaceOnUse">
<stop stop-color="#00F9BB"/>
<stop offset="1" stop-color="#627EEA"/>
</linearGradient>
<clipPath id="clip0">
<rect width="200" height="200" fill="white"/>
</clipPath>
</defs>
</svg>
