<svg width="450" height="450" viewBox="0 0 450 450" fill="none" xmlns="http://www.w3.org/2000/svg">
<path d="M225 450C349.264 450 450 349.264 450 225C450 100.736 349.264 0 225 0C100.736 0 0 100.736 0 225C0 349.264 100.736 450 225 450Z" fill="#C8ECE1"/>
<path d="M74.4638 167.19C71.4612 164.394 74.2629 160.901 76.7216 158.98C79.8069 156.09 82.8627 152.951 85.7589 150.185C98.6497 137.064 111.546 124.321 126.11 113.179C128.096 106.619 137.269 112.039 133.392 117.317C115.205 131.792 98.7146 148.424 82.2716 164.885L82.4903 164.666C82.544 164.622 82.5935 164.572 82.6381 164.518C80.5694 166.806 77.4545 169.932 74.4638 167.19Z" fill="#308D8A"/>
<path d="M322.375 172.096C322.018 171.66 321.755 171.156 321.6 170.615C321.445 170.074 321.402 169.507 321.474 168.948C321.546 168.39 321.731 167.853 322.018 167.368C322.305 166.884 322.688 166.463 323.143 166.132C339.45 148.282 355.285 130.078 372.437 113.003C373.962 110.916 377.662 110.686 379.039 113.174C380.41 115.426 379.216 117.772 377.508 119.427C373.684 123.718 369.364 127.519 365.439 131.715C355.391 142.088 345.934 152.94 336.477 163.827C332.553 166.942 328.108 177.078 322.375 172.096Z" fill="#308D8A"/>
<path d="M131.3 118.416C130.303 118.369 129.36 117.952 128.655 117.245C127.951 116.539 127.537 115.594 127.493 114.598C127.483 114.029 127.592 113.465 127.813 112.941C128.034 112.417 128.362 111.945 128.776 111.556C129.191 111.166 129.681 110.867 130.218 110.679C130.754 110.49 131.324 110.416 131.891 110.46C137.021 109.769 141.602 109.337 146.667 109.059C221.595 103.894 297.054 106.022 371.893 109.905C374.092 109.727 376.031 111.737 376.066 113.865C375.936 119.627 369.05 117.854 365.268 117.825C287.503 113.776 209.005 111.566 131.3 118.416Z" fill="#308D8A"/>
<path d="M317.687 175.411C316.464 175.363 315.323 175.316 314.366 175.411C271.107 172.982 227.652 173.283 184.246 173.579C153.358 173.797 122.487 173.998 91.7583 173.242C90.6114 172.613 89.3631 172.191 88.0702 171.994C86.143 171.341 84.1665 170.843 82.1597 170.505C81.3854 170.34 80.6053 170.192 79.831 170.044C79.5177 169.926 79.2399 169.831 78.9207 169.731C77.8548 169.389 76.742 169.215 75.6226 169.217C75.5576 169.217 75.4868 169.217 75.4218 169.187C75.4822 169.201 75.5434 169.211 75.605 169.217H75.5399C74.6482 169.063 73.7483 168.96 72.8447 168.909C72.9187 168.351 73.1163 167.816 73.4231 167.344C73.7298 166.871 74.1379 166.473 74.6179 166.179C77.2421 164.329 80.5285 164.264 83.5842 164.677C96.345 166.326 109.123 165.966 121.937 165.617C129.621 165.422 137.305 165.209 144.988 165.44C162.832 165.783 180.699 165.635 198.567 165.487C220.885 165.304 243.227 165.127 265.533 165.93C275.504 165.753 285.493 166.131 295.464 166.521C304.412 166.882 313.361 167.231 322.297 167.183C322.851 167.036 323.429 167.005 323.995 167.091C324.561 167.177 325.104 167.378 325.588 167.683C326.073 167.988 326.49 168.39 326.812 168.864C327.135 169.337 327.356 169.871 327.463 170.434C327.723 174.843 323.976 175.494 320.105 175.494C319.313 175.47 318.485 175.44 317.687 175.411Z" fill="#308D8A"/>
<path d="M86.5508 171.758H86.9164C86.8103 171.799 86.6746 171.799 86.5508 171.758Z" fill="#308D8A"/>
<path d="M78.9317 169.702C77.8669 169.356 76.7532 169.184 75.6337 169.193C75.5687 169.193 75.4979 169.193 75.4329 169.158C75.4979 169.158 75.5687 169.158 75.616 169.193H75.551C74.4685 168.98 73.3682 168.869 72.2649 168.862H71.9279C71.5664 168.074 71.4303 167.201 71.5346 166.341C71.6389 165.48 71.9796 164.665 72.519 163.986C73.9552 162.154 75.096 159.364 77.7852 159.311C82.2415 159.346 82.9862 164.429 80.1493 167.107C80.2123 167.59 80.1773 168.081 80.0463 168.55C79.9153 169.019 79.691 169.457 79.3868 169.837L78.9317 169.702Z" fill="#308D8A"/>
<path d="M95.0376 173.981C91.2785 173.874 87.3126 173.537 83.6482 173.484C79.7414 173.106 75.3087 174.205 71.7388 172.302C66.2244 168.443 75.1549 157.301 80.0783 158.365C83.199 159.057 84.5347 163.371 81.8218 165.416C86.5501 165.535 91.1072 165.747 95.8296 166.007C100.989 166.599 100.215 174.377 95.0376 173.981Z" fill="#308D8A"/>
<path d="M316.83 201.903C239.107 198.918 161.33 201.82 83.5775 200.904C78.6658 200.709 78.4826 193.143 83.5775 192.965C163.293 193.598 243.02 191.192 322.7 193.941C327.818 193.822 328.232 201.696 322.966 201.92C320.903 201.98 318.852 201.962 316.83 201.903Z" fill="#308D8A"/>
<path d="M366.188 259.72C319.666 257.439 272.932 258.674 226.304 258.071C208.49 257.811 190.788 256.747 172.991 257.244C160.313 257.043 147.535 259.691 134.934 258.798C130.294 257.557 131.275 250.618 136.234 250.955C161.862 250.115 187.596 247.905 213.289 249.873C247.316 250.387 281.36 249.873 315.393 250.707C332.533 250.848 349.739 250.08 366.814 251.753C370.361 251.865 376.064 250.677 376.419 255.642C376.277 261.097 369.781 259.708 366.07 259.72H366.188Z" fill="#308D8A"/>
<path d="M131.99 257.691L131.647 257.396L131.482 257.266C131.665 257.408 131.854 257.567 132.073 257.709C111.557 241.367 95.4279 220.615 77.8206 201.411C73.6123 198.096 78.5416 191.955 82.5075 194.951C97.9102 210.395 110.517 228.363 127.149 242.584C130.577 246.012 134.307 248.956 137.829 252.141C140.986 255.836 135.578 261.049 131.99 257.691Z" fill="#308D8A"/>
<path d="M372.147 259.459C371.467 259.3 370.839 258.968 370.326 258.495C369.812 258.022 369.43 257.423 369.216 256.759C369.003 256.094 368.965 255.385 369.107 254.701C369.248 254.017 369.565 253.382 370.025 252.857C355.609 234.629 338.67 218.44 321.524 202.836C313.699 200.164 321.524 190.116 326.725 196.701C343.705 211.447 359.53 227.472 374.062 244.635C376.302 247.248 377.608 249.44 379.464 252.13C381.692 256.769 376.527 260.682 372.147 259.459Z" fill="#308D8A"/>
<path d="M133.078 288.368C132.056 288.111 131.174 287.465 130.622 286.567C130.069 285.669 129.89 284.59 130.123 283.562C130.714 280.919 133.297 280.269 135.69 280.606C138.858 280.025 142.054 279.613 145.265 279.371C220.27 275.056 295.771 278.543 370.989 278.153C375.9 278.301 376.137 285.914 371.018 286.092C291.758 286.754 211.859 282.285 133.078 288.368Z" fill="#308D8A"/>
<path d="M84.1337 343.904C78.5305 344.707 77.0824 336.485 82.9516 335.947C91.7227 336.485 100.358 335.652 109.1 335.285C180.959 334.186 252.843 335.486 324.715 335.929C329.207 336.911 328.414 343.91 323.822 343.809C243.676 343.596 163.648 341.817 83.5781 343.874L84.1337 343.904Z" fill="#308D8A"/>
<path d="M322.739 341.332C318.342 337.922 323.331 333.607 326.038 331.06C325.949 331.154 325.854 331.237 325.766 331.32C340.637 315.308 353.765 297.688 369.198 282.214C369.576 277.45 377.065 277.669 377.106 282.486C377.158 283.566 376.955 284.643 376.514 285.63C376.072 286.617 375.404 287.486 374.564 288.166C362.152 300.419 351.725 314.486 339.975 327.366C336.216 331.893 332.126 336.232 328.213 340.594C327.552 341.369 326.627 341.874 325.617 342.01C324.607 342.146 323.583 341.905 322.739 341.332V341.332Z" fill="#308D8A"/>
<path d="M79.6884 341.224C72.9267 338.104 79.4697 331.981 82.6436 328.996C91.4622 319.137 100.671 308.948 110.364 300.082C116.416 293.923 122.776 288.125 129.219 282.404C130.401 281.287 131.914 280.099 133.581 280.122C137.972 279.951 139.231 286.387 135.07 287.859C117.338 303.327 101.073 320.473 85.3683 337.779C83.9852 339.812 82.7146 342.188 79.6884 341.224Z" fill="#308D8A"/>
<path d="M130.651 283.832C211.041 276.987 292.525 281.806 373.4 281.271C358.88 298.507 346.077 317.571 331.737 335.038L331.681 335.102C330.276 336.572 328.435 338.521 327.428 340.561C252.89 340.012 178.321 338.521 103.801 339.815C95.9661 340.188 88.2554 340.955 80.4204 340.8C96.3081 321.053 112.768 301.518 130.651 283.832Z" fill="#308D8A"/>
<path d="M374.765 254.904C373.923 254.904 373.117 254.964 372.392 254.944C354.617 253.027 336.732 253.908 318.901 253.74C283.505 252.805 248.085 253.384 212.689 252.805C186.048 250.566 159.358 253.047 132.76 254.002C129.514 250.889 126.169 247.95 123.04 244.5C107.945 230.377 96.0421 213.013 82.5957 197.122C161.854 198.003 241.137 194.923 320.365 198.232C321.398 198.265 322.443 198.285 323.476 198.285C324.023 198.722 324.631 199.058 325.277 199.281C342.714 216.658 359.978 234.675 374.765 254.904Z" fill="#308D8A"/>
<path d="M374.834 115.579C375.553 115.579 376.387 115.651 377.245 115.722C360.883 132.95 345.574 151.104 329.83 168.912C329.41 169.214 329.05 169.597 328.77 170.04C319.301 170.099 309.794 169.714 300.293 169.316C289.644 168.879 278.969 168.455 268.32 168.664C244.496 167.77 220.64 167.972 196.797 168.174C177.714 168.337 158.637 168.501 139.573 168.116C131.366 167.861 123.16 168.116 114.953 168.318C101.267 168.703 87.6191 169.101 73.9837 167.28C73.6491 167.221 73.3525 167.189 72.999 167.15C73.0369 167.098 73.0684 167.026 73.1063 166.967C90.0685 149.413 107.1 131.729 125.779 116.166C208.494 108.688 292.024 111.128 374.834 115.579Z" fill="#308D8A"/>
</svg>
