<?xml version="1.0" encoding="utf-8"?>
<!-- Generator: Adobe Illustrator 26.3.1, SVG Export Plug-In . SVG Version: 6.00 Build 0)  -->
<svg version="1.1" xmlns="http://www.w3.org/2000/svg" xmlns:xlink="http://www.w3.org/1999/xlink" x="0px" y="0px"
	 viewBox="0 0 1080 1080" style="enable-background:new 0 0 1080 1080;" xml:space="preserve">
<style type="text/css">
	.st0{fill:#6067F9;}
	.st1{fill:#FFFFFF;}
</style>
<g id="Warstwa_2">
	<g>
		<circle class="st0" cx="540" cy="540" r="540"/>
		<g>
			<g>
				<path class="st0" d="M477.9,734.6c-2.1-68.4-69.5-90.4-115.5-61.6c0,0,7.2,29.4,40.8,44.2C430.6,729.3,442.4,713.1,477.9,734.6z
					"/>
				<path class="st0" d="M253.1,259.8c-27.1,95.1-15.4,215.4,27.4,303c43.8-31,89.8-78.9,114.3-129.6
					C337.1,390.5,288.7,349.9,253.1,259.8z"/>
				<path class="st0" d="M602.1,734.6c2.1-68.4,69.5-90.4,115.5-61.6c0,0-7.2,29.4-40.8,44.2C649.4,729.3,637.6,713.1,602.1,734.6z"
					/>
				<path class="st0" d="M826.9,259.8c27.1,95.1,15.4,215.4-27.4,303c-43.8-31-89.8-78.9-114.3-129.6
					C742.9,390.5,791.3,349.9,826.9,259.8z"/>
				<ellipse class="st0" cx="540" cy="921.3" rx="43.6" ry="38.4"/>
			</g>
		</g>
	</g>
</g>
<g id="Warstwa_3">
	<path class="st1" d="M540.3,959.8c-0.4,0-0.8,0-1,0c-0.2,0-0.5,0-1,0c-5.7,0-26-0.8-48.8-10.8c-24.4-10.7-56.6-34.5-71.2-87
		c-13.1-46.8-43.3-67.5-66.3-76.6c-14.1-5.6-29.8-8.5-45.6-8.5c-17.5,0-34.2,3.7-44.5,10l-5.2,3.1l-2.6-5.4
		c-23.7-49-36.4-102.1-21.6-202c-1.3-5.1-3.5-11.7-6.2-20c-9.9-30.2-26.4-80.8-30.8-145.6c-5.3-78.3,8.6-156.7,41.4-233l4-9.3
		l5.6,8.4c37.8,56.7,92.1,99.2,131.1,124.8c36.8,24.3,67.6,38.6,74.6,41.8c8.6-2,47.8-10.5,81.3-11.5v-0.1l11.3,0v0.1
		c33.5,0.9,72.7,9.5,81.3,11.5c7.1-3.2,37.8-17.5,74.6-41.8c39-25.6,93.3-68.1,131.1-124.8l5.6-8.5l4,9.3
		c32.8,76.3,46.7,154.7,41.4,233c-4.4,64.8-20.9,115.4-30.8,145.6c-2.7,8.3-4.9,14.9-6.2,20c14.8,99.9,2.1,153.1-21.6,202l-2.6,5.4
		l-5.2-3.1c-10.3-6.3-27-10-44.5-10c-15.7,0-31.5,2.9-45.6,8.5c-23,9.1-53.2,29.8-66.3,76.6c-14.6,52.4-46.8,76.2-71.2,87
		C566.4,959,546,959.8,540.3,959.8z M539.3,879.3c-21,0.1-37.3,13.7-37.9,31.7c-0.3,7.6,2.9,15.2,9,21.5c7.6,7.9,18.4,12.6,29,12.6
		c10.5,0,21.3-4.8,28.9-12.6c6.1-6.3,9.2-13.9,9-21.5C576.6,893,560.3,879.4,539.3,879.3z M404.5,810.4c11,13.6,19.3,29.9,24.5,48.7
		c13.5,48.3,42.8,70.1,65,79.8c4.2,1.8,8.2,3.3,12.1,4.5c-1.3-1.1-2.5-2.2-3.6-3.4c-8.1-8.4-12.4-18.9-12.1-29.5
		c0.4-12,6-22.9,15.4-30.8c-14-24.5-24-51-29.6-78.6c-4.5-22.2-6.2-44.9-4.9-67.5c-13.5,5.3-33.1,16-48.3,36.4
		C414.1,782,407.9,795.6,404.5,810.4z M572.8,879.8c9.4,7.8,15,18.8,15.4,30.8c0.4,10.6-3.9,21-12.1,29.5c-1.1,1.2-2.3,2.3-3.6,3.4
		c3.9-1.2,8-2.7,12.1-4.5c22.2-9.8,51.5-31.6,65-79.8c5.2-18.7,13.5-35.1,24.5-48.7c-3.4-14.8-9.7-28.4-18.6-40.3
		c-15.2-20.4-34.8-31.1-48.3-36.4c1.3,22.7-0.4,45.3-4.9,67.5C596.8,828.8,586.9,855.3,572.8,879.8z M482.7,728.1
		c-1.9,23.8-0.5,47.6,4.3,70.9c5.4,26.3,14.8,51.4,28.1,74.8c5.7-2.8,12-4.6,18.6-5.2V709.3C524.4,709.3,502,711.3,482.7,728.1z
		 M545,868.6c6.6,0.7,12.9,2.4,18.6,5.2c13.3-23.4,22.8-48.5,28.1-74.8c4.7-23.3,6.2-47.2,4.3-70.9c-19.3-16.7-41.7-18.8-50.9-18.8
		V868.6z M613.6,724.3c14.7,6.1,34.9,17.8,50.9,39.1c8.4,11.2,14.6,23.7,18.6,37.2c11.2-11,24.5-19.6,39.6-25.5
		c15.3-6.1,32.5-9.3,49.6-9.3c15,0,29.2,2.5,40.5,6.9c-7.8-48.2-32.3-73.5-52-86.4c-16.9-11-33.2-15.1-40.5-16.4
		c-2.4,5.4-7.5,15.2-16.2,24.6c-10.5,11.3-28.9,24.7-57.5,24.7c-3,0-6.1-0.2-9.2-0.5c-0.9-0.1-1.9-0.1-2.8-0.1
		C626.7,718.7,619.2,721.5,613.6,724.3z M306.5,765.9c17.1,0,34.2,3.2,49.6,9.3c15.1,6,28.4,14.5,39.6,25.5
		c4-13.5,10.2-26,18.6-37.2c15.9-21.4,36.1-33,50.9-39.1c-5.6-2.8-13.2-5.7-20.9-5.7c-0.9,0-1.9,0-2.8,0.1c-3.1,0.3-6.2,0.5-9.2,0.5
		c-28.5,0-47-13.4-57.5-24.7c-8.7-9.3-13.8-19.1-16.2-24.6c-7.3,1.3-23.6,5.4-40.5,16.5c-19.7,12.9-44.2,38.2-52,86.4
		C277.3,768.3,291.5,765.9,306.5,765.9z M243.2,585.7c-12.4,85.3-4.3,134.8,13.3,177.4c9.8-47,34.9-72.5,55.4-85.9
		c11.9-7.8,23.5-12.4,32.6-15.1c-17.3-9.1-39.6-25.4-54.5-53.1c-7.4-13.6-12.1-28.4-14-44C265.3,572.3,254.3,579.2,243.2,585.7z
		 M734.1,662c9.1,2.7,20.6,7.3,32.6,15.1c20.5,13.4,45.6,38.9,55.4,85.9c17.6-42.6,25.8-92.1,13.3-177.4
		c-11.1-6.4-22.1-13.4-32.8-20.7c-2,15.6-6.7,30.4-14,44C773.7,636.7,751.4,652.9,734.1,662z M444.2,707.7c10.5,0,20.5,4,27.4,7.6
		c-2.4-14.8-12.1-35.4-29.5-47.5c-10.1-7-21.7-10.6-34.5-10.6c-11.9,0-24.9,3.1-38.5,9.4c2.2,4.8,6.6,12.8,13.7,20.5
		c9,9.7,24.8,21.2,49.4,21.2c2.7,0,5.4-0.1,8.2-0.4C441.6,707.7,442.9,707.7,444.2,707.7z M671.1,657.2c-12.8,0-24.4,3.6-34.5,10.6
		c-17.4,12.1-27.2,32.7-29.5,47.5c6.9-3.7,16.8-7.6,27.4-7.6c1.3,0,2.6,0.1,3.9,0.2c2.8,0.3,5.5,0.4,8.2,0.4
		c24.6,0,40.4-11.5,49.4-21.2c7.1-7.7,11.5-15.6,13.7-20.5C696,660.4,683.1,657.2,671.1,657.2z M545,698.3c9.4,0,30.9,1.9,51.1,16.1
		c2.4-16.6,12.1-40.2,34.2-55.6c12-8.3,25.7-12.5,40.7-12.5c12.3,0,25.4,2.9,39.1,8.6c-3-22.5-12.4-57.8-41-88.8
		c-43.1-46.7-100.9-51.8-123.8-51.8c-0.2,0-0.3,0-0.5,0V698.3z M407.5,646.2c15.1,0,28.8,4.2,40.7,12.5c22.1,15.4,31.9,39,34.2,55.6
		c20.3-14.2,41.8-16,51.1-16.1V514.3c-0.2,0-0.3,0-0.5,0c-22.9,0-80.7,5-123.7,51.8c-28.6,31-38,66.2-41,88.8
		C382.1,649.1,395.2,646.2,407.5,646.2z M545.9,503.3c10.5,0,27.1,1,46.2,5.7c34,8.4,62.7,25.1,85.3,49.6
		c31.6,34.3,41.3,73.4,44.1,97.3c16.7-7.4,41.6-22.8,57.5-52.2c7.6-14.1,12.1-29.6,13.4-46c-31.5-22.5-60.6-48.5-86.6-77.1
		c-13.3-14.7-26-30.4-37.8-46.7c-17.7-8.3-36.3-14.8-55.4-19.2c-20.6-4.8-41.9-7.2-63.1-7.2c-1.5,0-2.9,0-4.4,0v95.8
		C545.3,503.3,545.6,503.3,545.9,503.3z M286.4,557.8c1.3,16.4,5.8,31.8,13.4,46c15.8,29.4,40.8,44.8,57.5,52.2
		c2.9-23.9,12.5-63.1,44.1-97.3c22.6-24.5,51.3-41.1,85.3-49.6c19.1-4.7,35.6-5.7,46.1-5.7c0.3,0,0.6,0,0.9,0v-95.8
		c-1.5,0-2.9,0-4.4,0c-21.3,0-42.5,2.4-63.2,7.2c-19,4.4-37.6,10.9-55.4,19.2c-11.8,16.3-24.5,32-37.8,46.7
		C347,509.3,317.9,535.2,286.4,557.8z M804.8,553.1c10.5,7.3,21.3,14.3,32.3,20.7c1.3-4.3,2.9-9.3,4.7-14.8
		c18.4-56.3,60.5-185.1-1.2-348.2c-0.4,3.8-1,7.5-1.6,11.3c-1.7,9.7-4.1,19.3-7.2,28.7C858,343.5,848.2,453.4,804.8,553.1z
		 M238,210.9c-61.6,163.1-19.6,292-1.2,348.2c1.8,5.5,3.4,10.4,4.7,14.8c10.9-6.5,21.8-13.4,32.3-20.7
		c-43.3-99.7-53.2-209.6-27-302.3c-3.1-9.4-5.5-19-7.2-28.7C239,218.4,238.4,214.6,238,210.9z M253.7,268.1
		c-20.5,86.5-10,186.8,29.3,278.5c29.7-21.6,57.2-46.2,81.8-73.4c12-13.3,23.6-27.4,34.3-42.1C330.9,390,283.2,336.5,253.7,268.1z
		 M679.5,431.2c10.8,14.6,22.3,28.8,34.3,42.1c24.6,27.1,52.1,51.8,81.8,73.4c39.3-91.7,49.8-192,29.3-278.5
		C795.5,336.5,747.8,390,679.5,431.2z M257.7,248.8c28,73.7,76.4,130.5,147.8,173.4c14.4-20.4,27.4-42,38.8-64.2
		c-11.2-5.2-39.4-19.1-72.6-41c-36.1-23.8-85.5-61.9-123.3-112.5c0.5,5.3,1.2,10.5,2.1,15.7C252.2,229.9,254.6,239.5,257.7,248.8z
		 M634.3,358c11.4,22.2,24.4,43.8,38.8,64.2c71.5-43,119.9-99.7,147.8-173.4c3.1-9.3,5.6-18.9,7.3-28.6c0.9-5.2,1.6-10.4,2.1-15.7
		c-37.9,50.6-87.2,88.7-123.3,112.5C673.8,338.9,645.5,352.8,634.3,358z M549.4,396.5c22.1,0,44.2,2.5,65.6,7.5
		c13.9,3.2,27.6,7.5,41,12.8c-12.1-18.2-23.2-37.2-33-56.7c-9.5-2.1-46.6-10.1-78.1-11v47.4C546.5,396.5,548,396.5,549.4,396.5z
		 M455.6,360.2c-9.8,19.5-20.9,38.5-33,56.7c13.4-5.3,27.1-9.6,41-12.8c21.4-5,43.5-7.5,65.6-7.5c1.5,0,2.9,0,4.4,0v-47.4
		C502.2,350.1,465.1,358,455.6,360.2z"/>
</g>
<g id="Warstwa_4">
</g>
</svg>
