<?xml version="1.0" encoding="utf-8"?>
<!-- Generator: Adobe Illustrator 26.3.1, SVG Export Plug-In . SVG Version: 6.00 Build 0)  -->
<svg version="1.1" id="Warstwa_2" xmlns="http://www.w3.org/2000/svg" xmlns:xlink="http://www.w3.org/1999/xlink" x="0px" y="0px"
	 viewBox="0 0 1080 1080" style="enable-background:new 0 0 1080 1080;" xml:space="preserve">
<style type="text/css">
	.st0{fill:#6067F9;}
	.st1{fill:#FFFFFF;}
</style>
<circle class="st0" cx="540" cy="540" r="540"/>
<g>
	<path class="st1" d="M749.1,297.1C709.8,352,660.5,390,602.4,415.5c-20.2-5.5-40.9-8.5-61.3-8.3c-0.6,0-1.2,0-1.9,0
		c-19.8,0-39.9,2.9-59.5,8.3C421.6,390,372.3,352,333,297.1c-12,29.9-57.6,133-2.7,277.1c0,0-17.6,75.2,14.7,139.8
		c0,0,46.7-21.2,83.8,8.6c38.8,31.5,26.5,61.8,53.8,87.8c23.5,24,58.5,24,58.5,24s35,0,58.5-24c27.3-26,15-56.3,53.8-87.8
		c37-29.8,83.8-8.6,83.8-8.6c32.2-64.6,14.7-139.8,14.7-139.8C806.7,430.1,761,327,749.1,297.1z M359.5,554.2
		c-29.9-61.3-38.1-145.4-19.2-211.9c24.9,63,58.8,91.4,99.1,121.3C422.3,499,390.2,532.5,359.5,554.2z M445.4,662.2
		c-23.5-10.4-28.6-30.9-28.6-30.9c32.1-20.2,79.3-4.8,80.8,43C472.8,659.3,464.6,670.6,445.4,662.2z M541,831.8
		c-16.8,0-30.5-12-30.5-26.9s13.7-26.9,30.5-26.9s30.5,12,30.5,26.9S557.9,831.8,541,831.8z M636.7,662.2
		c-19.1,8.4-27.4-2.9-52.2,12.1c1.5-47.8,48.6-63.2,80.8-43C665.2,631.3,660.2,651.8,636.7,662.2z M722.6,554.2
		c-30.6-21.7-62.8-55.2-79.9-90.7c40.3-29.9,74.2-58.3,99.1-121.3C760.7,408.8,752.5,492.9,722.6,554.2z"/>
</g>
<g>
	<g>
		<path class="st1" d="M1006.7,487.9c-2.6-2.8-17.1-18.2-41-18.8c-26.1-0.7-42.4,16.8-44.6,19.4c-9.3-68.4-37.1-133.1-80.7-187.7
			c-64.1-80.3-155.7-130.7-257.8-142.1c-102.1-11.4-202.5,17.7-282.8,81.8C242.4,286.4,199.7,347,176.1,415.7
			c-3.2,9.4-6.1,19-8.6,28.7c-4.5,17.3-7.7,35.1-9.8,53l-0.1,0.9c-2.6,23.3-23.7,40.1-47,37.5c-23-2.6-39.8-23.4-37.6-46.4l0-0.2
			c0-0.1,0-0.3,0-0.4l0-0.5c0-0.3,0.1-0.7,0.1-1l0-0.2c2.2-19.2,5.6-38.4,10.1-57.1c2.5-10.4,5.4-20.9,8.7-31.3
			c9.5-30.3,22.3-59.7,38-87.6c29.7-53,68.9-99.1,116.6-137.2C294.4,136,348,107.9,406.2,90.6c43.4-12.9,87.9-19.4,133-19.4
			c17.5,0,35.2,1,52.8,3c63,7,122.7,26.2,177.6,57c53,29.7,99.1,68.9,137.2,116.6c38.1,47.6,66.2,101.3,83.4,159.5
			C998.1,433.6,1003.6,460.7,1006.7,487.9z"/>
	</g>
	<g>
		<path class="st1" d="M1006.9,591.6c0,0.3-0.1,0.6-0.1,1l-0.1,0.5c0,0.1,0,0.3,0,0.4l0,0.3c-2.2,19.2-5.6,38.4-10.1,57.1
			c-2.6,10.6-5.5,21.1-8.7,31.3c-9.5,30.2-22.3,59.7-38,87.6c-29.7,52.9-68.9,99.1-116.6,137.2C785.6,945,732,973,673.8,990.3
			c-60.3,17.9-122.8,23.5-185.8,16.4c-63-7-122.7-26.2-177.6-57c-52.9-29.7-99.1-68.9-137.2-116.6c-38.1-47.7-66.2-101.3-83.4-159.5
			c-7.9-26.5-13.4-53.5-16.4-80.7c3.2,3.4,16.3,16.8,37.6,18.6c27.6,2.3,45.7-16.8,47.9-19.2c9.3,68.4,37.1,133.1,80.7,187.7
			c64.1,80.3,155.7,130.7,257.8,142.1c14.5,1.6,29,2.4,43.4,2.4c86.9,0,170.6-29.2,239.4-84.2c57.4-45.9,100.1-106.5,123.7-175.2
			c3.2-9.4,6.1-19,8.6-28.7c4.5-17.3,7.7-35.1,9.8-53l0.1-0.9c1.3-11.3,6.8-21.4,15.7-28.5c8.9-7.1,20-10.3,31.2-9
			C992.2,547.7,1009.1,568.5,1006.9,591.6z"/>
	</g>
</g>
<g>
	<g>
		<path class="st0" d="M843.4,323c1.4-2.1,2.9-4.1,4.4-6.2c0.8-1.1,1.6-2.1,2.4-3.2c-51.2-70.2-124-120.6-209-143.8
			c-29.5-8.1-59.5-12.6-89.3-13.5c-70.3-2.3-140.1,14.8-202.7,50.6c-63.8,36.4-115.4,89.7-149.3,154c-4.6,8.8-9,17.9-12.9,27
			c-7.1,16.4-13.1,33.5-17.9,50.9l-0.2,0.9c-5.3,19.3-23.2,31.9-42.4,31.3c-3.2-0.1-6.5-0.6-9.8-1.5c-22.3-6.1-35.7-29.2-30-51.6
			l0.1-0.2c0-0.1,0.1-0.2,0.1-0.4l0.1-0.5c0.1-0.3,0.2-0.6,0.3-1l0-0.2c5.2-18.6,11.5-37.1,18.8-54.8c4.1-9.9,8.6-19.8,13.4-29.6
			c14.1-28.4,31.3-55.6,51.1-80.7c37.5-47.7,83.4-87.3,136.4-117.5c53-30.2,110.3-49.7,170.5-57.8c25.9-3.5,51.8-4.8,77.6-3.9
			c19,0.6,37.9,2.4,56.8,5.4c17.3,2.7,34.6,6.4,51.7,11.1c61.1,16.7,117.2,44.9,166.6,83.8c31.8,25,59.9,53.7,84.1,85.7
			c3.4-1.6,7-3,10.6-4.2c-25.2-33.8-54.6-64-87.9-90.2c-50.6-39.8-108-68.7-170.5-85.7c-17.4-4.8-35.2-8.6-52.9-11.3
			c-19.2-3-38.7-4.9-58.1-5.5l-0.4,11l0.4-11c-26.4-0.9-53.1,0.5-79.4,4c-61.6,8.3-120.3,28.2-174.5,59.1
			c-54.2,31-101.2,71.4-139.6,120.3c-20.3,25.7-37.9,53.5-52.3,82.6c-4.9,9.9-9.6,20.1-13.8,30.3c-7.5,18.1-13.9,36.9-19.2,56l0,0.1
			l0,0l0,0l-0.1,0.5l-0.1,0.5l0,0.1l0,0.1l-0.1,0.3c-0.1,0.3-0.1,0.5-0.2,0.7l0,0.1c-7.3,28.1,9.6,57.3,37.7,65
			c4,1.1,8.2,1.7,12.3,1.9c11.8,0.4,23.6-3.3,33.3-10.3c9.8-7.1,16.9-17.5,20.1-29.1l0.2-0.9c4.7-16.9,10.5-33.6,17.4-49.4
			c3.8-8.9,8-17.7,12.5-26.2c32.9-62.5,83-114.2,145-149.6c60.3-34.4,128.4-51.4,196.9-49.2c29.1,1,58.3,5.4,86.8,13.2
			C722,203.3,793.6,253.4,843.4,323z"/>
	</g>
	<g>
		<path class="st0" d="M966.3,600.9c-4.1-1.1-8.2-1.7-12.4-1.9c-9.8-0.3-19.6,2.1-28.2,7c-12.4,7.1-21.3,18.6-25.1,32.3l-0.2,0.9
			c-4.6,16.9-10.5,33.5-17.4,49.4c-3.8,8.8-8,17.6-12.5,26.2c-32.9,62.4-83,114.1-145,149.5c-60.3,34.4-128.3,51.4-196.9,49.1
			c-15.1-0.5-30.5-1.9-45.5-4.3c-13.8-2.2-27.7-5.1-41.3-8.8c-90.3-24.7-166.5-80.9-216.5-159.3c-3.3,1.6-6.8,3-10.2,4.4
			c51.4,81.5,130.2,139.9,223.8,165.5c14.1,3.8,28.3,6.9,42.5,9.1c15.6,2.4,31.2,3.9,46.9,4.4c70.3,2.3,140.1-14.8,202.7-50.6
			c63.8-36.4,115.4-89.7,149.3-154c4.6-8.8,9-17.9,12.9-27c7.1-16.4,13.1-33.5,17.9-50.9l0.2-0.9c3-11,10.1-20.1,19.9-25.7
			c6.9-4,14.6-5.8,22.4-5.6c3.3,0.1,6.6,0.6,9.9,1.5c22.3,6.1,35.7,29.2,29.9,51.7c-0.1,0.3-0.2,0.6-0.2,0.9l-0.1,0.5
			c0,0.1-0.1,0.3-0.1,0.4l-0.1,0.3c-5.2,18.6-11.5,37.1-18.8,54.8c-4.2,10.1-8.7,20-13.4,29.6c-14.1,28.4-31.3,55.5-51.1,80.7
			C871.9,878.1,826,917.6,773,947.9c-53,30.2-110.3,49.7-170.5,57.8c-25.9,3.5-51.8,4.8-77.6,3.9c-36.4-1.2-72.7-6.7-108.5-16.5
			c-61.1-16.7-117.2-44.9-166.6-83.8c-47.7-37.5-87.2-83.4-117.5-136.4c-1.7-2.9-3.3-5.9-4.9-8.8c-1.2,0.1-2.3,0.3-3.5,0.4
			c-2.7,0.6-5.4,1.1-8.1,1.3c2.3,4.2,4.6,8.4,7,12.6c31,54.2,71.4,101.2,120.3,139.6c50.6,39.8,108,68.7,170.5,85.7
			c36.5,10,73.8,15.6,111,16.8c26.4,0.9,53.1-0.5,79.4-4c61.6-8.3,120.3-28.2,174.5-59.1c54.2-31,101.2-71.4,139.6-120.3
			c20.3-25.8,37.9-53.6,52.3-82.6c4.8-9.7,9.5-19.9,13.8-30.3c7.5-18.1,14-37,19.3-56.1l0,0l0,0l0-0.1c0.1-0.2,0.1-0.4,0.2-0.6
			l0.1-0.3l0-0.2l0-0.2l0.1-0.3c0.1-0.2,0.1-0.4,0.1-0.6C1011.2,637.7,994.3,608.6,966.3,600.9z"/>
	</g>
</g>
<g>
	<g>
		<path class="st0" d="M234.7,306.9c-5.8,7.5-11.4,15.4-16.6,23.3c-9.8,14.9-18.7,30.7-26.4,47l-0.4,0.8
			c-7.6,16-23.9,25.1-40.6,24.3c-5.4-0.3-10.8-1.6-16-4c-20.9-9.9-30.1-35-20.6-56l0.1-0.2c0.1-0.1,0.1-0.2,0.2-0.4l0.2-0.4
			c0.1-0.3,0.3-0.6,0.4-0.9l0.1-0.1c8.3-17.5,17.7-34.5,28-50.7c5.7-9,11.9-18.1,18.4-26.8c4.4-5.9,8.9-11.8,13.6-17.5
			c-1.3-1.6-2.6-3.2-3.9-4.8c-5,6.1-9.9,12.4-14.5,18.7c-6.5,8.8-12.8,17.9-18.6,27.1c-10.4,16.3-19.9,33.6-28.4,51.3l-0.1,0.1
			l-0.2,0.4l-0.2,0.5l0,0l0,0l-0.2,0.3c-0.1,0.2-0.2,0.4-0.2,0.5l-0.1,0.1c-10.9,24-0.4,52.7,23.5,63.9c5.8,2.7,11.9,4.3,18.2,4.6
			c19.7,1,37.9-9.9,46.3-27.8l0.4-0.8c7.6-16.1,16.4-31.6,26-46.3c5.1-7.7,10.5-15.3,16-22.6C237.7,309.6,236.2,308.2,234.7,306.9z"
			/>
		<path class="st0" d="M252.9,169.7c2-1.5,4-3.1,6-4.6c-2.8,0.5-5.6,1-8.5,1.4C251.2,167.6,252.1,168.6,252.9,169.7z"/>
	</g>
	<g>
		<path class="st0" d="M97.6,700L97.6,700c-2,0.3-4.1,0.5-6.1,0.8c0.2,0.4,0.3,0.9,0.5,1.3c0.4,1.1,0.8,2.2,1.2,3.2
			c1.7-1.2,3.4-2.3,5.1-3.5C98,701.2,97.8,700.6,97.6,700z"/>
		<path class="st0" d="M72.8,593.8c-0.2-1.8-0.4-3.6-0.6-5.4c-2.2-1.7-4.4-3.4-6.5-5.1c0.3,3.9,0.7,7.8,1.2,11.7
			C68.9,594.6,70.8,594.2,72.8,593.8z"/>
		<path class="st0" d="M946.6,679.5c-5.8-2.7-12-4.3-18.3-4.6c-6.4-0.3-12.7,0.6-18.8,2.8c-12.2,4.4-22,13.2-27.5,25l-0.4,0.8
			c-5.7,12.1-12.1,23.9-19.1,35.3c0.4,0.4,0.9,0.8,1.3,1.3c1.2,0.8,2.3,1.7,3.3,2.7c7.2-11.8,13.9-24.1,19.9-36.7l0.4-0.8
			c4.8-10.3,13.4-18,24.1-21.9c5.4-1.9,10.9-2.7,16.4-2.5c5.5,0.3,10.9,1.6,16,4c20.9,9.9,30.1,35,20.5,56.1
			c-0.1,0.3-0.3,0.6-0.4,0.9l-0.2,0.4c-0.1,0.1-0.1,0.2-0.2,0.4l-0.1,0.2c-8.3,17.5-17.7,34.5-28,50.7c-4.1,6.5-8.4,12.9-12.9,19.2
			c1.2,1.8,2.3,3.6,3.5,5.5c4.9-6.9,9.8-14.1,14.4-21.4c10.4-16.3,19.9-33.6,28.4-51.4l0.1-0.2c0.1-0.1,0.2-0.3,0.2-0.5l0.2-0.3
			l0-0.1l0-0.1c0.1-0.1,0.1-0.2,0.2-0.4c0.1-0.2,0.2-0.3,0.2-0.5C981,719.4,970.5,690.7,946.6,679.5z"/>
		<path class="st0" d="M224.6,897.8c0.6,0.5,1.2,1.1,1.8,1.6c0.5-0.7,1-1.5,1.4-2.2C226.8,897.4,225.7,897.6,224.6,897.8z"/>
	</g>
</g>
</svg>
