<?xml version="1.0" encoding="utf-8"?>
<!-- Generator: Adobe Illustrator 26.3.1, SVG Export Plug-In . SVG Version: 6.00 Build 0)  -->
<svg version="1.1" id="Warstwa_2" xmlns="http://www.w3.org/2000/svg" xmlns:xlink="http://www.w3.org/1999/xlink" x="0px" y="0px"
	 viewBox="0 0 1080 1080" style="enable-background:new 0 0 1080 1080;" xml:space="preserve">
<style type="text/css">
	.st0{fill:#FBFBFB;}
	.st1{fill:#6067F9;}
</style>
<g>
	<circle class="st0" cx="540" cy="540" r="540"/>
	<g>
		<path class="st1" d="M837.5,195.2c-56.2,78.5-126.7,132.9-209.8,169.3c-28.9-7.9-58.5-12.1-87.7-11.8c-0.9,0-1.8,0-2.7,0
			c-28.3,0-57,4.2-85,11.8c-83.1-36.5-153.6-90.8-209.8-169.3c-17.1,42.7-82.4,190.2-3.9,396.1c0,0-25.1,107.5,21,200
			c0,0,66.8-30.3,119.8,12.3c55.5,45.1,37.8,88.3,76.9,125.5c33.6,34.3,83.7,34.3,83.7,34.3s50.1,0,83.7-34.3
			c39.1-37.2,21.5-80.5,76.9-125.5c53-42.5,119.8-12.3,119.8-12.3c46.1-92.4,21-200,21-200C919.8,385.4,854.5,238,837.5,195.2z
			 M280.5,562.8c-42.8-87.6-54.5-207.9-27.4-303c35.6,90.1,84,130.7,141.7,173.4C370.2,483.9,324.3,531.8,280.5,562.8z M403.3,717.2
			c-33.6-14.8-40.8-44.2-40.8-44.2c45.9-28.9,113.3-6.8,115.5,61.5C442.4,713.1,430.7,729.3,403.3,717.2z M540,959.7
			c-24.1,0-43.6-17.2-43.6-38.4s19.5-38.4,43.6-38.4s43.6,17.2,43.6,38.4S564.1,959.7,540,959.7z M676.7,717.2
			c-27.4,12-39.1-4.2-74.6,17.3c2.1-68.4,69.5-90.4,115.5-61.5C717.5,673,710.3,702.4,676.7,717.2z M799.5,562.8
			c-43.8-31-89.8-78.9-114.3-129.6c57.7-42.7,106.1-83.3,141.7-173.4C854,354.9,842.3,475.2,799.5,562.8z"/>
	</g>
</g>
</svg>
