<?xml version="1.0" encoding="UTF-8" standalone="no"?>
<!-- Created with Inkscape (http://www.inkscape.org/) -->

<svg
   width="1920"
   height="1920"
   viewBox="0 0 507.99999 508.00001"
   version="1.1"
   id="svg5"
   inkscape:version="1.1 (c68e22c387, 2021-05-23)"
   sodipodi:docname="Dollar and arrow.svg"
   xmlns:inkscape="http://www.inkscape.org/namespaces/inkscape"
   xmlns:sodipodi="http://sodipodi.sourceforge.net/DTD/sodipodi-0.dtd"
   xmlns="http://www.w3.org/2000/svg"
   xmlns:svg="http://www.w3.org/2000/svg">
  <sodipodi:namedview
     id="namedview7"
     pagecolor="#ffffff"
     bordercolor="#666666"
     borderopacity="1.0"
     inkscape:pageshadow="2"
     inkscape:pageopacity="0.0"
     inkscape:pagecheckerboard="0"
     inkscape:document-units="mm"
     showgrid="false"
     units="px"
     inkscape:zoom="0.16770307"
     inkscape:cx="584.36616"
     inkscape:cy="-160.99884"
     inkscape:window-width="2560"
     inkscape:window-height="1346"
     inkscape:window-x="-11"
     inkscape:window-y="-11"
     inkscape:window-maximized="1"
     inkscape:current-layer="layer1" />
  <defs
     id="defs2" />
  <g
     inkscape:label="Warstwa 1"
     inkscape:groupmode="layer"
     id="layer1">
    <path
       style="fill:#fbfbfb;fill-opacity:1;stroke-width:0.160544"
       d="m 141.62884,402.18704 c -19.87969,-1.10327 -38.96345,-6.02733 -56.841482,-14.6665 -12.451543,-6.01694 -24.00988,-13.76693 -34.52902,-23.15207 -2.534531,-2.2613 -9.474145,-9.25058 -11.78135,-11.86566 C 19.920669,331.47028 7.6463318,305.81969 3.1796803,278.73948 1.6318625,269.35534 1.2478874,264.44037 1.2478874,254.01183 c 0,-10.42855 0.3839751,-15.34352 1.9317929,-24.72765 4.4666515,-27.08022 16.7409887,-52.73081 35.2973077,-73.76334 2.307205,-2.61508 9.246819,-9.60437 11.78135,-11.86566 19.459491,-17.36171 42.535284,-29.13908 68.013782,-34.71276 4.83658,-1.05804 12.53959,-2.20729 18.21986,-2.71829 16.6788,-1.50044 34.75564,0.019 50.52173,4.24666 15.66612,4.20081 28.33152,9.70894 42.02215,18.27524 14.51911,9.0847 28.36136,21.86262 38.99359,35.99533 10.83927,14.40794 18.96957,30.5845 23.854,47.46151 1.94102,6.70674 2.90893,10.91617 3.92471,17.06868 2.82592,17.11627 2.82592,32.36429 0,49.48054 -1.01578,6.15252 -1.98369,10.36195 -3.92471,17.06867 -5.52114,19.07709 -15.42839,37.66919 -28.28552,53.08107 -5.84173,7.0025 -12.90201,14.02367 -19.79359,19.68393 -18.16341,14.9182 -39.61186,25.32404 -62.66191,30.40078 -7.10904,1.56574 -16.31962,2.78396 -24.34378,3.21976 -3.4283,0.18623 -11.65595,0.1758 -15.16981,-0.0194 z m 17.84968,-61.53987 0.45041,-0.38729 0.0945,-9.28635 c 0.0602,-5.90115 0.15585,-9.43386 0.26293,-9.69104 0.15016,-0.3607 0.41032,-0.4637 2.39372,-0.94754 2.71884,-0.66323 6.19722,-1.76194 7.93947,-2.50781 0.71344,-0.30541 1.38281,-0.5553 1.4875,-0.5553 0.26428,0 4.00036,-2.19569 5.77715,-3.39523 3.8326,-2.58747 8.10645,-6.90693 10.78017,-10.89524 1.15851,-1.72808 3.03174,-5.26426 3.74323,-7.06622 0.58703,-1.48682 1.52845,-5.28444 1.87008,-7.54382 0.55059,-3.64168 0.47448,-9.05299 -0.17729,-12.60385 -0.55975,-3.04938 -1.29182,-5.28077 -2.59645,-7.91405 -1.56081,-3.1504 -2.83509,-4.90243 -5.55414,-7.63659 -4.09222,-4.11497 -6.93726,-6.1147 -13.10921,-9.21425 -4.38835,-2.20381 -14.62566,-6.58581 -21.09845,-9.03099 -3.12781,-1.18157 -8.87634,-3.83353 -11.03202,-5.08939 -1.48408,-0.8646 -4.60426,-3.2155 -5.79064,-4.36301 -2.85585,-2.76222 -3.93008,-5.47493 -3.75977,-9.49438 0.0976,-2.30545 0.35921,-3.41336 1.23198,-5.21892 0.81433,-1.68463 2.1589,-3.25895 3.93521,-4.6077 1.79686,-1.36432 3.32755,-2.16234 5.74296,-2.99403 3.73078,-1.28464 6.67282,-1.71183 10.9264,-1.58657 3.93685,0.11594 6.50553,0.61439 11.34443,2.20139 2.85628,0.93677 6.85482,3.02833 10.97385,5.74017 2.88718,1.90086 5.03761,3.09316 5.57881,3.09316 0.74908,0 1.60031,-0.83286 2.97226,-2.90816 0.74055,-1.12019 1.34644,-2.08277 1.34644,-2.13907 0,-0.0563 0.44351,-0.87642 0.98555,-1.82249 3.20632,-5.5962 5.09805,-9.31748 5.22757,-10.28337 0.17879,-1.33394 -1.06516,-2.68943 -4.96401,-5.40865 -3.49746,-2.43926 -7.38429,-4.5965 -10.47942,-5.81621 -1.76467,-0.69542 -7.46946,-2.49895 -9.7119,-3.07035 -2.19006,-0.55808 -4.60108,-0.98448 -5.56645,-0.98448 h -0.69412 l -0.01,-4.85689 c -0.005,-2.6713 -0.0652,-6.77595 -0.13271,-9.12145 -0.13785,-4.78928 -0.23568,-5.22825 -1.30197,-5.84615 -0.54269,-0.31449 -0.81904,-0.3256 -8.10661,-0.3256 -7.31479,0 -7.56184,0.01 -8.10448,0.32887 -1.22313,0.71869 -1.44336,2.72446 -1.44548,13.16658 l -0.001,6.91254 -1.56514,0.37482 c -9.81553,2.35061 -17.09967,6.38457 -23.21078,12.85418 -1.04268,1.10383 -2.09482,2.29599 -2.33812,2.64921 -0.24327,0.35323 -0.99329,1.42585 -1.66668,2.38358 -2.39957,3.41282 -4.18238,7.81866 -5.0127,12.38779 -0.35524,1.9549 -0.49338,7.08468 -0.25341,9.40993 0.38874,3.76685 1.36521,7.4515 2.9057,10.96475 1.15998,2.64548 3.59624,5.90254 6.84634,9.15301 1.22226,1.22241 2.4029,2.33798 2.62363,2.47906 0.22074,0.14108 0.87088,0.62487 1.44474,1.07516 2.95947,2.32193 7.90344,5.10595 14.28691,8.04522 2.51627,1.1586 4.93621,2.25344 5.37766,2.43301 0.44146,0.17958 1.52502,0.61654 2.40792,0.97113 0.88288,0.3546 2.72493,1.12716 4.09345,1.71682 1.36848,0.58964 3.10218,1.30955 3.85264,1.59979 1.67109,0.64632 5.35833,2.33866 7.2908,3.34631 0.78736,0.41054 1.49547,0.74646 1.57359,0.74646 0.22409,0 3.47556,1.89881 4.53961,2.65105 3.9899,2.8207 6.34083,6.84415 6.34083,10.85184 0,3.10916 -1.17017,6.73109 -2.86302,8.86168 -1.06905,1.34546 -4.49547,3.86069 -6.48744,4.76221 -1.48828,0.67353 -4.35835,1.54421 -6.15907,1.86842 -1.14863,0.20682 -2.42857,0.28675 -4.63663,0.28949 -4.14792,0.005 -6.10825,-0.31693 -12.03952,-1.97817 -2.59209,-0.72598 -8.82982,-3.6706 -11.24994,-5.31076 -2.49185,-1.68875 -5.00761,-3.5227 -6.48409,-4.72681 -2.73512,-2.2306 -3.20176,-2.32493 -4.87961,-0.98636 -0.91823,0.73257 -7.7026,9.31267 -9.45034,11.95176 -0.87802,1.3258 -1.72698,2.99003 -1.72698,3.38538 0,0.95067 1.33746,2.59795 3.60155,4.43584 0.80028,0.64963 1.85237,1.5109 2.33795,1.91391 0.48559,0.40303 2.21929,1.63124 3.85264,2.7294 3.03465,2.04024 6.22191,3.77858 9.79216,5.34062 3.56243,1.55863 10.19331,3.53857 14.94844,4.46348 0.76115,0.14811 1.4594,0.31587 1.5517,0.37293 0.10774,0.0666 0.23129,2.53749 0.34531,6.90879 0.1697,6.50817 0.38528,11.06284 0.57604,12.17401 0.17804,1.03703 -0.0853,1.00808 9.17252,1.00808 h 8.383 z"
       id="path836" />
    <path
       id="rect1089"
       style="fill:#fbfbfb;stroke-width:12.2183;stroke-miterlimit:2;stop-color:#000000;fill-opacity:1"
       d="M 302.79609,179.09214 H 410.5249 V 329.63367 H 302.79609 c 0,0 17.20486,-33.58217 17.20486,-77.84485 0,-39.65871 -17.20486,-72.69668 -17.20486,-72.69668 z"
       sodipodi:nodetypes="ccccsc" />
    <path
       sodipodi:type="star"
       style="fill:#fbfbfb;fill-opacity:1;stroke:none;stroke-width:30;stroke-miterlimit:2;stop-color:#000000"
       id="path1461"
       inkscape:flatsided="true"
       sodipodi:sides="3"
       sodipodi:cx="1591.699"
       sodipodi:cy="411.10107"
       sodipodi:r1="258.62338"
       sodipodi:r2="129.31171"
       sodipodi:arg1="0.52359878"
       sodipodi:arg2="1.5707963"
       inkscape:rounded="0"
       inkscape:randomized="0"
       d="m 1815.6734,540.41277 -447.9488,-10e-6 223.9744,-387.93507 z"
       transform="matrix(-0.21746237,-0.25752452,0.12555196,-0.44604554,737.48002,850.08924)"
       inkscape:transform-center-x="-16.235328"
       inkscape:transform-center-y="-9.7585154e-06" />
  </g>
</svg>
