<?xml version="1.0" encoding="UTF-8" standalone="no"?>
<!-- Created with Inkscape (http://www.inkscape.org/) -->

<svg
   width="1920"
   height="1920"
   viewBox="0 0 507.99999 508.00001"
   version="1.1"
   id="svg5"
   inkscape:version="1.1 (c68e22c387, 2021-05-23)"
   sodipodi:docname="Procent.svg"
   xmlns:inkscape="http://www.inkscape.org/namespaces/inkscape"
   xmlns:sodipodi="http://sodipodi.sourceforge.net/DTD/sodipodi-0.dtd"
   xmlns="http://www.w3.org/2000/svg"
   xmlns:svg="http://www.w3.org/2000/svg">
  <sodipodi:namedview
     id="namedview7"
     pagecolor="#ffffff"
     bordercolor="#666666"
     borderopacity="1.0"
     inkscape:pageshadow="2"
     inkscape:pageopacity="0.0"
     inkscape:pagecheckerboard="0"
     inkscape:document-units="mm"
     showgrid="false"
     units="px"
     inkscape:zoom="0.33540614"
     inkscape:cx="107.33256"
     inkscape:cy="500.88528"
     inkscape:window-width="2560"
     inkscape:window-height="1346"
     inkscape:window-x="-11"
     inkscape:window-y="-11"
     inkscape:window-maximized="1"
     inkscape:current-layer="layer1" />
  <defs
     id="defs2" />
  <g
     inkscape:label="Warstwa 1"
     inkscape:groupmode="layer"
     id="layer1">
    <path
       style="fill:#fbfbfb;stroke-width:0.274751;fill-opacity:1"
       d="M 240.3792,507.60616 C 206.35724,505.71805 173.69744,497.29104 143.10113,482.506 121.79165,472.20869 102.01078,458.9454 84.00844,442.88375 79.67084,439.01379 67.79446,427.05239 63.84591,422.57697 32.08878,386.58205 11.08255,342.68383 3.43837,296.33893 0.78942,280.27903 0.13229,271.86757 0.13229,254.02022 c 0,-17.84731 0.65713,-26.25877 3.30608,-42.31867 7.64418,-46.3449 28.65041,-90.24312 60.40754,-126.238002 3.94855,-4.47546 15.82493,-16.43686 20.16253,-20.30682 33.30281,-29.71271 72.79453,-49.86841 116.39823,-59.4071397 8.27731,-1.81075 21.46017,-3.77753 31.18135,-4.65207 28.54395,-2.56784 59.48054,0.0325 86.46249,7.26768 26.81089,7.1892397 48.48635,16.6158397 71.91637,31.2761197 24.84792,15.54748 48.53745,37.4155 66.73338,61.602142 18.55022,24.65762 32.46436,52.34207 40.82354,81.22525 3.32184,11.47786 4.9783,18.68187 6.7167,29.21123 4.83628,29.29262 4.83628,55.38795 0,84.6806 -1.7384,10.52936 -3.39486,17.73334 -6.7167,29.21123 -9.44887,32.64834 -26.40406,64.46674 -48.40763,90.84251 -9.9975,11.98402 -22.08039,24 -33.87458,33.68695 -31.08475,25.53086 -67.79144,43.33932 -107.23916,52.02762 -12.16634,2.67961 -27.92926,4.76446 -41.66173,5.51029 -5.86718,0.3187 -19.94791,0.30085 -25.9615,-0.0331 z m 94.50534,-113.30061 c 11.85052,-1.84427 20.28365,-5.78674 27.24062,-12.73481 6.6215,-6.61299 10.61855,-15.14917 12.3768,-26.43205 0.43785,-2.80991 0.49243,-5.24501 0.49243,-21.98226 0,-16.68169 -0.0558,-19.19734 -0.49217,-22.11967 -1.74034,-11.65996 -5.56088,-19.82743 -12.54011,-26.80803 -7.28285,-7.28427 -16.28141,-11.33565 -28.72592,-12.9331 -4.13171,-0.53037 -15.15794,-0.45374 -19.23072,0.13371 -8.22653,1.18646 -15.01951,3.46571 -20.46701,6.86739 -10.39674,6.49223 -17.15412,16.86084 -19.5074,29.93242 -0.99842,5.54573 -1.14677,9.4845 -1.02211,27.13666 0.0986,13.9473 0.19858,17.3901 0.57452,19.77272 1.80816,11.45874 5.60033,19.44993 12.52726,26.39836 7.62267,7.64639 17.19562,11.79289 30.36726,13.1536 3.58896,0.37075 15.09739,0.13014 18.40655,-0.38488 z m -12.3684,-40.00878 c -2.83211,-0.37336 -5.03548,-2.18206 -6.211,-5.09858 l -0.65132,-1.61589 v -14.70066 -14.70065 l 0.65749,-1.63241 c 0.84523,-2.09855 2.73032,-4.02065 4.5522,-4.64153 1.72103,-0.58654 4.61778,-0.58654 6.33884,0 1.82185,0.62088 3.70697,2.54298 4.55217,4.64153 l 0.65749,1.63241 0.0847,13.60153 c 0.0578,9.25102 -0.013,14.11252 -0.22324,15.19905 -1.04508,5.42078 -4.49681,8.00864 -9.75722,7.3152 z M 280.16837,250.7224 c 40.59523,-77.68016 73.80956,-141.36005 73.80956,-141.51089 0,-0.18045 -8.30122,-0.27424 -24.26418,-0.27424 H 305.4495 l -72.90525,139.51872 c -40.09787,76.73532 -73.38609,140.41521 -73.97378,141.51089 l -1.06854,1.99214 h 24.42843 24.42841 z m -85.80559,-21.01935 c 21.31406,-3.20358 34.83948,-15.59272 38.84821,-35.5845 1.17461,-5.85775 1.31582,-9.18482 1.18963,-28.0274 -0.0983,-14.68439 -0.19014,-17.88369 -0.5787,-20.19621 -1.97273,-11.73649 -5.64608,-19.39547 -12.65575,-26.38742 -3.74588,-3.73645 -6.59116,-5.75244 -11.24875,-7.97025 -7.75351,-3.69202 -15.5526,-5.20721 -26.681,-5.18351 -13.26295,0.0292 -23.18656,2.57621 -31.37834,8.05667 -10.57205,7.07293 -16.63602,17.30319 -18.93865,31.95065 -0.56826,3.61468 -0.86727,33.27276 -0.39706,39.38076 1.08109,14.0431 5.49659,24.30208 13.84136,32.159 7.55752,7.11573 17.1987,11.00403 30.55403,12.32248 2.82354,0.27878 14.43243,-0.0675 17.44502,-0.52027 z m -12.65919,-39.97594 c -2.41065,-0.42317 -4.4817,-1.94433 -5.60488,-4.11677 -1.11841,-2.16317 -1.23311,-3.76128 -1.23733,-17.23873 -0.003,-13.78104 0.0714,-14.77319 1.32274,-17.35343 1.33539,-2.75324 3.81514,-4.16153 7.32795,-4.16153 4.88044,0 7.76245,3.03755 8.37173,8.8235 0.34391,3.26603 0.35128,21.2229 0.01,24.72909 -0.31409,3.22973 -1.05442,5.29651 -2.47499,6.91068 -1.74063,1.97782 -4.77252,2.9238 -7.71534,2.40719 z"
       id="path2873" />
  </g>
</svg>
