<?xml version="1.0" encoding="UTF-8" standalone="no"?>
<!-- Created with Inkscape (http://www.inkscape.org/) -->

<svg
   width="1920"
   height="1920"
   viewBox="0 0 507.99999 508.00001"
   version="1.1"
   id="svg5"
   inkscape:version="1.1 (c68e22c387, 2021-05-23)"
   sodipodi:docname="Phantom.svg"
   xmlns:inkscape="http://www.inkscape.org/namespaces/inkscape"
   xmlns:sodipodi="http://sodipodi.sourceforge.net/DTD/sodipodi-0.dtd"
   xmlns:xlink="http://www.w3.org/1999/xlink"
   xmlns="http://www.w3.org/2000/svg"
   xmlns:svg="http://www.w3.org/2000/svg">
  <sodipodi:namedview
     id="namedview7"
     pagecolor="#ffffff"
     bordercolor="#666666"
     borderopacity="1.0"
     inkscape:pageshadow="2"
     inkscape:pageopacity="0.0"
     inkscape:pagecheckerboard="0"
     inkscape:document-units="mm"
     showgrid="false"
     units="px"
     inkscape:zoom="0.25"
     inkscape:cx="1200"
     inkscape:cy="1184"
     inkscape:window-width="2560"
     inkscape:window-height="1346"
     inkscape:window-x="-11"
     inkscape:window-y="-11"
     inkscape:window-maximized="1"
     inkscape:current-layer="layer1" />
  <defs
     id="defs2">
    <linearGradient
       inkscape:collect="always"
       id="linearGradient82123">
      <stop
         style="stop-color:#551ef5;stop-opacity:1"
         offset="0"
         id="stop82119" />
      <stop
         style="stop-color:#524ab4;stop-opacity:1"
         offset="1"
         id="stop82121" />
    </linearGradient>
    <rect
       x="842.96875"
       y="-494.53125"
       width="1366.7998"
       height="1122.1615"
       id="rect25933" />
    <linearGradient
       inkscape:collect="always"
       xlink:href="#linearGradient82123"
       id="linearGradient82125"
       x1="262.59897"
       y1="510.11667"
       x2="270.80106"
       y2="-1.058332"
       gradientUnits="userSpaceOnUse" />
  </defs>
  <g
     inkscape:label="Warstwa 1"
     inkscape:groupmode="layer"
     id="layer1">
    <circle
       style="fill:url(#linearGradient82125);fill-opacity:1;stroke:none;stroke-width:10.3425;stroke-miterlimit:4;stroke-dasharray:none;stroke-opacity:1;stop-color:#000000"
       id="path62875"
       cx="254"
       cy="254"
       r="253.86771" />
    <g
       id="g72445"
       style="fill:#ffffff;fill-opacity:1"
       transform="matrix(13.275537,0,0,13.275537,770.23425,-1678.6509)">
      <path
         id="path70618"
         style="font-variation-settings:normal;opacity:1;vector-effect:none;fill:#ffffff;fill-opacity:1;stroke:none;stroke-width:1.52573px;stroke-linecap:butt;stroke-linejoin:miter;stroke-miterlimit:4;stroke-dasharray:none;stroke-dashoffset:0;stroke-opacity:1;-inkscape-stroke:none;stop-color:#000000;stop-opacity:1"
         d="m -73.210938,415.35352 a 42.315287,42.315287 0 0 0 -42.314452,42.3164 42.315287,42.315287 0 0 0 42.314452,42.31446 42.315287,42.315287 0 0 0 42.316407,-42.31446 42.315287,42.315287 0 0 0 -42.316407,-42.3164 z m -22.552734,28.51757 c 3.064313,0 5.53125,2.46694 5.53125,5.53125 v 8.53125 c 0,3.06432 -2.466937,5.53125 -5.53125,5.53125 -3.064312,0 -5.531248,-2.46693 -5.531248,-5.53125 v -8.53125 c 0,-3.06431 2.466936,-5.53125 5.531248,-5.53125 z m 19.445313,0 c 3.064312,0 5.53125,2.46694 5.53125,5.53125 v 8.53125 c 0,3.06432 -2.466938,5.53125 -5.53125,5.53125 -3.064313,0 -5.53125,-2.46693 -5.53125,-5.53125 v -8.53125 c 0,-3.06431 2.466937,-5.53125 5.53125,-5.53125 z"
         transform="matrix(0.26458333,0,0,0.26458333,-21.759836,24.487156)" />
      <path
         style="fill:#ffffff;fill-opacity:1;fill-rule:evenodd;stroke:none;stroke-width:0.1;stroke-linecap:butt;stroke-linejoin:miter;stroke-miterlimit:4;stroke-dasharray:none;stroke-opacity:1"
         d="m -29.919696,145.41421 c 0,0 3.146684,-0.009 3.72136,-0.009 2.051023,-0.0657 -0.328131,5.69682 -4.29832,8.42473 -4.478924,3.22703 -10.518128,2.94049 -10.518128,2.94049"
         id="path70792"
         sodipodi:nodetypes="cccc" />
    </g>
  </g>
</svg>
