<?xml version="1.0" encoding="UTF-8" standalone="no"?>
<!-- Created with Inkscape (http://www.inkscape.org/) -->

<svg
   width="1920"
   height="1920"
   viewBox="0 0 507.99999 508.00001"
   version="1.1"
   id="svg5"
   inkscape:version="1.1 (c68e22c387, 2021-05-23)"
   sodipodi:docname="Znak zapytania.svg"
   xmlns:inkscape="http://www.inkscape.org/namespaces/inkscape"
   xmlns:sodipodi="http://sodipodi.sourceforge.net/DTD/sodipodi-0.dtd"
   xmlns="http://www.w3.org/2000/svg"
   xmlns:svg="http://www.w3.org/2000/svg">
  <sodipodi:namedview
     id="namedview7"
     pagecolor="#ffffff"
     bordercolor="#666666"
     borderopacity="1.0"
     inkscape:pageshadow="2"
     inkscape:pageopacity="0.0"
     inkscape:pagecheckerboard="0"
     inkscape:document-units="mm"
     showgrid="false"
     units="px"
     inkscape:zoom="0.35355339"
     inkscape:cx="1368.9587"
     inkscape:cy="555.78593"
     inkscape:window-width="2560"
     inkscape:window-height="1346"
     inkscape:window-x="-11"
     inkscape:window-y="-11"
     inkscape:window-maximized="1"
     inkscape:current-layer="layer1" />
  <defs
     id="defs2">
    <rect
       x="842.96875"
       y="-494.53125"
       width="1366.7998"
       height="1122.1615"
       id="rect25933" />
  </defs>
  <g
     inkscape:label="Warstwa 1"
     inkscape:groupmode="layer"
     id="layer1">
    <path
       style="fill:#fbfbfb;stroke-width:0.285698;fill-opacity:1"
       d="M 240.40696,507.81301 C 228.54897,507.08986 215.41172,505.42007 204.5749,503.25875 143.93208,491.16384 90.11479,457.73198 52.45017,408.75723 24.70866,372.68536 7.56489,330.71895 1.72314,284.5819 0.33364,273.60781 0.13229,269.73864 0.13229,254.01272 c 0,-12.2017 0.0962,-16.03781 0.51508,-20.5699 0.93884,-10.15413 2.37122,-20.28791 4.07529,-28.83124 12.18386,-61.08444 45.96426,-115.149232 95.54667,-152.920412 27.58612,-21.0147 59.65124,-36.28323 93.467,-44.50637 12.9991,-3.16107 25.16197,-5.15185 39.67087,-6.49322 8.06606,-0.74572 33.07534,-0.74572 41.14136,0 14.50889,1.34137 26.6718,3.33215 39.67087,6.49322 56.10607,13.64359 105.93928,46.12244 141.28616,92.08345 21.49637,27.951382 36.97586,60.238162 45.30934,94.505162 3.16119,12.99862 5.15205,25.16105 6.49346,39.66941 0.74576,8.06575 0.74576,33.07411 0,41.13983 -3.03852,32.86369 -10.86651,61.56029 -24.5488,89.99332 -21.29391,44.25063 -55.94356,82.14939 -98.21516,107.42469 -30.7088,18.36161 -63.94128,29.73471 -100.1391,34.27052 -10.26694,1.28649 -14.13612,1.50083 -28.42753,1.57473 -7.62113,0.0395 -14.62802,0.0236 -15.57084,-0.0337 z M 279.40551,387.28857 V 356.57656 H 248.69236 217.9792 v 30.71201 30.71198 h 30.71316 30.71315 z m -0.19302,-70.06622 c 0.48352,-11.23415 2.99003,-20.52246 8.61555,-31.92621 4.39209,-8.90343 10.53521,-17.48964 24.42614,-34.14033 14.7934,-17.73243 20.87662,-26.76601 25.82401,-38.34856 5.94666,-13.92197 8.18703,-25.9807 7.81419,-42.05968 -0.17818,-7.69032 -0.68566,-12.61796 -1.9281,-18.72728 -4.11508,-20.23436 -14.32701,-35.8303 -30.50329,-46.58522 -12.05642,-8.015852 -26.45561,-12.771562 -44.62639,-14.739072 -5.92362,-0.64142 -22.22624,-0.73044 -27.71327,-0.15117 -14.75047,1.55675 -27.61692,5.56522 -38.276,11.924682 -21.55314,12.85912 -34.93922,34.52281 -39.44431,63.83563 -0.71222,4.63413 -1.41957,12.05961 -1.41957,14.90191 v 2.23967 h 31.68746 31.68745 l 0.18088,-2.49984 c 0.8924,-12.32324 3.63614,-19.64601 9.55385,-25.4981 4.64226,-4.59077 8.71627,-6.44713 15.81379,-7.20561 5.85073,-0.62526 12.00118,0.44636 17.07247,2.97461 2.5988,1.2956 3.36727,1.85989 5.74737,4.22034 4.16212,4.12771 6.25438,8.16506 7.7414,14.93808 0.5717,2.60407 0.64178,3.70362 0.63284,9.92788 -0.0101,6.51937 -0.0638,7.25426 -0.79451,10.71349 -1.43452,6.79157 -4.10489,13.52926 -8.02297,20.24286 -3.82639,6.55652 -7.82765,11.87577 -18.73857,24.91067 -13.47547,16.09868 -20.1888,25.32075 -24.69451,33.92279 -7.58799,14.48649 -11.53337,29.52034 -12.06825,45.98584 l -0.17413,5.35675 h 30.71241 30.71241 z"
       id="path108647" />
  </g>
</svg>
