<?xml version="1.0" encoding="UTF-8" standalone="no"?>
<!-- Created with Inkscape (http://www.inkscape.org/) -->

<svg
   width="1920"
   height="1920"
   viewBox="0 0 507.99999 508.00001"
   version="1.1"
   id="svg5"
   inkscape:version="1.1 (c68e22c387, 2021-05-23)"
   sodipodi:docname="2.svg"
   xmlns:inkscape="http://www.inkscape.org/namespaces/inkscape"
   xmlns:sodipodi="http://sodipodi.sourceforge.net/DTD/sodipodi-0.dtd"
   xmlns="http://www.w3.org/2000/svg"
   xmlns:svg="http://www.w3.org/2000/svg">
  <sodipodi:namedview
     id="namedview7"
     pagecolor="#ffffff"
     bordercolor="#666666"
     borderopacity="1.0"
     inkscape:pageshadow="2"
     inkscape:pageopacity="0.0"
     inkscape:pagecheckerboard="0"
     inkscape:document-units="mm"
     showgrid="false"
     units="px"
     inkscape:zoom="0.32"
     inkscape:cx="1009.375"
     inkscape:cy="671.875"
     inkscape:window-width="2560"
     inkscape:window-height="1346"
     inkscape:window-x="-11"
     inkscape:window-y="-11"
     inkscape:window-maximized="1"
     inkscape:current-layer="layer1" />
  <defs
     id="defs2" />
  <g
     inkscape:label="Warstwa 1"
     inkscape:groupmode="layer"
     id="layer1">
    <g
       id="g4807"
       transform="translate(-0.09924626,-0.05922707)">
      <path
         d="m 477.49421,372.97403 c -0.29652,-0.19463 -1.69214,-1.02484 -3.10113,-1.84478 -8.3843,-4.87918 -21.25361,-12.34511 -25.07863,-14.54901 -2.44719,-1.41002 -5.90561,-3.40834 -7.68538,-4.44072 -1.77978,-1.03235 -7.90787,-4.58441 -13.618,-7.89352 -5.71011,-3.30907 -12.26291,-7.11536 -14.56177,-8.45839 -2.29886,-1.34302 -7.1528,-4.16134 -10.78653,-6.2629 -3.63368,-2.10156 -7.82021,-4.52297 -9.30336,-5.38094 -1.48312,-0.85793 -3.72806,-2.16892 -4.98875,-2.91324 -3.19825,-1.88831 -7.35295,-4.29681 -16.71907,-9.69222 -2.44721,-1.4097 -7.36179,-4.26069 -10.92134,-6.33553 -3.55957,-2.07486 -8.47418,-4.92977 -10.92136,-6.34436 -2.44719,-1.41457 -7.42246,-4.30456 -11.0562,-6.42226 -3.63368,-2.11767 -9.7011,-5.6351 -13.48311,-7.81645 -3.78204,-2.18139 -9.12135,-5.27347 -11.86516,-6.87123 -2.74384,-1.59779 -7.71912,-4.48276 -11.0562,-6.41104 -3.33706,-1.92826 -10.07189,-5.83798 -14.96626,-8.68831 -9.77318,-5.69147 -17.77013,-10.32336 -21.67337,-12.55329 l -2.5273,-1.44383 0.18377,-53.81913 c 0.10128,-29.60051 0.29111,-85.47777 0.42195,-124.171654 0.1309,-38.6939 0.30576,-70.42013006 0.38822,-70.50273006 0.0825,-0.0825 2.54687,-0.003 5.4761,0.17615 44.97956,2.75643996 88.55247,17.51111006 126.00006,42.66613006 27.44949,18.43888 50.8454,41.83761 69.28207,69.290394 25.08946,37.35906 39.3745,79.38512 42.67314,125.5432 0.45281,6.33629 0.45281,25.75744 0,32.09374 -2.15434,30.14575 -8.61007,57.14616 -20.11879,84.14493 -2.14026,5.02092 -9.02964,19.29408 -9.30081,19.26908 -0.0844,-0.006 -0.39632,-0.17359 -0.69295,-0.36812 z"
         style="fill:#40bfa0;stroke-width:0.0713526;fill-opacity:1"
         id="path4469" />
      <path
         d="m 30.704283,372.97403 c 0.29652,-0.19463 1.69214,-1.02484 3.10113,-1.84478 8.3843,-4.87918 21.25361,-12.34511 25.07863,-14.54901 2.44719,-1.41002 5.90561,-3.40834 7.68538,-4.44072 1.77978,-1.03235 7.90787,-4.58441 13.618,-7.89352 5.71011,-3.30907 12.26291,-7.11536 14.56177,-8.45839 2.29886,-1.34302 7.152807,-4.16134 10.786537,-6.2629 3.63368,-2.10156 7.82021,-4.52297 9.30336,-5.38094 1.48312,-0.85793 3.72806,-2.16892 4.98875,-2.91324 3.19825,-1.88831 7.35295,-4.29681 16.71907,-9.69222 2.44721,-1.4097 7.36179,-4.26069 10.92134,-6.33553 3.55957,-2.07486 8.47418,-4.92977 10.92136,-6.34436 2.44719,-1.41457 7.42246,-4.30456 11.0562,-6.42226 3.63368,-2.11767 9.7011,-5.6351 13.48311,-7.81645 3.78204,-2.18139 9.12135,-5.27347 11.86516,-6.87123 2.74384,-1.59779 7.71912,-4.48275 11.0562,-6.41103 3.33706,-1.92826 10.07189,-5.83798 14.96626,-8.68831 9.77318,-5.69147 17.77013,-10.32336 21.67337,-12.55329 l 2.5273,-1.44383 -0.18377,-53.81913 c -0.10128,-29.60051 -0.29111,-85.47777 -0.42195,-124.171664 -0.1309,-38.6939 -0.30576,-70.42013006 -0.38822,-70.50273006 -0.0825,-0.0825 -2.54687,-0.003 -5.4761,0.17615 C 193.56761,3.0910859 149.9947,17.845756 112.54711,43.000776 85.097613,61.439656 61.701703,84.838386 43.265033,112.29118 18.175573,149.65024 3.8905325,191.6763 0.59189251,237.83438 c -0.45281,6.33629 -0.45281,25.75744 0,32.09374 2.15433999,30.14574 8.61007029,57.14615 20.11879049,84.14492 2.14026,5.02092 9.02964,19.29408 9.30081,19.26908 0.0844,-0.006 0.39632,-0.17359 0.69295,-0.36812 z"
         style="fill:#6c6bc7;stroke-width:0.0713526;fill-opacity:1"
         id="path4800" />
      <path
         d="m 468.43025,387.93259 c -0.31682,-0.15948 -1.73361,-0.95301 -3.1482,-1.76327 -8.41764,-4.82142 -21.31798,-12.23361 -25.13912,-14.44422 -2.44471,-1.41432 -5.90452,-3.41024 -7.68847,-4.43538 -1.78393,-1.02516 -7.92415,-4.55621 -13.64499,-7.84677 -5.72079,-3.29057 -12.29354,-7.06231 -14.60606,-8.38167 -2.31252,-1.31936 -7.18023,-4.11384 -10.8171,-6.20996 -3.63685,-2.09608 -7.82711,-4.51102 -9.31171,-5.36648 -1.48455,-0.85545 -3.74237,-2.14413 -5.01732,-2.86376 -3.23445,-1.82561 -7.39762,-4.21944 -16.75324,-9.63303 -2.44444,-1.4145 -7.37076,-4.24515 -10.9474,-6.2904 -3.57667,-2.04524 -8.5064,-4.87397 -10.95506,-6.28599 -2.44865,-1.41205 -7.43909,-4.27576 -11.08994,-6.36382 -3.65079,-2.08803 -9.73069,-5.58385 -13.5108,-7.76849 -3.78016,-2.18465 -9.12763,-5.26259 -11.88324,-6.83992 -2.75564,-1.57734 -7.74173,-4.44358 -11.08021,-6.36943 -3.33845,-1.92585 -10.09179,-5.80353 -15.00743,-8.61701 -9.81555,-5.61809 -17.82536,-10.2277 -21.70815,-12.49304 l -2.51405,-1.46679 -46.51684,27.06871 c -25.58415,14.88797 -73.88037,42.991 -107.324837,62.45125 -33.44445,19.46032 -60.832741,35.47486 -60.863045,35.58758 -0.0302,0.11269 1.270837,2.20715 2.890601,4.65436 24.876927,37.57522 59.441301,67.93314 99.949981,87.78619 29.69328,14.55252 61.65513,23.11461 94.64829,25.35484 44.89862,3.04858 88.43677,-5.59324 130.06016,-25.81558 5.71379,-2.776 22.533,-12.48657 27.794,-16.04687 25.0298,-16.93858 45.18498,-36.02961 62.81224,-59.49584 3.27811,-4.36398 12.19434,-17.46694 12.03711,-17.68928 -0.0474,-0.0701 -0.3485,-0.25643 -0.66528,-0.41605 z"
         style="fill:#40bfa0;stroke-width:0.0713526;fill-opacity:1"
         id="path4802" />
    </g>
  </g>
</svg>
