<?xml version="1.0" encoding="UTF-8" standalone="no"?>
<!-- Created with Inkscape (http://www.inkscape.org/) -->

<svg
   width="1920"
   height="1920"
   viewBox="0 0 507.99999 508.00001"
   version="1.1"
   id="svg5"
   inkscape:version="1.1 (c68e22c387, 2021-05-23)"
   sodipodi:docname="Points.svg"
   xmlns:inkscape="http://www.inkscape.org/namespaces/inkscape"
   xmlns:sodipodi="http://sodipodi.sourceforge.net/DTD/sodipodi-0.dtd"
   xmlns="http://www.w3.org/2000/svg"
   xmlns:svg="http://www.w3.org/2000/svg">
  <sodipodi:namedview
     id="namedview7"
     pagecolor="#ffffff"
     bordercolor="#666666"
     borderopacity="1.0"
     inkscape:pageshadow="2"
     inkscape:pageopacity="0.0"
     inkscape:pagecheckerboard="0"
     inkscape:document-units="mm"
     showgrid="false"
     units="px"
     inkscape:zoom="0.33540614"
     inkscape:cx="330.94206"
     inkscape:cy="1162.7694"
     inkscape:window-width="2560"
     inkscape:window-height="1346"
     inkscape:window-x="-11"
     inkscape:window-y="-11"
     inkscape:window-maximized="1"
     inkscape:current-layer="layer1" />
  <defs
     id="defs2" />
  <g
     inkscape:label="Warstwa 1"
     inkscape:groupmode="layer"
     id="layer1">
    <path
       style="fill:#fbfbfb;stroke-width:0.264436;fill-opacity:1"
       d="m 434.75902,331.87005 c -0.66066,17.89993 -3.6039,34.56638 -8.96611,50.77178 -3.14478,9.50397 -6.10767,16.60977 -10.69537,25.65034 -15.15832,29.87115 -38.28444,54.83906 -67.04308,72.38246 -4.07558,2.48622 -11.25372,6.47113 -13.42242,7.45143 -0.76229,0.34459 -2.87346,1.33753 -4.69145,2.20655 -7.59731,3.63167 -17.3919,7.23217 -28.16248,10.35262 -4.6233,1.33948 -15.17428,3.5395 -21.55158,4.49385 -16.12126,2.41247 -35.04281,2.46672 -51.30065,0.1471 -25.15289,-3.58885 -49.01941,-12.24972 -70.4619,-25.56972 -17.31959,-10.75887 -32.96833,-24.69162 -45.80704,-40.78403 -17.078602,-21.40675 -29.081587,-46.43138 -35.003047,-72.97669 -4.393058,-19.69371 -5.516621,-38.12609 -3.538939,-58.05708 0.958592,-9.66091 3.300166,-22.0024 5.831072,-30.73348 1.17772,-4.06287 3.819815,-12.17976 3.926818,-12.06383 0.04622,0.05 0.290775,0.68581 0.54351,1.413 0.252672,0.72722 0.733967,2.11351 1.06925,3.08072 0.335282,0.96719 0.958685,2.51414 1.385355,3.43766 0.426669,0.92355 1.289283,2.86912 1.916966,4.32353 2.239474,5.18918 7.569636,15.29584 10.204329,19.34865 0.488759,0.75187 0.888662,1.44692 0.888662,1.54458 0,0.0978 0.456314,0.851 1.014034,1.67404 0.55771,0.82304 2.23978,3.34086 3.73791,5.5952 1.49814,2.25431 2.99175,4.39625 3.31913,4.75986 0.32735,0.36358 1.53205,1.91053 2.67707,3.43765 1.14505,1.52712 2.35663,3.07407 2.69244,3.43768 0.33579,0.36362 1.10817,1.27842 1.71639,2.03291 3.5891,4.45227 12.0598,13.30688 16.70763,17.46482 4.78918,4.2844 6.55729,5.8025 7.7818,6.68148 0.70916,0.50903 1.98527,1.54482 2.83583,2.30175 0.85052,0.75692 2.21605,1.82789 3.0345,2.37993 0.81842,0.55203 2.44923,1.71767 3.62398,2.59031 2.4017,1.78404 4.95019,3.46635 8.87604,5.85933 1.46928,0.8956 3.33308,2.05542 4.14182,2.57738 1.45132,0.93673 2.04418,1.26464 6.72711,3.72084 1.30896,0.68656 2.49892,1.3426 2.64437,1.45782 0.14555,0.11525 1.87087,0.94975 3.83431,1.85447 1.96344,0.90468 4.40286,2.03255 5.42095,2.50635 1.0181,0.4738 2.14856,0.95291 2.51214,1.06469 0.36361,0.11182 1.61307,0.64736 2.77658,1.19022 1.16354,0.54285 2.532,1.07577 3.04103,1.18428 0.50903,0.10837 1.22301,0.36348 1.58662,0.56665 0.84562,0.47255 10.51035,3.73895 12.4285,4.20054 0.79993,0.19239 2.58487,0.65317 3.96654,1.02371 13.99975,3.75473 24.42362,5.2851 40.92154,6.00791 8.70723,0.38148 21.21846,-0.22987 30.74073,-1.50216 8.94391,-1.19499 9.31673,-1.26214 16.13063,-2.90482 10.62912,-2.56246 21.31703,-6.00042 29.35244,-9.44173 6.62082,-2.83551 10.95931,-4.8894 14.94066,-7.07313 0.87264,-0.47864 2.59809,-1.40228 3.83431,-2.05258 1.23625,-0.65026 2.60471,-1.44213 3.04103,-1.75967 0.43632,-0.31755 1.48152,-0.96053 2.32268,-1.42887 2.27323,-1.26564 11.30143,-7.28923 12.25622,-8.1773 0.45549,-0.4237 1.34797,-1.07702 1.98327,-1.45185 0.6353,-0.37482 1.92855,-1.36111 2.8739,-2.19178 0.94535,-0.83063 2.33252,-1.90853 3.08257,-2.39535 0.75005,-0.4868 1.40453,-0.9778 1.45441,-1.09115 0.05,-0.11337 1.81612,-1.70483 3.92498,-3.53663 8.84524,-7.68313 18.25067,-17.82087 24.88535,-26.82306 1.07522,-1.45887 2.22249,-3.00583 2.54943,-3.43765 1.69959,-2.24463 8.26416,-12.33786 8.26416,-12.70641 0,-0.0803 0.28328,-0.52467 0.62924,-0.98767 0.72085,-0.96434 3.86617,-6.694 3.86617,-7.04283 0,-0.12743 0.40243,-0.84257 0.89434,-1.58946 0.49189,-0.7469 1.45522,-2.63148 2.14078,-4.18796 0.68553,-1.55648 1.70718,-3.78193 2.2703,-4.94544 1.51088,-3.12167 2.3368,-5.06684 3.03166,-7.13978 0.34125,-1.01809 0.90247,-2.53534 1.24718,-3.37172 l 0.62665,-1.52062 1.90217,5.88382 c 4.51724,13.97308 7.2292,27.98304 8.22842,42.50832 0.29859,4.3399 0.51828,14.79808 0.38616,18.37831 z m 1.3e-4,-144.5145 c -0.60591,17.55396 -3.51155,34.08578 -8.87722,50.50737 -12.51689,38.30796 -37.46565,71.3555 -70.72813,93.68759 -6.85682,4.6036 -11.37047,7.27908 -18.20567,10.7915 -22.32456,11.472 -44.61089,17.74261 -70.47227,19.82851 -4.90574,0.39566 -19.83482,0.39681 -24.98924,0.002 -15.92387,-1.22004 -31.91436,-4.50372 -46.54082,-9.55726 -20.98534,-7.25065 -39.61955,-17.81665 -57.25047,-32.46232 -5.80477,-4.82192 -17.12423,-16.11183 -21.92356,-21.86632 C 95.526149,274.01161 82.531183,246.7838 76.495662,215.99301 70.00808,182.89572 73.149397,147.81324 85.418797,116.33999 92.997148,96.900067 103.29483,79.758656 117.18211,63.467116 c 4.01492,-4.710039 13.7254,-14.419861 18.52995,-18.528703 22.66459,-19.382791 47.9314,-32.270816 76.97866,-39.2651475 12.03047,-2.8968276 24.65398,-4.4411892 38.18337,-4.671405 15.97203,-0.27172398 30.70181,1.3106165 45.21862,4.8577389 25.96632,6.3447236 49.13188,17.5618336 69.76326,33.7804146 13.59804,10.689622 26.42082,24.268606 36.48385,38.635528 16.80688,23.994978 27.89959,53.195288 31.24167,82.239738 0.93548,8.13001 1.43249,19.45719 1.17766,26.84027 z"
       id="path2389" />
  </g>
</svg>
