<svg width="200" height="200" viewBox="0 0 200 200" fill="none" xmlns="http://www.w3.org/2000/svg">
<g clip-path="url(#clip0)">
<g filter="url(#filter0_d)">
<path fill-rule="evenodd" clip-rule="evenodd" d="M181.48 22.4605L80.632 109.683C80.632 109.683 32.2565 88.1698 15.405 80.6715C14.4992 80.2682 13.9325 79.3501 13.9848 78.3591C14.0376 77.3689 14.6951 76.5126 15.6369 76.2084C45.9092 66.3944 181.48 22.4605 181.48 22.4605Z" fill="url(#paint0_linear)"/>
<path fill-rule="evenodd" clip-rule="evenodd" d="M181.501 22.4616L80.6529 109.684C80.6529 109.684 94.9678 160.655 99.9587 178.411C100.227 179.366 101.054 180.059 102.042 180.15C103.03 180.241 103.972 179.713 104.409 178.825C118.484 150.284 181.501 22.4616 181.501 22.4616Z" fill="url(#paint1_linear)"/>
</g>
</g>
<defs>
<filter id="filter0_d" x="1.98145" y="10.4605" width="191.52" height="181.7" filterUnits="userSpaceOnUse" color-interpolation-filters="sRGB">
<feFlood flood-opacity="0" result="BackgroundImageFix"/>
<feColorMatrix in="SourceAlpha" type="matrix" values="0 0 0 0 0 0 0 0 0 0 0 0 0 0 0 0 0 0 127 0"/>
<feMorphology radius="2" operator="dilate" in="SourceAlpha" result="effect1_dropShadow"/>
<feOffset/>
<feGaussianBlur stdDeviation="5"/>
<feColorMatrix type="matrix" values="0 0 0 0 0.535 0 0 0 0 0.94865 0 0 0 0 1 0 0 0 1 0"/>
<feBlend mode="normal" in2="BackgroundImageFix" result="effect1_dropShadow"/>
<feBlend mode="normal" in="SourceGraphic" in2="effect1_dropShadow" result="shape"/>
</filter>
<linearGradient id="paint0_linear" x1="96.1106" y1="91.0042" x2="76.5786" y2="50.5778" gradientUnits="userSpaceOnUse">
<stop stop-color="#32BAD3"/>
<stop offset="1" stop-color="white"/>
</linearGradient>
<linearGradient id="paint1_linear" x1="153.118" y1="124.788" x2="114.559" y2="105.822" gradientUnits="userSpaceOnUse">
<stop stop-color="#00F9BB"/>
<stop offset="1" stop-color="#627EEA"/>
</linearGradient>
<clipPath id="clip0">
<rect width="200" height="200" fill="white"/>
</clipPath>
</defs>
</svg>
