<svg width="220" height="220" viewBox="0 0 220 220" fill="none" xmlns="http://www.w3.org/2000/svg">
<g clip-path="url(#clip0)">
<g filter="url(#filter0_d)">
<path fill-rule="evenodd" clip-rule="evenodd" d="M188.359 39.4235L87.583 126.583C87.583 126.583 39.2425 105.085 22.4032 97.5924C21.498 97.1894 20.9317 96.2719 20.984 95.2817C21.0368 94.2921 21.6938 93.4365 22.6349 93.1325C52.8853 83.3256 188.359 39.4235 188.359 39.4235Z" fill="url(#paint0_linear)"/>
<path fill-rule="evenodd" clip-rule="evenodd" d="M188.38 39.4245L87.604 126.584C87.604 126.584 101.909 177.518 106.896 195.262C107.164 196.215 107.99 196.908 108.978 196.999C109.965 197.09 110.906 196.563 111.343 195.675C125.408 167.154 188.38 39.4245 188.38 39.4245Z" fill="url(#paint1_linear)"/>
</g>
</g>
<defs>
<filter id="filter0_d" x="8.98071" y="27.4235" width="191.399" height="181.586" filterUnits="userSpaceOnUse" color-interpolation-filters="sRGB">
<feFlood flood-opacity="0" result="BackgroundImageFix"/>
<feColorMatrix in="SourceAlpha" type="matrix" values="0 0 0 0 0 0 0 0 0 0 0 0 0 0 0 0 0 0 127 0"/>
<feMorphology radius="2" operator="dilate" in="SourceAlpha" result="effect1_dropShadow"/>
<feOffset/>
<feGaussianBlur stdDeviation="5"/>
<feColorMatrix type="matrix" values="0 0 0 0 0.268879 0 0 0 0 0.546665 0 0 0 0 0.879167 0 0 0 1 0"/>
<feBlend mode="normal" in2="BackgroundImageFix" result="effect1_dropShadow"/>
<feBlend mode="normal" in="SourceGraphic" in2="effect1_dropShadow" result="shape"/>
</filter>
<linearGradient id="paint0_linear" x1="103.051" y1="107.918" x2="83.5326" y2="67.5204" gradientUnits="userSpaceOnUse">
<stop stop-color="#32BAD3"/>
<stop offset="1" stop-color="white"/>
</linearGradient>
<linearGradient id="paint1_linear" x1="160.017" y1="141.677" x2="121.486" y2="122.725" gradientUnits="userSpaceOnUse">
<stop stop-color="#00F9BB"/>
<stop offset="1" stop-color="#627EEA"/>
</linearGradient>
<clipPath id="clip0">
<rect width="220" height="220" fill="white"/>
</clipPath>
</defs>
</svg>
