<svg width="30" height="30" viewBox="0 0 30 30" fill="none" xmlns="http://www.w3.org/2000/svg">
<path d="M29.5 15C29.5 23.0081 23.0081 29.5 15 29.5C6.99187 29.5 0.5 23.0081 0.5 15C0.5 6.99187 6.99187 0.5 15 0.5C23.0081 0.5 29.5 6.99187 29.5 15Z" fill="#030313" stroke="#00F9BB"/>
<path d="M18.8557 18.639H10.6948M18.8557 18.639L23.419 17.2248C23.1856 17.4904 22.9369 17.7082 22.6668 17.8868C22.6521 17.9296 22.6373 17.9727 22.6224 18.0162M18.8557 18.639V19.139H10.8457M18.8557 18.639L22.4215 18.5959M10.6948 18.639L6.08515 21.6994H6.98913M10.6948 18.639L10.9714 19.0556L10.8457 19.139M10.6948 18.639V19.139H10.8457M6.98913 21.6994L6.23601 22.1994H18.2353M6.98913 21.6994L10.8457 19.139M6.98913 21.6994H18.2344M18.2353 22.1994C20.3302 22.1913 22.1956 20.7669 22.9036 18.732C22.9667 18.5511 23.0277 18.3751 23.0865 18.2041C23.0064 18.2622 22.9246 18.3171 22.8407 18.369L22.6223 18.0163M18.2353 22.1994L18.2334 21.6994C18.2337 21.6994 18.234 21.6994 18.2344 21.6994M18.2353 22.1994V21.6994H18.2344M22.6223 18.0163C22.6224 18.0163 22.6224 18.0162 22.6224 18.0162M22.6223 18.0163C22.5611 18.1944 22.4974 18.3783 22.4315 18.5674L22.4314 18.5677C22.4281 18.5771 22.4248 18.5865 22.4215 18.5959M22.6223 18.0163L22.5775 17.9439L22.6224 18.0162M22.6224 18.0162L22.8412 18.3687C22.7179 18.4453 22.591 18.5147 22.4604 18.5775C22.4603 18.5775 22.4601 18.5776 22.46 18.5777C22.4472 18.5838 22.4344 18.5899 22.4215 18.5959M22.4215 18.5959C21.7698 20.4327 20.089 21.6918 18.2344 21.6994M10.5874 13.3124L10.5874 13.3123C10.2174 13.3038 9.74095 13.1534 9.29529 12.884C9.09141 12.7608 8.88601 12.6078 8.69354 12.4232L7.94281 14.7392C7.9428 14.7392 7.94278 14.7392 7.94277 14.7393C7.83376 15.076 7.8896 15.4439 8.0879 15.7265L8.08823 15.727C8.27721 15.9969 8.57115 16.1558 8.88112 16.1683H20.7431C21.2576 16.1663 21.7564 15.7912 21.9433 15.2309L21.9435 15.2304C22.0933 14.7831 22.023 14.2905 21.7597 13.9093L10.5874 13.3124ZM10.5874 13.3124H10.5988M10.5874 13.3124H10.5988M10.5988 13.3124L20.6311 13.3124L20.6333 13.3124M10.5988 13.3124L20.6333 13.3124M20.6333 13.3124C21.0745 13.3105 21.4952 13.5288 21.7592 13.9086L20.6333 13.3124ZM18.8572 19.139V18.639V19.139ZM11.1746 8.81673L11.1747 8.81644C11.2813 8.49797 11.5571 8.30228 11.8039 8.30121H21.6295L19.2908 10.3914C18.5476 10.3909 17.8921 10.3898 17.2605 10.3886C15.7467 10.3859 14.3693 10.3835 12.2466 10.3915L12.246 10.3915C11.8879 10.3933 11.543 10.2146 11.3262 9.90224C11.1091 9.58897 11.0513 9.18427 11.1746 8.81673Z" fill="#00F9BB" stroke="#00F9BB"/>
</svg>
