<?xml version="1.0" encoding="UTF-8" standalone="no"?>
<!-- Created with Inkscape (http://www.inkscape.org/) -->

<svg
   width="1920"
   height="1920"
   viewBox="0 0 507.99999 508.00001"
   version="1.1"
   id="svg5"
   inkscape:export-filename="C:\Users\Aga\bitmapa.png"
   inkscape:export-xdpi="96"
   inkscape:export-ydpi="96"
   inkscape:version="1.1 (c68e22c387, 2021-05-23)"
   sodipodi:docname="Solflare.svg"
   xmlns:inkscape="http://www.inkscape.org/namespaces/inkscape"
   xmlns:sodipodi="http://sodipodi.sourceforge.net/DTD/sodipodi-0.dtd"
   xmlns:xlink="http://www.w3.org/1999/xlink"
   xmlns="http://www.w3.org/2000/svg"
   xmlns:svg="http://www.w3.org/2000/svg">
  <sodipodi:namedview
     id="namedview7"
     pagecolor="#ffffff"
     bordercolor="#666666"
     borderopacity="1.0"
     inkscape:pageshadow="2"
     inkscape:pageopacity="0.0"
     inkscape:pagecheckerboard="0"
     inkscape:document-units="mm"
     showgrid="false"
     units="px"
     inkscape:zoom="0.16770307"
     inkscape:cx="488.95944"
     inkscape:cy="-399.51564"
     inkscape:window-width="2560"
     inkscape:window-height="1346"
     inkscape:window-x="-11"
     inkscape:window-y="-11"
     inkscape:window-maximized="1"
     inkscape:current-layer="layer1" />
  <defs
     id="defs2">
    <linearGradient
       inkscape:collect="always"
       id="linearGradient57268">
      <stop
         style="stop-color:#ffbd0c;stop-opacity:1"
         offset="0"
         id="stop57264" />
      <stop
         style="stop-color:#fd8b19;stop-opacity:1"
         offset="1"
         id="stop57266" />
    </linearGradient>
    <linearGradient
       inkscape:collect="always"
       id="linearGradient17646">
      <stop
         style="stop-color:#fea812;stop-opacity:1"
         offset="0"
         id="stop17642" />
      <stop
         style="stop-color:#fb3f2e;stop-opacity:1"
         offset="1"
         id="stop17644" />
    </linearGradient>
    <linearGradient
       inkscape:collect="always"
       xlink:href="#linearGradient17646"
       id="linearGradient17648"
       x1="-136.16946"
       y1="9.6852274"
       x2="-96.148705"
       y2="41.626877"
       gradientUnits="userSpaceOnUse" />
    <radialGradient
       inkscape:collect="always"
       xlink:href="#linearGradient57268"
       id="radialGradient57908"
       cx="-121.11102"
       cy="24.198875"
       fx="-121.11102"
       fy="24.198875"
       r="13.065731"
       gradientUnits="userSpaceOnUse"
       gradientTransform="matrix(0.61493971,-0.44112911,0.42592699,0.59374776,-57.097849,-44.448933)" />
  </defs>
  <g
     inkscape:label="Warstwa 1"
     inkscape:groupmode="layer"
     id="layer1">
    <g
       id="g4564"
       transform="translate(25.817215,-22.153351)"
       inkscape:export-filename="C:\Users\Aga\Desktop\g4564.png"
       inkscape:export-xdpi="96"
       inkscape:export-ydpi="96">
      <circle
         style="fill:#000000;fill-opacity:1;stroke-width:0.0553968;stop-color:#000000"
         id="path1069"
         cx="228.18279"
         cy="276.15335"
         r="254" />
      <g
         id="g861"
         transform="matrix(0.68551805,0,0,0.68551805,57.326005,102.03178)">
        <g
           inkscape:label="Warstwa 1"
           id="layer1-3"
           style="opacity:1" />
        <g
           id="layer2"
           inkscape:label="Warstwa 2">
          <g
             id="g151208"
             transform="matrix(6.7729746,0,0,6.7729746,1050.9951,65.014083)"
             inkscape:export-filename="C:\Users\Aga\Pictures\SNY icons\Website icons\Wallet menu\Solflare.png"
             inkscape:export-xdpi="96"
             inkscape:export-ydpi="96">
            <path
               style="fill:url(#linearGradient17648);fill-opacity:1;fill-rule:evenodd;stroke:none;stroke-width:0.05;stroke-linecap:butt;stroke-linejoin:miter;stroke-miterlimit:4;stroke-dasharray:none;stroke-opacity:1"
               d="m -119.45579,-4.8284336 c 1.3675,-0.035567 1.53558,1.524333 1.53558,1.524333 0,0 1.51606,11.7178711 1.70661,12.6297754 0.28514,1.3645172 1.38253,3.3454932 4.15282,3.7551032 2.62364,0.387928 4.77194,-1.837675 4.77194,-1.837675 l 16.086791,-14.8055981 c 0.325398,-0.2994823 0.97328,-0.3939037 1.362302,-0.1068574 0.44885,0.331192 0.381098,0.9519584 0.143315,1.2333458 L -104.95306,15.618326 c -0.78685,0.993248 -1.06622,3.116731 0.10799,5.143946 0.70573,1.2184 1.81242,2.136694 3.50026,2.333149 l 12.557922,1.289501 c 0.691721,0.07089 1.62233,0.17587 1.675318,1.071556 0.05299,0.895685 -0.912504,1.278906 -1.504519,1.370693 l -13.125721,2.015516 c 0,0 -2.5417,0.326369 -3.68429,2.993207 -1.18872,2.774514 0.13399,4.460828 0.13399,4.460828 l 5.25864,6.507091 c 0,0 0.744969,0.779257 0.03474,1.489486 -0.70729,0.707292 -1.67715,-0.0936 -1.67715,-0.0936 l -7.01907,-5.099498 c 0,0 -1.7551,-0.934882 -3.84864,0.273825 -2.69419,1.555489 -2.74077,3.502615 -2.74077,3.502615 l -1.28785,15.723084 c 0,0 -0.0674,1.593188 -1.1854,1.593188 -1.0641,0 -1.2446,-1.647024 -1.2446,-1.647024 l -2.09159,-15.123334 c 0,0 -0.24463,-2.514873 -3.44055,-3.525688 -2.79592,-0.884303 -4.44213,0.83113 -4.44213,0.83113 l -18.10649,16.642218 c 0,0 -0.77996,0.681077 -1.36737,0.12881 -0.64971,-0.610846 0.23907,-1.55766 0.23907,-1.55766 l 15.73848,-18.590539 c 0,0 1.33351,-1.846381 0.27919,-4.661268 -0.98847,-2.639075 -3.45128,-2.906959 -3.45128,-2.906959 l -13.95461,-1.493984 c 0,0 -0.71731,-0.233962 -0.71731,-0.993301 0,-0.867925 0.73466,-1.033577 0.73466,-1.033577 l 14.46582,-2.370093 c 0,0 2.04078,-0.349965 3.10733,-2.451276 1.24252,-2.44802 0.5151,-4.323721 0.29477,-4.56628 l -4.3158,-5.23657 c 0,0 -0.58896,-0.85318 0.22047,-1.6626132 0.74014,-0.7401435 1.6303,-0.1595763 1.6303,-0.1595763 l 4.74953,3.5737625 c 0.64851,0.48762 2.88783,1.070402 4.52029,0.231005 2.94539,-1.514496 2.95854,-3.615627 2.99391,-3.8677567 l 0.97808,-13.245606 c 0.0194,-0.3535333 0.28904,-1.3270227 1.48165,-1.3351669"
               id="path925"
               sodipodi:nodetypes="ccsscssscscczccsccsccsccsccsccsccsccsccsccsccsccc" />
            <circle
               style="fill:#fea413;fill-opacity:1;stroke:none;stroke-width:0.0562753;stroke-miterlimit:4;stroke-dasharray:none;stroke-opacity:1;stop-color:#000000"
               id="path17117"
               cx="-119.53424"
               cy="-7.9050345"
               r="1.4959427" />
            <circle
               style="fill:#fb3f2e;fill-opacity:1;stroke:none;stroke-width:0.0562753;stroke-miterlimit:4;stroke-dasharray:none;stroke-opacity:1;stop-color:#000000"
               id="path17117-7"
               cx="-83.198456"
               cy="25.711405"
               r="1.4959427" />
            <circle
               style="fill:#fb3f2e;fill-opacity:1;stroke:none;stroke-width:0.0562753;stroke-miterlimit:4;stroke-dasharray:none;stroke-opacity:1;stop-color:#000000"
               id="path17117-1"
               cx="-117.71268"
               cy="63.710918"
               r="1.4959427" />
            <circle
               style="fill:#fea811;fill-opacity:1;stroke:none;stroke-width:0.0562753;stroke-miterlimit:4;stroke-dasharray:none;stroke-opacity:1;stop-color:#000000"
               id="path17117-0"
               cx="-153.55354"
               cy="27.165836"
               r="1.4959427" />
            <circle
               style="fill:url(#radialGradient57908);fill-opacity:1;stroke:none;stroke-width:0.058501;stroke-miterlimit:4;stroke-dasharray:none;stroke-opacity:1;stop-color:#000000"
               id="path17313"
               cx="-118.44696"
               cy="26.371735"
               r="13.065731" />
          </g>
        </g>
      </g>
    </g>
  </g>
</svg>
