<?xml version="1.0" encoding="UTF-8" standalone="no"?>
<!-- Created with Inkscape (http://www.inkscape.org/) -->

<svg
   width="1920"
   height="1920"
   viewBox="0 0 507.99999 508.00001"
   version="1.1"
   id="svg5"
   inkscape:version="1.1 (c68e22c387, 2021-05-23)"
   sodipodi:docname="Sollet.svg"
   xmlns:inkscape="http://www.inkscape.org/namespaces/inkscape"
   xmlns:sodipodi="http://sodipodi.sourceforge.net/DTD/sodipodi-0.dtd"
   xmlns="http://www.w3.org/2000/svg"
   xmlns:svg="http://www.w3.org/2000/svg">
  <sodipodi:namedview
     id="namedview7"
     pagecolor="#ffffff"
     bordercolor="#666666"
     borderopacity="1.0"
     inkscape:pageshadow="2"
     inkscape:pageopacity="0.0"
     inkscape:pagecheckerboard="0"
     inkscape:document-units="mm"
     showgrid="false"
     units="px"
     inkscape:zoom="0.11313708"
     inkscape:cx="2934.4931"
     inkscape:cy="1290.4699"
     inkscape:window-width="2560"
     inkscape:window-height="1346"
     inkscape:window-x="-11"
     inkscape:window-y="-11"
     inkscape:window-maximized="1"
     inkscape:current-layer="layer1" />
  <defs
     id="defs2">
    <rect
       x="842.96875"
       y="-494.53125"
       width="1366.7998"
       height="1122.1615"
       id="rect25933" />
  </defs>
  <g
     inkscape:label="Warstwa 1"
     inkscape:groupmode="layer"
     id="layer1">
    <circle
       style="fill:#2196f3;fill-opacity:1;stroke:none;stroke-width:10.3425;stroke-miterlimit:4;stroke-dasharray:none;stroke-opacity:1;stop-color:#000000"
       id="path62875"
       cx="254"
       cy="254"
       r="253.86771" />
    <g
       id="g69160"
       transform="matrix(3.7428451,0,0,3.7428451,-1090.3974,589.9277)">
      <g
         aria-label="S"
         transform="matrix(0.40968831,0,0,0.46958356,-13.884862,-70.372922)"
         id="text25931"
         style="font-size:533.333px;line-height:125%;font-family:'Microsoft Yi Baiti';-inkscape-font-specification:'Microsoft Yi Baiti';letter-spacing:0px;word-spacing:0px;white-space:pre;shape-inside:url(#rect25933);stroke:#000000;stroke-width:8.52669">
        <path
           d="m 913.93238,32.625445 c -9.63543,0 -18.05558,-0.998265 -25.26045,-2.994795 -7.20487,-2.083336 -13.28126,-4.991326 -18.22919,-8.723969 -4.86111,-3.819449 -8.59376,-8.376747 -11.19793,-13.6718918 -2.60417,-5.381951 -2.35736,-9.1039498 -2.7914,-15.7879856 h 10.28648 c 1.04167,6.4236188 1.22889,9.4511723 4.09348,13.7046497 2.86459,4.2534771 6.38022,7.6388977 10.54689,10.1562627 4.25347,2.517364 9.07119,4.29688 14.45314,5.338548 5.38195,1.041668 11.11112,1.562502 17.18752,1.562502 6.33681,0 12.02258,-0.651043 17.05731,-1.953128 5.12153,-1.38889 9.46182,-3.342017 13.02085,-5.859382 3.64584,-2.604169 6.42362,-5.6857702 8.33334,-9.2448027 1.90973,-3.6458378 2.86459,-7.7257038 2.86459,-12.2395982 0,-4.7743111 -0.82465,-8.7673721 -2.47396,-11.9791811 -1.64931,-3.298615 -4.42709,-6.163202 -8.33334,-8.593761 -3.90626,-2.430558 -9.0712,-4.600699 -15.49481,-6.510424 -6.33681,-1.909725 -14.23613,-3.862852 -23.69795,-5.859382 -7.81251,-1.736113 -14.53995,-3.732644 -20.18232,-5.989591 -5.55556,-2.256947 -10.15626,-4.861117 -13.8021,-7.81251 -3.64583,-3.038198 -6.33681,-6.467022 -8.07292,-10.286471 -1.73611,-3.906255 -2.60417,-8.420149 -2.60417,-13.541683 0,-5.555562 1.17188,-10.633693 3.51563,-15.234393 2.34375,-4.6007 5.64237,-8.550359 9.89584,-11.848969 4.34029,-3.29862 9.50522,-5.85939 15.49481,-7.68231 6.0764,-1.82291 12.76044,-2.73437 20.05211,-2.73437 7.29167,0 13.97571,0.86806 20.05211,2.60417 6.07639,1.64931 11.37154,4.07986 15.88543,7.29167 4.6007,3.21181 8.28994,7.118069 11.06773,11.718766 2.86459,4.6007 4.6875,9.80904 5.46875,15.625019 H 951.0418 c -0.95486,-3.819449 -2.51736,-7.378481 -4.68751,-10.677096 -2.17014,-3.298615 -4.99132,-6.119799 -8.46355,-8.463552 -3.38542,-2.430558 -7.46529,-4.296877 -12.2396,-5.598967 -4.68751,-1.38889 -10.06946,-2.08333 -16.14585,-2.08333 -12.76043,0 -22.43926,2.34375 -29.03649,7.031254 -6.51043,4.687506 -9.76564,11.111125 -9.76564,19.270857 0,3.732643 0.60764,6.987856 1.82292,9.765637 1.21528,2.777781 3.25521,5.295146 6.1198,7.552093 2.95139,2.170141 6.81424,4.123269 11.58855,5.859382 4.77431,1.649307 10.7205,3.211809 17.83857,4.687506 4.16667,0.868057 8.46355,1.779516 12.89064,2.734378 4.42709,0.954862 8.72397,2.083336 12.89064,3.385421 4.25347,1.302085 8.28994,2.907989 12.10939,4.817714 3.81945,1.909725 7.11806,4.253478 9.89584,7.031259 2.86459,2.777781 5.12153,6.119798 6.77084,10.026053 1.73611,3.819449 2.60417,8.376747 2.60417,13.6718922 0,6.0763963 -1.30208,11.6753615 -3.90625,16.7968955 -2.51737,5.0347283 -6.0764,9.4184143 -10.6771,13.1510573 -4.51389,3.645838 -9.93925,6.510425 -16.27606,8.593761 -6.25001,1.99653 -13.06425,2.994795 -20.44273,2.994795 z"
           style="font-size:266.667px;fill:#ffffff;stroke:#ffffff;stroke-opacity:1"
           id="path68188"
           sodipodi:nodetypes="scccccscsscccscscccccssccscccccsccscsscccscsccscccs" />
      </g>
      <path
         style="fill:#ffffff;fill-opacity:1;fill-rule:evenodd;stroke:#ffffff;stroke-width:0.264583px;stroke-linecap:butt;stroke-linejoin:miter;stroke-opacity:1"
         d="m 358.5706,-126.31892 c 0,0 9.58804,-0.26402 18.11405,5.09144 2.90382,1.82398 4.84245,4.57323 4.84245,4.57323 l 0.31006,11.64774 -7.49308,0.0517 c 0,0 -1.13688,-8.52661 -3.20394,-11.67888 -1.46038,-2.88012 -8.39081,-9.51019 -12.56954,-9.68523 z"
         id="path65365"
         sodipodi:nodetypes="csccccc" />
      <path
         style="fill:#ffffff;fill-opacity:1;fill-rule:evenodd;stroke:#ffffff;stroke-width:0.264583px;stroke-linecap:butt;stroke-linejoin:miter;stroke-opacity:1"
         d="m 358.47723,-55.010798 c 0,0 -1.76437,4.613516 -18.11414,-3.254805 -3.08995,-1.487039 -4.84244,-2.864385 -4.84244,-2.864385 l -0.31006,-15.192862 7.27345,0.103329 c 0,0 -1.38234,3.617345 0.68471,6.76962 1.46038,2.880122 6.47879,12.094006 15.30839,14.439463 z"
         id="path67828"
         sodipodi:nodetypes="cscccccc" />
    </g>
  </g>
</svg>
