<svg width="35" height="35" viewBox="0 0 35 35" fill="none" xmlns="http://www.w3.org/2000/svg">
<path d="M26.1713 13.8037C24.5219 9.81025 20.5891 7 16 7C9.92487 7 5 11.9249 5 18C5 24.0751 9.92487 29 16 29C22.0751 29 27 24.0751 27 18C27 17.5168 26.9688 17.0408 26.9084 16.5741" stroke="white"/>
<path d="M21.3035 5.20069C19.6006 4.42889 17.7151 4 15.7313 4C8.14773 4 2 10.268 2 18C2 25.732 8.14773 32 15.7313 32C23.315 32 29.4627 25.732 29.4627 18C29.4627 16.5562 29.2483 15.1634 28.8502 13.8529M27.0877 10.1275C27.3535 10.5254 27.5998 10.9379 27.825 11.3637M23.3333 6.51594C23.3333 6.51594 24.9254 7.48986 26 9.07246M28.8502 13.8529L34 8.34202L32.209 6.51593L27.825 11.3637M28.8502 13.8529L24.3682 18.6493L21.0249 15.3623L22.6169 13.7391L24.209 15.3623L27.825 11.3637" stroke="white" stroke-linecap="round" stroke-linejoin="round"/>
<path d="M15.5 12L17.6013 15.6078L21.6819 16.4914L18.9 19.6047L19.3206 23.7586L15.5 22.075L11.6794 23.7586L12.1 19.6047L9.31813 16.4914L13.3987 15.6078L15.5 12Z" stroke="white" stroke-linecap="round" stroke-linejoin="round"/>
</svg>
