<?xml version="1.0" encoding="UTF-8" standalone="no"?>
<!-- Created with Inkscape (http://www.inkscape.org/) -->

<svg
   width="1920"
   height="1920"
   viewBox="0 0 507.99999 508.00001"
   version="1.1"
   id="svg5"
   inkscape:version="1.1 (c68e22c387, 2021-05-23)"
   sodipodi:docname="Star.svg"
   xmlns:inkscape="http://www.inkscape.org/namespaces/inkscape"
   xmlns:sodipodi="http://sodipodi.sourceforge.net/DTD/sodipodi-0.dtd"
   xmlns="http://www.w3.org/2000/svg"
   xmlns:svg="http://www.w3.org/2000/svg">
  <sodipodi:namedview
     id="namedview7"
     pagecolor="#ffffff"
     bordercolor="#666666"
     borderopacity="1.0"
     inkscape:pageshadow="2"
     inkscape:pageopacity="0.0"
     inkscape:pagecheckerboard="0"
     inkscape:document-units="mm"
     showgrid="false"
     units="px"
     inkscape:zoom="0.33540614"
     inkscape:cx="107.33256"
     inkscape:cy="500.88528"
     inkscape:window-width="2560"
     inkscape:window-height="1346"
     inkscape:window-x="-11"
     inkscape:window-y="-11"
     inkscape:window-maximized="1"
     inkscape:current-layer="layer1" />
  <defs
     id="defs2" />
  <g
     inkscape:label="Warstwa 1"
     inkscape:groupmode="layer"
     id="layer1">
    <path
       style="fill:#fbfbfb;stroke-width:0.264454;fill-opacity:1"
       d="M 241.57041,507.56882 C 190.80565,505.10124 142.34801,487.59765 101.53952,456.9878 85.419962,444.89673 69.196852,429.23324 56.534352,413.53511 c -9.751,-12.08873 -17.94039,-24.29131 -25.29512,-37.69099 -41.47592,-75.56553 -41.47592,-168.14299 0,-243.70852 11.81184,-21.52015 25.67213,-39.949015 43.31156,-57.587745 17.63944,-17.63873 36.069038,-31.49849 57.590058,-43.30986 75.56858,-41.47427 168.14971,-41.47427 243.71826,0 21.52102,11.81137 39.95065,25.67113 57.59009,43.30986 17.6394,17.63873 31.49972,36.067595 43.31156,57.587745 41.47593,75.56553 41.47593,168.14299 0,243.70852 -11.81184,21.52016 -25.67216,39.94905 -43.31156,57.58775 -17.63944,17.63874 -36.06907,31.4985 -57.59009,43.30986 -40.74858,22.36404 -87.51879,33.10052 -134.2887,30.82709 z m 28.29711,-62.50015 c 36.67197,-3.23166 70.15032,-15.96527 99.14088,-37.70856 28.49708,-21.37314 50.59348,-50.43004 63.64099,-83.68816 5.52592,-14.08562 9.49196,-29.58319 11.47125,-44.82475 1.17875,-9.07717 1.44772,-13.69534 1.44772,-24.85732 0,-11.16202 -0.26893,-15.78019 -1.44772,-24.85733 -4.2401,-32.65112 -16.88192,-63.66589 -36.74428,-90.14651 -21.374,-28.49591 -50.43205,-50.591445 -83.69148,-63.638435 -14.0862,-5.52571 -29.5844,-9.49159 -44.82657,-11.47076 -9.0775,-1.17871 -13.69589,-1.4477 -24.85831,-1.4477 -11.16243,0 -15.78082,0.26892 -24.85832,1.4477 -32.65243,4.23989 -63.66844,16.88121 -90.15012,36.742805 -28.49704,21.37311 -50.593478,50.43 -63.640948,83.68813 -5.52593,14.08561 -9.49197,29.58322 -11.47126,44.82477 -1.17875,9.07714 -1.44772,13.69531 -1.44772,24.85733 0,11.16198 0.26894,15.78015 1.44772,24.85732 4.2401,32.65109 16.88189,63.66587 36.744288,90.14649 25.33409,33.77557 61.30324,58.38546 101.84973,69.685 13.62223,3.79628 27.69157,6.06178 42.66724,6.87055 4.11219,0.22208 20.33045,-0.0931 24.72691,-0.48057 z m -23.80129,-21.32319 c -33.69462,-1.4824 -66.48402,-13.24114 -93.78428,-33.63231 -6.59152,-4.92339 -11.71017,-9.39716 -18.36169,-16.04839 -6.65149,-6.65126 -11.12545,-11.76967 -16.049,-18.36096 -30.864208,-41.3185 -41.255878,-93.94217 -28.462178,-144.13335 5.38355,-21.1203 15.159128,-41.48555 28.462178,-59.29457 4.92355,-6.59129 9.39751,-11.7097 16.049,-18.36096 6.65152,-6.65122 11.77017,-11.125 18.36169,-16.04836 36.27388,-27.093795 81.08992,-38.462675 126.31271,-32.042805 27.52753,3.90782 54.40746,15.075765 77.12335,32.042805 6.59155,4.92336 11.7102,9.39714 18.36169,16.04836 6.65152,6.65126 11.12545,11.76967 16.04903,18.36096 30.86421,41.31851 41.25585,93.94217 28.46215,144.13336 -6.2091,24.35901 -17.86177,46.9331 -34.63465,67.09579 -4.34688,5.22536 -15.21111,16.08915 -20.43668,20.43587 -29.65937,24.67098 -64.23092,38.11349 -102.40316,39.81749 -6.50312,0.29048 -8.19023,0.28892 -15.05016,-0.0125 z m -28.19877,-77.02825 36.13357,-19.00198 36.27362,19.06888 c 19.95048,10.48786 36.31211,19.03037 36.35919,18.98333 0.0472,-0.0472 -3.01221,-18.1545 -6.79833,-40.23878 -3.78612,-22.08427 -6.84902,-40.30986 -6.80642,-40.50132 0.0425,-0.19147 6.22344,-6.33102 13.73522,-13.64337 48.49049,-47.20313 44.95413,-43.6888 44.1769,-43.90131 -0.39138,-0.10714 -18.44356,-2.75566 -40.11594,-5.88584 -21.67242,-3.13021 -39.64485,-5.74534 -39.93884,-5.81143 -0.41287,-0.0928 -4.64834,-8.45493 -18.61754,-36.75643 C 262.32317,158.87903 254.10217,142.39273 254,142.39273 c -0.10214,0 -8.32321,16.4863 -18.2689,36.63625 -13.9692,28.3015 -18.20467,36.66357 -18.61757,36.75643 -0.29392,0.0662 -18.26642,2.68122 -39.93881,5.81143 -21.67238,3.13018 -39.72459,5.77883 -40.11597,5.88584 -0.7772,0.21239 -4.31359,-3.30182 44.1769,43.90131 7.51181,7.31235 13.69274,13.45228 13.73541,13.64421 0.0603,0.2708 -12.94259,76.88301 -13.59944,80.12735 -0.09,0.44481 -0.0469,0.71826 0.10433,0.6611 0.14181,-0.0537 16.51803,-8.64833 36.39151,-19.09942 z"
       id="path3609" />
  </g>
</svg>
