<?xml version="1.0" encoding="UTF-8" standalone="no"?>
<!-- Created with Inkscape (http://www.inkscape.org/) -->

<svg
   width="1920"
   height="870"
   viewBox="0 0 507.99999 230.1875"
   version="1.1"
   id="svg5"
   inkscape:version="1.1 (c68e22c387, 2021-05-23)"
   sodipodi:docname="strzałki.svg"
   xmlns:inkscape="http://www.inkscape.org/namespaces/inkscape"
   xmlns:sodipodi="http://sodipodi.sourceforge.net/DTD/sodipodi-0.dtd"
   xmlns="http://www.w3.org/2000/svg"
   xmlns:svg="http://www.w3.org/2000/svg">
  <sodipodi:namedview
     id="namedview7"
     pagecolor="#ffffff"
     bordercolor="#666666"
     borderopacity="1.0"
     inkscape:pageshadow="2"
     inkscape:pageopacity="0.0"
     inkscape:pagecheckerboard="0"
     inkscape:document-units="mm"
     showgrid="false"
     units="px"
     width="1920px"
     inkscape:zoom="0.35355339"
     inkscape:cx="605.2834"
     inkscape:cy="93.338095"
     inkscape:window-width="2560"
     inkscape:window-height="1346"
     inkscape:window-x="-11"
     inkscape:window-y="-11"
     inkscape:window-maximized="1"
     inkscape:current-layer="layer1" />
  <defs
     id="defs2">
    <rect
       x="842.96875"
       y="-494.53125"
       width="1366.7998"
       height="1122.1615"
       id="rect25933" />
  </defs>
  <g
     inkscape:label="Warstwa 1"
     inkscape:groupmode="layer"
     id="layer1">
    <g
       id="g108239"
       transform="matrix(2.1706491,0,0,2.1706491,-297.34486,-436.25111)"
       style="fill:#ffffff">
      <path
         style="fill:#ffffff;fill-opacity:1;stroke-width:0.0292111"
         d="m 161.38951,287.30186 c -13.30844,-10.69739 -24.20903,-19.46169 -24.22357,-19.47623 -0.0158,-0.0158 9.74713,-7.88213 24.19368,-19.49383 13.32105,-10.70708 24.2315,-19.47179 24.24545,-19.47715 0.0143,-0.005 0.0253,4.83274 0.0253,11.1075 v 11.11723 h 8.95114 8.95113 l 0.0117,2.28577 c 0.011,2.16129 0.015,2.30693 0.074,2.67452 0.26039,1.62324 0.98083,3.018 2.13236,4.12821 1.08023,1.04148 2.33986,1.66396 3.93506,1.94462 0.27781,0.0489 2.47546,0.0518 44.89058,0.0593 l 44.59848,0.008 -0.009,7.98183 c -0.008,7.43777 -0.0123,8.00172 -0.0597,8.27393 -0.27246,1.56167 -0.90809,2.8378 -1.94782,3.91059 -1.15816,1.19498 -2.63436,1.93304 -4.27177,2.13575 -0.31708,0.0392 -6.28943,0.0442 -53.80644,0.0442 h -53.44977 v 11.11481 c 0,6.11314 -0.0102,11.1139 -0.0219,11.11281 -0.0121,-10e-4 -10.91062,-8.75439 -24.21902,-19.45178 z m 160.9486,-19.26539 v -11.11472 l -53.62418,-0.008 -53.62416,-0.008 -0.33592,-0.0654 c -0.7294,-0.14195 -1.29972,-0.32535 -1.88412,-0.6059 -1.92352,-0.9234 -3.35861,-2.68505 -3.86687,-4.74682 -0.21017,-0.85253 -0.19347,0.12161 -0.19347,-11.28888 0,-9.71067 0.003,-10.27085 0.0524,-10.589 0.32397,-2.07967 1.44954,-3.83799 3.1901,-4.98341 0.81529,-0.53653 1.64553,-0.86067 2.74584,-1.07206 l 0.32132,-0.0617 53.60957,-0.008 53.60956,-0.008 v -11.11559 c 0,-6.1131 0.007,-11.11472 0.0153,-11.11472 0.0107,0 47.7892,38.38987 48.41219,38.89904 l 0.0684,0.056 -24.23198,19.47542 c -13.32761,10.71148 -24.23917,19.47541 -24.24793,19.47541 -0.009,0 -0.0159,-5.00162 -0.0159,-11.11472 z"
         id="path94717" />
    </g>
  </g>
</svg>