<?xml version="1.0" encoding="UTF-8" standalone="no"?>
<!-- Created with Inkscape (http://www.inkscape.org/) -->

<svg
   width="1841.948"
   height="1925"
   viewBox="0 0 487.34873 509.32293"
   version="1.1"
   id="svg5"
   inkscape:version="1.1 (c68e22c387, 2021-05-23)"
   sodipodi:docname="Strzałki.svg"
   xmlns:inkscape="http://www.inkscape.org/namespaces/inkscape"
   xmlns:sodipodi="http://sodipodi.sourceforge.net/DTD/sodipodi-0.dtd"
   xmlns="http://www.w3.org/2000/svg"
   xmlns:svg="http://www.w3.org/2000/svg">
  <sodipodi:namedview
     id="namedview7"
     pagecolor="#ffffff"
     bordercolor="#666666"
     borderopacity="1.0"
     inkscape:pageshadow="2"
     inkscape:pageopacity="0.0"
     inkscape:pagecheckerboard="0"
     inkscape:document-units="mm"
     showgrid="false"
     units="px"
     height="1925px"
     width="1841.948px"
     inkscape:zoom="0.33540614"
     inkscape:cx="843.75318"
     inkscape:cy="885.49362"
     inkscape:window-width="2560"
     inkscape:window-height="1346"
     inkscape:window-x="-11"
     inkscape:window-y="-11"
     inkscape:window-maximized="1"
     inkscape:current-layer="layer1" />
  <defs
     id="defs2" />
  <g
     inkscape:label="Warstwa 1"
     inkscape:groupmode="layer"
     id="layer1">
    <path
       style="fill:#fbfbfb;stroke-width:0.757646;fill-opacity:1"
       d="m 305.61057,448.42941 -60.22842,-60.23203 10.7943,-10.79427 10.79421,-10.79428 42.04896,42.04382 42.04895,42.04381 V 297.84408 144.9917 h 15.15288 15.15297 v 152.66553 c 0,83.96604 0.25682,152.66553 0.57092,152.66553 0.31409,0 19.31861,-18.7501 42.23258,-41.66689 l 41.66166,-41.66687 10.42383,10.40386 c 5.73308,5.72213 10.42383,10.73736 10.42383,11.14497 0,0.98607 -119.09523,120.12363 -120.081,120.12363 -0.42148,0 -27.86977,-27.10443 -60.99549,-60.23205 z M 106.7948,352.77966 c -0.24519,-0.2451 -0.44564,-66.44492 -0.44564,-147.11064 V 59.004087 L 64.300214,101.0479 22.251258,143.09171 11.456418,132.29684 0.66149757,121.50197 61.081778,61.081707 121.50204,0.66146033 l 60.3937,60.39366667 60.39361,60.393673 -5.27491,5.52088 c -2.90131,3.03648 -7.75895,7.89417 -10.79493,10.79487 l -5.51983,5.274 -41.45665,-41.45156 c -22.80122,-22.798363 -41.71044,-41.451563 -42.0205,-41.451563 -0.30962,0 -0.64967,65.886733 -0.75526,146.414953 l -0.1915,146.41496 -14.5178,0.13002 c -7.98481,0.0716 -14.71833,-0.0707 -14.96352,-0.3157 z"
       id="path836" />
  </g>
</svg>
