<?xml version="1.0" encoding="UTF-8" standalone="no"?>
<!-- Created with Inkscape (http://www.inkscape.org/) -->

<svg
   width="1920"
   height="1920"
   viewBox="0 0 507.99999 508.00001"
   version="1.1"
   id="svg5"
   inkscape:version="1.1 (c68e22c387, 2021-05-23)"
   sodipodi:docname="Telegram.svg"
   xmlns:inkscape="http://www.inkscape.org/namespaces/inkscape"
   xmlns:sodipodi="http://sodipodi.sourceforge.net/DTD/sodipodi-0.dtd"
   xmlns="http://www.w3.org/2000/svg"
   xmlns:svg="http://www.w3.org/2000/svg">
  <sodipodi:namedview
     id="namedview7"
     pagecolor="#ffffff"
     bordercolor="#666666"
     borderopacity="1.0"
     inkscape:pageshadow="2"
     inkscape:pageopacity="0.0"
     inkscape:pagecheckerboard="0"
     inkscape:document-units="mm"
     showgrid="false"
     units="px"
     inkscape:zoom="0.23716796"
     inkscape:cx="501.75412"
     inkscape:cy="973.99328"
     inkscape:window-width="2560"
     inkscape:window-height="1346"
     inkscape:window-x="-11"
     inkscape:window-y="-11"
     inkscape:window-maximized="1"
     inkscape:current-layer="layer1" />
  <defs
     id="defs2" />
  <g
     inkscape:label="Warstwa 1"
     inkscape:groupmode="layer"
     id="layer1">
    <g
       id="g1149"
       transform="translate(46.928401,300.14741)">
      <path
         id="path2989"
         style="fill:#ffffff;stroke-width:1.2786"
         d="m 779.60938,-1133.334 c -21.15557,-0.07 -41.33126,0.414 -57.83204,1.5059 -109.3833,7.2385 -213.70124,32.0152 -315.42382,74.916 -28.10646,11.8536 -82.63426,39.2349 -108.94922,54.709 -126.9774,74.66715 -233.437025,175.52091 -314.568362,297.99998 -22.961002,34.66287 -36.373976,57.82562 -56.265626,97.17382 -59.176822,117.05692 -92.739312,240.00981 -101.531252,371.94922 -1.74501,26.18752 -1.74501,95.52151 0,121.70899 8.78854,131.887782 42.37787,254.93994 101.531252,371.95117 19.89165,39.34817 33.304624,62.51095 56.265626,97.17383 81.131337,122.47909 187.590962,223.33278 314.568362,298 26.34028,15.48907 80.91685,42.89094 108.68164,54.56836 101.75584,42.79668 205.23772,67.56758 313.25586,74.98437 22.88882,1.5727 100.90802,1.61346 124.14648,0.0644 131.88767,-8.78861 254.93802,-42.3797 371.94922,-101.5332 39.3483,-19.89199 62.511,-33.30255 97.1738,-56.26367 122.4949,-81.14181 223.323,-187.57469 298,-314.56836 15.5301,-26.41039 42.8678,-80.87563 54.8262,-109.22852 42.867,-101.63762 67.4696,-205.3050943 74.7891,-315.14648 1.745,-26.18752 1.745,-95.52147 0,-121.70898 -7.3195,-109.84143 -31.9221,-213.50692 -74.7891,-315.14454 -11.9584,-28.35288 -39.2961,-82.81808 -54.8262,-109.22851 -155.2569,-264.02729 -424.8558,-437.40818 -729.52732,-469.16598 -28.23329,-2.943 -66.21528,-4.5998 -101.4746,-4.7168 z m 473.84182,533.03908 c 4.4889,0.22232 7.5183,1.29764 10.957,3.64453 8.1685,5.57507 10.2022,14.96424 6.9219,31.96875 -0.8576,4.44506 -43.6959,212.58971 -95.1953,462.54297 -65.2969,316.91895 -94.108,455.59012 -95.1973,458.1914 -3.3566,8.01537 -8.6861,13.85059 -13.8496,15.16602 -3.1536,0.80341 -9.6841,1.09046 -13.793,0.60547 -1.8806,-0.22212 -4.4576,-0.85284 -5.7265,-1.40234 -1.269,-0.54944 -61.47118,-44.47221 -133.78129,-97.60547 -72.31011,-53.13334 -133.93918,-98.00479 -136.95313,-99.71485 -6.23278,-3.5362 -18.08942,-6.99204 -23.8789,-6.95898 -4.89048,0.028 -12.22427,1.07551 -15.76758,2.25195 -7.00233,2.32482 -16.95344,9.97412 -86.50586,66.49805 -38.60334,31.37224 -71.80486,58.23336 -73.78125,59.68945 -1.97647,1.4561 -5.11807,3.39153 -6.98047,4.30274 -3.19154,1.56143 -3.80646,1.64417 -10.70508,1.43554 -6.51715,-0.1971 -7.70995,-0.4127 -10.88672,-1.97265 -5.83324,-2.86447 -10.22589,-9.43848 -14.4082,-21.5625 -1.23851,-3.59031 -23.91201,-76.74013 -50.38476,-162.55469 -26.47284,-85.814537 -48.52966,-156.313376 -49.01563,-156.666017 -0.48582,-0.35263 -61.09712,-23.298569 -134.69141,-50.990234 l -133.80664,-50.347659 -3.68359,-3.33398 c -2.02593,-1.83338 -4.37009,-4.50413 -5.20898,-5.93555 -1.69242,-2.88793 -3.42969,-10.17768 -3.42969,-14.39062 0,-3.63437 2.1924,-9.54925 4.26562,-11.50586 1.57721,-1.48854 15.7958,-7.76891 46.0918,-20.36328 7.35154,-3.05613 243.82576,-94.43977 525.5,-203.07422 l 512.13676,-197.51758 6.7128,-0.35352 c 1.89,-0.0997 3.5487,-0.12098 5.045,-0.0469 z m -224.6328,189.56836 c -2.1259,0.11431 -4.3435,0.56851 -6.6094,1.36133 -5.9785,2.09181 -509.10316,312.01869 -517.19728,318.595699 -9.91087,8.053198 -16.44489,16.628254 -19.6211,25.748047 -0.51182,1.469695 -1.38241,5.888073 -1.93554,9.820312 -1.17249,8.335578 -0.89211,13.219546 1.27148,22.138672 1.8401,7.585691 55.32012,196.62945 56.64258,200.22266 1.47141,3.99801 5.37064,8.03258 8.83008,9.13672 4.55716,1.45446 5.14329,1.53394 9.65234,1.31054 2.70554,-0.13406 5.23086,-0.69762 7.02149,-1.56445 3.5097,-1.69903 8.51301,-7.729 9.41015,-11.3418 0.35792,-1.44014 1.52147,-5.83534 2.58594,-9.76758 1.3392,-4.94678 3.08063,-15.48166 5.6543,-34.19336 11.30604,-82.19964 10.62866,-78.594797 17.29492,-91.976558 4.14236,-8.315263 8.00458,-12.843996 26.3125,-30.857422 6.28305,-6.1819442 101.92765,-95.667868 212.54297,-198.85742 159.26933,-148.57717 201.29147,-188.08787 201.94527,-189.87891 1.277,-3.49791 1.5954,-8.3342 0.7247,-10.97265 -1.0451,-3.16642 -5.2791,-7.29337 -8.461,-8.24415 -1.9031,-0.56866 -3.9385,-0.794 -6.0644,-0.67968 z"
         transform="scale(0.26458333)" />
    </g>
  </g>
  <style
     type="text/css"
     id="style7210">
	.st0{fill:#FFFFFF;}
	.st1{fill-rule:evenodd;clip-rule:evenodd;}
</style>
  <style
     type="text/css"
     id="style7210-0">
	.st0{fill:#FFFFFF;}
	.st1{fill-rule:evenodd;clip-rule:evenodd;}
</style>
  <style
     type="text/css"
     id="style7210-2">
	.st0{fill:#FFFFFF;}
	.st1{fill-rule:evenodd;clip-rule:evenodd;}
</style>
</svg>
