<svg width="20" height="17" viewBox="0 0 20 17" fill="none" xmlns="http://www.w3.org/2000/svg">
<path d="M6.17527 16.5C13.5852 16.5 17.6382 10.3437 17.6382 5.00523C17.6382 4.83042 17.6382 4.65626 17.6265 4.48298C18.415 3.91107 19.0955 3.20306 19.6364 2.39179C18.9011 2.71845 18.1211 2.93286 17.3223 3.02738C18.1634 2.52241 18.7929 1.72842 19.0935 0.792878C18.3026 1.26349 17.4375 1.59518 16.5353 1.77349C15.0096 0.146574 12.4574 0.0680287 10.835 1.59802C9.78862 2.58476 9.34483 4.05503 9.66949 5.45813C6.43054 5.29513 3.4124 3.76098 1.36671 1.23702C0.297385 3.08295 0.8435 5.44456 2.61407 6.62996C1.97282 6.61093 1.34576 6.43743 0.785463 6.12434C0.785463 6.14097 0.785463 6.15825 0.785463 6.17554C0.7859 8.0987 2.13777 9.75494 4.01764 10.1358C3.42462 10.298 2.80214 10.3218 2.19842 10.2052C2.72621 11.8509 4.23867 12.9784 5.96232 13.0107C4.53561 14.1351 2.77334 14.7453 0.95892 14.7436C0.638407 14.7429 0.318331 14.7234 0 14.6851C1.84235 15.8708 3.98623 16.4996 6.17527 16.4967" fill="#FBFBFB"/>
</svg>
