<svg width="45" height="45" viewBox="0 0 45 45" fill="none" xmlns="http://www.w3.org/2000/svg">
<path fill-rule="evenodd" clip-rule="evenodd" d="M45.0003 12.3556C45.0003 5.53188 39.4684 0 32.6446 0H12.3556C5.53188 0 0 5.53188 0 12.3556V32.6446C0 39.4684 5.53188 45.0003 12.3556 45.0003H32.6446C39.4684 45.0003 45.0003 39.4684 45.0003 32.6446V12.3556ZM43.6994 12.3556V32.6446C43.6994 38.7501 38.7501 43.6994 32.6446 43.6994H12.3556C6.25019 43.6994 1.30083 38.7501 1.30083 32.6446V12.3556C1.30083 6.25019 6.25019 1.30084 12.3556 1.30084H32.6446C38.7501 1.30084 43.6994 6.25019 43.6994 12.3556ZM21.5165 17.7896C21.5001 17.5863 21.4927 17.3791 21.4927 17.1684C21.4927 13.5979 24.3815 10.6861 27.9696 10.6861C29.686 10.6861 31.2693 11.3615 32.4386 12.4711C33.5651 12.2113 34.6248 11.7887 35.5932 11.2112C35.825 11.0731 36.1184 11.0926 36.3298 11.2604C36.5417 11.4282 36.6275 11.7091 36.546 11.9666C36.3337 12.6358 36.0161 13.255 35.6123 13.8067C35.8995 13.7084 36.1819 13.5979 36.4594 13.4762C36.7243 13.3603 37.0341 13.4329 37.2194 13.6549C37.4051 13.8765 37.4215 14.1945 37.2604 14.4345C36.4902 15.5812 35.5585 16.589 34.4625 17.4181C34.4671 17.5609 34.4699 17.7057 34.4699 17.8528C34.4699 25.8587 28.3742 35.0945 17.2246 35.0945C13.7934 35.0945 10.6119 34.1054 7.92716 32.3742C7.67199 32.2096 7.56467 31.8904 7.66885 31.6048C7.77302 31.3196 8.06099 31.1444 8.3622 31.1827C8.79373 31.2381 9.22526 31.2576 9.67513 31.2576C11.6748 31.2576 13.5562 30.7254 15.1746 29.8011C13.1258 29.1877 11.5008 27.5868 10.8382 25.5614C10.7657 25.3398 10.8176 25.096 10.9744 24.9227C11.0739 24.8131 11.2054 24.7425 11.347 24.7187C9.78398 23.5337 8.76719 21.6566 8.76719 19.5379V19.4739C8.76719 19.2441 8.88853 19.0311 9.08635 18.914C9.28455 18.797 9.5296 18.7935 9.73093 18.9043C9.80506 18.9449 9.88075 18.9843 9.95762 19.0213C9.23736 17.9772 8.81167 16.7088 8.81167 15.3463C8.81167 14.1528 9.13825 13.0435 9.69659 12.0743C9.8035 11.889 9.99468 11.768 10.2077 11.7508C10.4211 11.7341 10.6291 11.8226 10.7641 11.9885C13.374 15.1941 17.186 17.3619 21.5165 17.7896ZM34.4235 13.2206C33.7602 13.4766 33.0692 13.6767 32.3559 13.8192C32.1359 13.8629 31.9084 13.7903 31.7547 13.6264C30.8038 12.6139 29.4483 11.9865 27.9696 11.9865C25.1018 11.9865 22.7931 14.3147 22.7931 17.1684C22.7931 17.5804 22.8267 17.9769 22.9121 18.3542C22.957 18.5524 22.9067 18.7603 22.776 18.916C22.6453 19.0717 22.4494 19.1575 22.2461 19.1474C17.5703 18.9195 13.3935 16.8235 10.4235 13.5819C10.2229 14.1336 10.1121 14.7255 10.1121 15.3463C10.1121 17.1403 11.036 18.7307 12.413 19.6515C12.6533 19.8118 12.7587 20.1115 12.672 20.387C12.5858 20.662 12.3279 20.8477 12.0396 20.8423C11.3942 20.8298 10.7563 20.71 10.1586 20.5075C10.5499 22.5789 12.1738 24.2114 14.2191 24.6297C14.5141 24.6902 14.729 24.945 14.7388 25.2458C14.7485 25.5466 14.5507 25.8146 14.2605 25.8942C13.7326 26.0386 13.157 26.1092 12.5601 26.1092L12.4945 26.1085C13.3732 27.6621 15.0189 28.73 16.9183 28.771C17.1934 28.7769 17.4349 28.9552 17.5215 29.2158C17.6081 29.4768 17.5215 29.764 17.305 29.9333C15.5141 31.3344 13.3096 32.2591 10.9077 32.4972C12.8429 33.3349 14.9756 33.7941 17.2246 33.7941C27.5334 33.7941 33.1694 25.2548 33.1694 17.8528C33.1694 17.6062 33.1608 17.3682 33.1487 17.1317C33.1378 16.9097 33.2408 16.6975 33.4219 16.5687C33.9201 16.2152 34.3821 15.8215 34.8078 15.3916C34.3606 15.4969 33.9053 15.5788 33.4429 15.6378C33.1374 15.6768 32.8467 15.4957 32.7465 15.2047C32.6458 14.9136 32.7633 14.5921 33.0278 14.4345C33.5635 14.1141 34.0364 13.7033 34.4235 13.2206Z" fill="#8DA9C4"/>
</svg>
