<?xml version="1.0" encoding="UTF-8" standalone="no"?>
<!-- Created with Inkscape (http://www.inkscape.org/) -->

<svg
   width="1920"
   height="1920"
   viewBox="0 0 507.99999 508.00001"
   version="1.1"
   id="svg5"
   inkscape:version="1.1 (c68e22c387, 2021-05-23)"
   sodipodi:docname="Twitter.svg"
   xmlns:inkscape="http://www.inkscape.org/namespaces/inkscape"
   xmlns:sodipodi="http://sodipodi.sourceforge.net/DTD/sodipodi-0.dtd"
   xmlns="http://www.w3.org/2000/svg"
   xmlns:svg="http://www.w3.org/2000/svg">
  <sodipodi:namedview
     id="namedview7"
     pagecolor="#ffffff"
     bordercolor="#666666"
     borderopacity="1.0"
     inkscape:pageshadow="2"
     inkscape:pageopacity="0.0"
     inkscape:pagecheckerboard="0"
     inkscape:document-units="mm"
     showgrid="false"
     units="px"
     inkscape:zoom="0.33540614"
     inkscape:cx="742.38354"
     inkscape:cy="861.64194"
     inkscape:window-width="2560"
     inkscape:window-height="1346"
     inkscape:window-x="-11"
     inkscape:window-y="-11"
     inkscape:window-maximized="1"
     inkscape:current-layer="layer1" />
  <defs
     id="defs2" />
  <g
     inkscape:label="Warstwa 1"
     inkscape:groupmode="layer"
     id="layer1">
    <path
       id="path2989"
       style="fill:#ffffff;stroke-width:1.2786"
       d="M 956.97656 1.0820312 C 935.82098 1.0118517 915.64529 1.4959539 899.14453 2.5878906 C 789.76122 9.8263513 685.44329 34.603087 583.7207 77.503906 C 555.61425 89.357518 501.08645 116.73882 474.77148 132.21289 C 347.79409 206.88007 241.33446 307.73381 160.20312 430.21289 C 137.24212 464.87577 123.82915 488.03851 103.9375 527.38672 C 44.760681 644.44364 11.198187 767.39652 2.40625 899.33594 C 0.66124213 925.52345 0.66124213 994.85741 2.40625 1021.0449 C 11.194785 1152.9327 44.784114 1275.9849 103.9375 1392.9961 C 123.82915 1432.3443 137.24212 1455.507 160.20312 1490.1699 C 241.33446 1612.649 347.79409 1713.5027 474.77148 1788.1699 C 501.11177 1803.659 555.68834 1831.0609 583.45312 1842.7383 C 685.20897 1885.535 788.69084 1910.3059 896.70898 1917.7227 L 896.70898 1917.7207 C 919.5978 1919.2934 997.61704 1919.3336 1020.8555 1917.7852 C 1152.7432 1908.9966 1275.7935 1875.4055 1392.8047 1816.252 C 1432.153 1796.36 1455.3157 1782.9494 1489.9785 1759.9883 C 1612.4734 1678.8465 1713.3015 1572.4136 1787.9785 1445.4199 C 1803.5086 1419.0095 1830.8463 1364.5443 1842.8047 1336.1914 C 1885.6717 1234.5538 1910.2743 1130.8863 1917.5938 1021.0449 C 1919.3388 994.85741 1919.3388 925.52345 1917.5938 899.33594 C 1910.2743 789.49451 1885.6717 685.82903 1842.8047 584.19141 C 1830.8463 555.83856 1803.5086 501.37332 1787.9785 474.96289 C 1632.7216 210.93699 1363.1227 37.556762 1058.4512 5.7988281 C 1030.2179 2.8558871 992.23586 1.1989971 956.97656 1.0820312 z M 1255.8867 487.03906 C 1330.2007 487.03906 1397.3479 518.41052 1444.4727 568.62695 C 1503.3279 557.04092 1558.6202 535.54312 1608.5469 505.92969 C 1589.2599 566.26486 1548.2867 616.89625 1494.9473 648.87109 C 1547.2038 642.62474 1597.0046 628.74196 1643.3359 608.18945 C 1608.6976 660.00515 1564.8964 705.50546 1514.4219 741.92578 C 1514.9214 753.01423 1515.1719 764.15168 1515.1719 775.35352 C 1515.1719 1116.7873 1255.2877 1510.4785 780.05469 1510.4785 C 634.14697 1510.4785 498.33856 1467.7054 383.99609 1394.3926 C 404.20859 1396.7792 424.77419 1398.0059 445.62891 1398.0059 C 566.68362 1398.0059 678.08466 1356.7002 766.50977 1287.3984 C 653.44561 1285.3205 558.03168 1210.6215 525.15039 1107.9785 C 540.92996 1110.9883 557.11125 1112.6133 573.75977 1112.6133 C 597.32198 1112.6133 620.1486 1109.459 641.82812 1103.5527 C 523.63251 1079.8015 434.57031 975.3821 434.57031 850.20312 C 434.57031 849.11375 434.5712 848.0319 434.59766 846.95508 C 469.43137 866.3049 509.27144 877.92825 551.62305 879.26953 C 482.29616 832.93823 436.68164 753.85699 436.68164 664.2168 C 436.68164 616.86533 449.42618 572.48631 471.66602 534.32812 C 599.09936 690.6444 789.47586 793.50756 1004.207 804.28125 C 999.80018 785.37216 997.51172 765.65065 997.51172 745.40039 C 997.51172 602.7165 1113.2028 487.03906 1255.8867 487.03906 z "
       transform="scale(0.26458333)" />
  </g>
  <style
     type="text/css"
     id="style7210">
	.st0{fill:#FFFFFF;}
	.st1{fill-rule:evenodd;clip-rule:evenodd;}
</style>
</svg>
