<svg width="220" height="220" viewBox="0 0 220 220" fill="none" xmlns="http://www.w3.org/2000/svg">
<g filter="url(#filter0_d)">
<path fill-rule="evenodd" clip-rule="evenodd" d="M95.0541 99.303H124.717V60.2254H139.548L109.885 18L80.2232 60.2254L95.0541 60.2254V99.303Z" fill="white"/>
<path fill-rule="evenodd" clip-rule="evenodd" d="M68.17 93.4034C38.2127 93.7435 14 118.167 14 148.2C14 178.236 38.2173 202.661 68.1707 202.996L68.1677 203H76.4838L76.2687 202.494C102.988 198.845 123.6 175.91 123.6 148.2C123.6 120.692 103.289 97.8906 76.8587 93.9889L77.2435 93.3996H68.1677L68.17 93.4034Z" fill="url(#paint0_linear)"/>
<path d="M76.4694 93.3997C106.735 93.3997 131.27 117.935 131.27 148.2C131.27 178.465 106.735 203 76.4694 203C46.2041 203 21.6692 178.465 21.6692 148.2C21.6692 117.935 46.2041 93.3997 76.4694 93.3997Z" fill="url(#paint1_linear)"/>
<path fill-rule="evenodd" clip-rule="evenodd" d="M76.4826 190.564C99.8635 190.564 118.846 171.582 118.846 148.201C118.846 124.82 99.8635 105.838 76.4826 105.838C53.1023 105.838 34.1196 124.82 34.1196 148.201C34.1196 171.582 53.1023 190.564 76.4826 190.564ZM76.4826 187.408C54.8437 187.408 37.276 169.84 37.276 148.201C37.276 126.562 54.8437 108.994 76.4826 108.994C98.1216 108.994 115.69 126.562 115.69 148.201C115.69 169.84 98.1216 187.408 76.4826 187.408Z" fill="#35B7D4"/>
<path fill-rule="evenodd" clip-rule="evenodd" d="M103.06 93.4034C73.1029 93.7435 48.8901 118.167 48.8901 148.2C48.8901 178.236 73.1074 202.661 103.061 202.996L103.058 203H111.374L111.159 202.494C137.878 198.845 158.49 175.91 158.49 148.2C158.49 120.692 138.179 97.8906 111.749 93.9889L112.134 93.3996H103.058L103.06 93.4034Z" fill="url(#paint2_linear)"/>
<path d="M111.36 93.3997C141.625 93.3997 166.16 117.935 166.16 148.2C166.16 178.465 141.625 203 111.36 203C81.0945 203 56.5596 178.465 56.5596 148.2C56.5596 117.935 81.0945 93.3997 111.36 93.3997Z" fill="url(#paint3_linear)"/>
<path fill-rule="evenodd" clip-rule="evenodd" d="M111.373 190.564C134.754 190.564 153.736 171.582 153.736 148.201C153.736 124.82 134.754 105.838 111.373 105.838C87.9929 105.838 69.0103 124.82 69.0103 148.201C69.0103 171.582 87.9929 190.564 111.373 190.564ZM111.373 187.408C89.7343 187.408 72.1666 169.84 72.1666 148.201C72.1666 126.562 89.7343 108.994 111.373 108.994C133.012 108.994 150.58 126.562 150.58 148.201C150.58 169.84 133.012 187.408 111.373 187.408Z" fill="#35B7D4"/>
<path fill-rule="evenodd" clip-rule="evenodd" d="M142.59 93.4034C112.632 93.7435 88.4197 118.167 88.4197 148.2C88.4197 178.236 112.637 202.661 142.59 202.996L142.587 203H150.903L150.688 202.494C177.408 198.845 198.019 175.91 198.019 148.2C198.019 120.692 177.708 97.8906 151.278 93.9889L151.663 93.3996H142.587L142.59 93.4034Z" fill="url(#paint4_linear)"/>
<path d="M150.889 93.3997C181.154 93.3997 205.689 117.935 205.689 148.2C205.689 178.465 181.154 203 150.889 203C120.624 203 96.0889 178.465 96.0889 148.2C96.0889 117.935 120.624 93.3997 150.889 93.3997Z" fill="url(#paint5_linear)"/>
<path fill-rule="evenodd" clip-rule="evenodd" d="M150.902 190.564C174.283 190.564 193.265 171.582 193.265 148.201C193.265 124.82 174.283 105.838 150.902 105.838C127.522 105.838 108.539 124.82 108.539 148.201C108.539 171.582 127.522 190.564 150.902 190.564ZM150.902 187.408C129.263 187.408 111.696 169.84 111.696 148.201C111.696 126.562 129.263 108.994 150.902 108.994C172.541 108.994 190.11 126.562 190.11 148.201C190.11 169.84 172.541 187.408 150.902 187.408Z" fill="#35B7D4"/>
</g>
<defs>
<filter id="filter0_d" x="2" y="6" width="215.689" height="209" filterUnits="userSpaceOnUse" color-interpolation-filters="sRGB">
<feFlood flood-opacity="0" result="BackgroundImageFix"/>
<feColorMatrix in="SourceAlpha" type="matrix" values="0 0 0 0 0 0 0 0 0 0 0 0 0 0 0 0 0 0 127 0"/>
<feMorphology radius="2" operator="dilate" in="SourceAlpha" result="effect1_dropShadow"/>
<feOffset/>
<feGaussianBlur stdDeviation="5"/>
<feColorMatrix type="matrix" values="0 0 0 0 0.268879 0 0 0 0 0.546665 0 0 0 0 0.879167 0 0 0 1 0"/>
<feBlend mode="normal" in2="BackgroundImageFix" result="effect1_dropShadow"/>
<feBlend mode="normal" in="SourceGraphic" in2="effect1_dropShadow" result="shape"/>
</filter>
<linearGradient id="paint0_linear" x1="201.692" y1="143.822" x2="15.196" y2="142.763" gradientUnits="userSpaceOnUse">
<stop stop-color="#00F9BB"/>
<stop offset="1" stop-color="#627EEA"/>
</linearGradient>
<linearGradient id="paint1_linear" x1="21.6692" y1="149.26" x2="128.091" y2="143.961" gradientUnits="userSpaceOnUse">
<stop stop-color="#00F9BB"/>
<stop offset="1" stop-color="#627EEA"/>
</linearGradient>
<linearGradient id="paint2_linear" x1="201.677" y1="143.823" x2="15.1812" y2="142.763" gradientUnits="userSpaceOnUse">
<stop stop-color="#00F9BB"/>
<stop offset="1" stop-color="#627EEA"/>
</linearGradient>
<linearGradient id="paint3_linear" x1="56.5596" y1="148.2" x2="166.16" y2="148.2" gradientUnits="userSpaceOnUse">
<stop stop-color="#00F9BB"/>
<stop offset="1" stop-color="#627EEA"/>
</linearGradient>
<linearGradient id="paint4_linear" x1="200.611" y1="140.643" x2="95.7079" y2="143.822" gradientUnits="userSpaceOnUse">
<stop stop-color="#00F9BB"/>
<stop offset="1" stop-color="#627EEA"/>
</linearGradient>
<linearGradient id="paint5_linear" x1="96.7532" y1="148.061" x2="203.776" y2="148.061" gradientUnits="userSpaceOnUse">
<stop stop-color="#00F9BB"/>
<stop offset="1" stop-color="#627EEA"/>
</linearGradient>
</defs>
</svg>
