<?xml version="1.0" encoding="UTF-8" standalone="no"?>
<svg
   width="1920"
   height="1622"
   viewBox="0 0 1920 1622"
   fill="none"
   version="1.1"
   id="svg8"
   sodipodi:docname="whFTT.svg"
   inkscape:version="1.1 (c68e22c387, 2021-05-23)"
   xmlns:inkscape="http://www.inkscape.org/namespaces/inkscape"
   xmlns:sodipodi="http://sodipodi.sourceforge.net/DTD/sodipodi-0.dtd"
   xmlns="http://www.w3.org/2000/svg"
   xmlns:svg="http://www.w3.org/2000/svg">
  <defs
     id="defs12" />
  <sodipodi:namedview
     id="namedview10"
     pagecolor="#ffffff"
     bordercolor="#666666"
     borderopacity="1.0"
     inkscape:pageshadow="2"
     inkscape:pageopacity="0.0"
     inkscape:pagecheckerboard="0"
     showgrid="false"
     inkscape:zoom="0.22627417"
     inkscape:cx="1683.798"
     inkscape:cy="424.26407"
     inkscape:window-width="2560"
     inkscape:window-height="1346"
     inkscape:window-x="-11"
     inkscape:window-y="-11"
     inkscape:window-maximized="1"
     inkscape:current-layer="svg8" />
  <g
     id="g21052"
     transform="matrix(1.0553281,0,0,1.0553281,-0.0932943,0)">
    <g
       id="g832"
       transform="matrix(4.7458674,0,0,4.7458674,1451.4518,1067.7941)">
      <path
         d="M 37.2101,43.5001 C 37.2242,31.0136 32.3497,19.0177 23.6301,10.0801 23.4733,9.9212 23.2864,9.79516 23.0804,9.70931 22.8744,9.62346 22.6533,9.57953 22.4301,9.58008 h -11.17 c -0.4439,0 -0.8697,0.17562 -1.1844,0.48852 -0.31481,0.3129 -0.49298,0.7377 -0.49562,1.1815 v 11.49 c 0.00162,0.4254 0.16457,0.8344 0.45592,1.1443 0.2914,0.31 0.6896,0.4978 1.1141,0.5257 4.8016,0.381 9.2833,2.5574 12.5517,6.0955 3.2684,3.538 5.0836,8.1778 5.0836,12.9945 0,4.8167 -1.8152,9.4565 -5.0836,12.9945 -3.2684,3.5381 -7.7501,5.7145 -12.5517,6.0955 -0.4245,0.0278 -0.8227,0.2157 -1.1141,0.5257 -0.29135,0.3099 -0.4543,0.7189 -0.45592,1.1443 v 11.49 c 0.00264,0.4438 0.18081,0.8686 0.49562,1.1815 0.3147,0.3129 0.7405,0.4885 1.1844,0.4885 h 11.17 c 0.2232,5e-4 0.4443,-0.0434 0.6503,-0.1292 0.206,-0.0859 0.3929,-0.2119 0.5497,-0.3708 8.7196,-8.9376 13.5941,-20.9335 13.58,-33.42 z"
         fill="#ff0000"
         id="path2" />
      <path
         d="m 77.42,64.2601 c -0.002,-0.4303 -0.1691,-0.8435 -0.4668,-1.1542 -0.2977,-0.3107 -0.7033,-0.4953 -1.1332,-0.5158 -4.8015,-0.381 -9.2832,-2.5574 -12.5517,-6.0955 -3.2684,-3.538 -5.0835,-8.1778 -5.0835,-12.9945 0,-4.8167 1.8151,-9.4565 5.0835,-12.9945 3.2685,-3.5381 7.7502,-5.7145 12.5517,-6.0955 0.4246,-0.0279 0.8227,-0.2157 1.1141,-0.5257 0.2914,-0.3099 0.4543,-0.7189 0.4559,-1.1443 v -11.49 c 0,-0.2193 -0.0431,-0.4365 -0.1271,-0.6391 C 77.179,10.4084 77.056,10.2243 76.9009,10.0692 76.7458,9.91414 76.5617,9.79112 76.3591,9.7072 76.1565,9.62327 75.9394,9.58008 75.7201,9.58008 H 64.57 c -0.4504,0.0011 -0.882,0.18093 -1.2,0.50002 -8.7012,8.9488 -13.5692,20.9383 -13.5692,33.42 0,12.4817 4.868,24.4712 13.5692,33.42 0.318,0.319 0.7496,0.4989 1.2,0.5 h 11.18 c 0.443,0 0.8677,-0.176 1.1809,-0.4892 0.3132,-0.3131 0.4891,-0.7379 0.4891,-1.1808 z"
         fill="#0073ff"
         id="path4" />
      <path
         d="m 34.9699,3.59998 c -0.307,7.8e-4 -0.6091,0.07673 -0.88,0.22121 -0.2708,0.14447 -0.5022,0.35308 -0.6738,0.60759 -0.1717,0.25452 -0.2784,0.54719 -0.3108,0.85245 -0.0325,0.30527 0.0103,0.61383 0.1246,0.89875 4.63,11.89752 7.0038,24.55332 7,37.32002 0.0038,12.7667 -2.37,25.4224 -7,37.32 -0.1143,0.2849 -0.1571,0.5934 -0.1246,0.8987 0.0324,0.3053 0.1391,0.598 0.3108,0.8525 0.1716,0.2545 0.403,0.4631 0.6738,0.6076 0.2709,0.1444 0.573,0.2204 0.88,0.2212 h 17 c 0.307,-8e-4 0.6091,-0.0768 0.88,-0.2212 0.2708,-0.1445 0.5022,-0.3531 0.6738,-0.6076 0.1717,-0.2545 0.2784,-0.5472 0.3109,-0.8525 C 53.867,81.4134 53.8242,81.1049 53.7099,80.82 44.3095,56.8279 44.3095,30.172 53.7099,6.17998 53.8242,5.89506 53.867,5.5865 53.8346,5.28123 53.8021,4.97597 53.6954,4.6833 53.5237,4.42878 53.3521,4.17427 53.1207,3.96566 52.8499,3.82119 52.579,3.67671 52.2769,3.60076 51.9699,3.59998 Z"
         fill="#00f3d7"
         id="path6" />
    </g>
    <path
       style="fill:#2a9bb4;fill-opacity:1;stroke-width:0.902193"
       d="M 511.38632,209.30872 V 0 h 647.32328 647.3233 V 209.30872 418.61743 H 1158.7096 511.38632 Z"
       id="path836"
       sodipodi:nodetypes="ccccccccc" />
    <path
       d="m 530.14725,1533.685 -17.71316,-0.2933 -0.64563,-34.49 c -0.85144,-45.4934 -0.22554,-381.0239 0.71274,-381.9619 2.11254,-2.112 414.99093,-2.1686 417.10229,-0.053 0.90896,0.9088 0.90984,415.3704 0,416.2798 -0.67779,0.6777 -361.58359,1.1506 -399.45766,0.5232 z"
       style="fill:#93d4dc;fill-opacity:1;stroke-width:0.902193"
       id="path9420" />
  </g>
  <path
     d="m 37.152283,1029.7188 -35.4660826,-0.262 V 809.20598 588.9552 L 20.40553,588.32766 c 24.392768,-0.81646 379.94734,-0.81646 404.34039,0 l 18.71906,0.62754 v 220.10624 220.10626 l -58.7116,0.632 c -54.10172,0.5825 -264.23855,0.5333 -347.601097,-0.076 z m 598.400757,0.068 -95.92501,-0.3205 V 809.17206 588.87781 l 60.22091,-0.67683 c 82.11082,-0.92336 924.85556,-0.22624 925.84736,0.76576 0.9491,0.94923 1.0838,439.10816 0.1337,440.05666 -0.6916,0.6914 -725.34337,1.3133 -890.27813,0.7634 z"
     style="fill:#31b6c9;fill-opacity:1;stroke-width:0.95211"
     id="path9266" />
</svg>
